<?xml version="1.0" encoding="UTF-8" standalone="no"?>
<!-- Created with Inkscape (http://www.inkscape.org/) -->

<svg
   width="69.069mm"
   height="60.222mm"
   viewBox="0 0 69.069 60.222"
   version="1.1"
   id="svg3204"
   xmlns="http://www.w3.org/2000/svg"
   xmlns:svg="http://www.w3.org/2000/svg">
  <defs
     id="defs3201" />
  <g
     id="layer1">
    <path
       id="path5808"
       style="display:inline;fill:#000000;fill-opacity:1;stroke-width:0.351896"
       d="m 55.780131,4.1122529e-4 c -0.46854,-0.003799995 -0.95099,0.0184400047 -1.44436,0.0790600047 -0.98672,0.121243 -2.01761,0.39687804 -3.22202,0.68626304 -1.20441,0.28939303 -2.58211,0.59237803 -3.58531,0.78806703 -1.00321,0.195688 -1.63177,0.283863 -2.77554,0.347265 -1.14376,0.0634 -2.8031,0.101799 -4.09019,0.118341 -1.28709,0.01654 -2.2021,0.01135 -3.18327,-0.0026 -0.98117,-0.01378 -2.02827,-0.03582 -3.2272,0.01654 -1.19891,0.05235 -2.54916,0.178983 -3.89691,0.415997 -1.34776,0.237003 -2.69283,0.584459 -3.92483,0.981334 -1.23199,0.396875 -2.35089,0.843529 -3.27422,1.295527 -0.92332,0.452006 -1.6512,0.909304 -2.37608,1.499134 -0.72489,0.589831 -1.44674,1.311839 -1.95389,1.951302 -0.2576,0.324821 -0.45994,0.631452 -0.66042,1.059884 -0.0533,0.07397 -0.10651,0.1359174 -0.16071,0.2242774 -0.29799,0.485762 -0.62972,1.1696253 -1.00873,2.0438003 -0.0125,0.02117 -0.0384,0.06802 -0.10904,0.19689 -0.11578,0.211217 -0.34709,0.633534 -0.49351,0.915704 -0.037,0.07124 -0.0683,0.133406 -0.0915,0.187069 -0.59211,0.637106 -1.179,1.272503 -1.65933,1.87172 -0.18065,0.225364 -1.13592,0.637442 -1.54048,0.913641 -1.8127,0.371483 -5.500868,1.402165 -7.089487,1.75183 -3.634912,0.449707 -5.90273996,2.321396 -5.90816596,4.739246 0.003,0.187145 -0.03008,0.396832 -0.04444,0.604096 -0.03722,0.293833 -0.06477,0.661038 -0.0599499993,1.060403 0.003999999,0.331441 0.0308799993,0.682225 0.0682099993,0.992703 l -0.01705,0.06821 c 0.249495,1.668505 0.499107,3.336427 0.729154,4.328417 0.144245,0.622 0.28091496,0.97851 0.49867796,1.19217 0.05809,0.0815 0.128928,0.16633 0.217557,0.25528 0.124548,0.12501 0.283556,0.25814 0.45527,0.37569 l 0.01137,0.95756 0.01757,0.47336 0.222209,1.08779 0.02067,0.16175 c 0.03262,0.52824 0.06782,1.05152 0.125573,1.53324 0.03236,0.75176 0.08486,1.4861 0.461988,1.93735 0.01051,0.0126 0.02155,0.0245 0.03256,0.0367 0.457542,0.71507 0.914231,1.4278 1.25522,1.77818 0.296807,0.305 0.505786,0.33599 0.636137,0.32453 0.07986,8e-4 0.228406,0.001 0.238228,-0.12351 0.0092,-0.11653 -0.10206,-0.34268 -0.221691,-0.57619 -0.06466,-0.19708 -0.153919,-0.44348 -0.261483,-0.72812 -0.01178,-0.0613 -0.02529,-0.12832 -0.04186,-0.20877 -0.100409,-0.48752 -0.282092,-1.34746 -0.311092,-1.92495 -0.02314,-0.46075 0.05173,-0.74089 0.145727,-0.98547 0.292091,0.0965 0.601692,0.19278 1.075387,0.28577 0.535733,0.10517 1.279619,0.20634 1.723926,0.22583 0.03634,0.0881 0.07979,0.18321 0.134875,0.2899 0.09856,0.1909 0.234687,0.41901 0.380339,0.51109 0.01515,0.0771 0.02557,0.13527 0.04289,0.22065 0.109144,0.5379 0.264955,1.25518 0.467672,1.90221 0.202716,0.64702 0.452071,1.22353 0.639239,1.56063 0.18717,0.33711 0.3117,0.43466 0.39533,0.43461 0.0836,-6e-5 0.12676,-0.0975 0.16381,-1.1498 0.0371,-1.05233 0.0682,-3.05927 0.1012897,-4.12534 0.0134,-0.42991 0.0269,-0.70243 0.0439,-0.88677 0.0945,-0.1118 0.1905904,-0.22126 0.2914604,-0.31729 0.1423,-0.13548 0.2942999,-0.24625 0.5906599,-0.22375 0.19906,0.0151 0.47617,0.0974 0.77721,0.19481 l 5.3e-4,5.3e-4 c 0.0956,0.0644 0.19482,0.10318 0.30644,0.14417 0.44649,0.16396 1.09126,0.36248 1.60249,0.45889 0.51123,0.0964 0.88868,0.0906 1.21801,0.0672 0.24757,-0.0176 0.52666,-0.0538 0.83096,-0.0899 0.12155,0.0784 0.25836,0.20623 0.41134,0.41703 0.31759,0.43762 0.70519,1.22478 0.99064,2.1115 0.28546,0.88672 0.46848,1.87279 0.54932,2.74195 0.0808,0.86917 0.0599,1.62146 0.007,2.39417 -0.0526,0.7727 -0.13686,1.56598 -0.22066,2.19057 -0.0838,0.6246 -0.16734,1.08049 -0.31936,1.6242 -0.0702,0.25121 -0.15282,0.52045 -0.21239,0.78703 h -5.3e-4 c -0.20901,0.6938 -0.41773,1.38746 -0.52658,1.79472 -0.0204,0.0764 -0.0376,0.1425 -0.0496,0.19947 -8e-5,2.6e-4 7e-5,7.9e-4 0,0.001 -0.048,0.21431 -0.12747,0.52502 -0.23565,0.89038 -0.009,0.0304 -0.0184,0.061 -0.0279,0.0915 -0.051,0.004 -0.079,0.006 -0.15142,0.0129 -0.14422,0.0136 -0.32728,0.0329 -0.51831,0.0816 -0.19104,0.0487 -0.38987,0.12648 -0.58859,0.16742 -0.19873,0.041 -0.39776,0.0449 -0.58292,-0.0641 -0.18515,-0.10899 -0.35635,-0.33097 -0.6506,-0.44804 -0.29426,-0.11708 -0.71165,-0.12887 -1.03715,-0.32555 -0.3255,-0.1967 -0.55918,-0.57856 -0.95084,-0.95086 -0.39167,-0.37229 -0.94116,-0.73472 -1.2355899,-0.89659 -0.2944204,-0.16184 -0.3337004,-0.12281 -0.3141904,0.16382 0.0195,0.28662 0.0976,0.82073 0.2418504,1.35082 0.14425,0.53011 0.3549899,1.05626 0.4991899,1.44797 0.1442,0.39173 0.22189,0.64872 0.30179,0.91571 0.0799,0.267 0.16168,0.54396 0.25528,0.76224 0.0936,0.21826 0.19916,0.37782 0.20877,0.56481 0.01,0.18701 -0.0765,0.40144 -0.19533,0.56897 -0.11884,0.16751 -0.27062,0.28846 -0.36225,0.41133 -0.0916,0.12289 -0.12291,0.24771 -0.10336,0.45631 0.0196,0.2086 0.0898,0.50073 0.2341,0.82425 0.14427,0.32349 0.36255,0.67793 0.67437,1.14565 0.31183,0.46772 0.7173,1.04855 1.21233,1.61954 0.49504,0.57099 1.07961,1.13226 1.63505,1.59215 0.55544,0.4599 1.08131,0.81884 1.5198,1.03508 0.43849,0.21625 0.78949,0.29028 1.13636,0.32143 0.34688,0.0311 0.68978,0.0191 1.07953,-0.0315 0.38974,-0.0507 0.82606,-0.14021 1.30741,-0.27079 0.48135,-0.13058 1.00774,-0.30195 1.55339,-0.52606 0.54566,-0.22413 1.11058,-0.50102 1.69912,-0.82063 0.58855,-0.31961 1.20052,-0.68206 1.8495,-1.03869 0.64899,-0.35665 1.33501,-0.70741 2.07171,-1.01338 0.7367,-0.30597 1.52427,-0.56708 2.1947,-0.74052 0.67043,-0.17344 1.22372,-0.25921 1.72651,-0.34106 0.5028,-0.0819 0.95482,-0.15966 1.45573,-0.14987 0.50089,0.01 1.05076,0.10701 1.52238,0.19276 0.47162,0.0857 0.86508,0.15965 1.34256,0.2961 0.47748,0.13645 1.0386,0.33561 1.51412,0.56172 0.47551,0.22612 0.86566,0.47934 1.35288,0.73071 0.48723,0.25137 1.0716,0.50079 1.53738,0.68006 0.46576,0.17928 0.81296,0.28841 1.73478,0.51056 0.9218,0.22216 2.41811,0.55712 3.80958,0.80461 1.39148,0.24748 2.67791,0.40726 3.7946,0.53588 1.1167,0.12862 2.06379,0.2261 3.28766,0.31574 1.22388,0.0896 2.72424,0.17152 3.92275,0.16175 1.19853,-0.01 2.09537,-0.11086 2.76573,-0.2434 0.67036,-0.13253 1.1145,-0.2962 1.6738,-0.55345 0.5593,-0.25725 1.233391,-0.6082 1.724441,-0.9648 0.49105,-0.3566 0.79902,-0.7191 1.08159,-1.15755 0.28257,-0.43845 0.53982,-0.95267 0.75809,-1.43402 0.21827,-0.48135 0.39777,-0.92978 0.58291,-1.45986 0.18514,-0.53008 0.37599,-1.14182 0.55139,-1.70894 0.1754,-0.56712 0.33534,-1.08947 0.54777,-1.82418 0.21242,-0.73472 0.47762,-1.68187 0.65887,-2.4536 0.18125,-0.77172 0.27872,-1.36815 0.40928,-1.90996 0.13057,-0.54181 0.29394,-1.029 0.47129,-1.65261 0.17734,-0.62362 0.3686,-1.38384 0.63614,-2.8112 0.26753,-1.42736 0.61137,-3.52208 0.82475,-4.96352 0.21338,-1.44144 0.29627,-2.22932 0.3514,-3.03134 0.0551,-0.80201 0.0827,-1.61793 0.14056,-2.13889 0.0579,-0.52094 0.14605,-0.74693 0.23151,-1.72806 0.0855,-0.98111 0.16795,-2.71748 0.20929,-4.183715 0.0413,-1.466228 0.0412,-2.662018 -0.006,-4.040063 -0.0468,-1.378034 -0.14022,-2.938317 -0.24495,-4.294312 -0.10472,-1.355984 -0.22065,-2.507673 -0.34468,-3.667992 -0.12402,-1.160309 -0.25651,-2.328887 -0.42736,-3.356901 -0.17086,-1.0280073 -0.3802,-1.9158117 -0.70538,-2.8060317 -0.32518,-0.890209 -0.76605,-1.782821 -1.19321,-2.502172 -0.42716,-0.719344 -0.8408,-1.26536 -1.25419,-1.731161 -0.41339,-0.465791 -0.82649,-0.851755 -1.37769,-1.23765 -0.5512,-0.385894 -1.24006,-0.771662 -1.90428,-1.066601 -0.664211,-0.29493903 -1.303951,-0.49882403 -2.028821,-0.66972703 -0.72485,-0.17090204 -1.53476,-0.30883204 -2.41122,-0.39429004 -0.43823,-0.04273 -0.89313,-0.07217 -1.36167,-0.0759600047 z M 55.342951,2.0984723 c 0.3073,-5.29e-4 0.59996,0.0072 0.87281,0.01757 1.09143,0.04136 1.86844,0.124092 2.66496,0.48524 0.79651,0.361154 1.61232,1.000429 2.248961,1.579232 0.63663,0.578808 1.09423,1.097238 1.49654,1.913062 0.40232,0.815829 0.74963,1.929212 1.30949,3.6586924 0.55985,1.7294763 1.28022,3.9177553 1.68568,5.5810553 0.40546,1.663298 0.44389,2.644092 0.54312,3.903636 0.0992,1.259549 0.25926,2.797585 0.34468,4.569748 0.0854,1.772161 0.0965,3.778574 -0.10749,6.259044 -0.20397,2.48048 -0.62267,5.43502 -1.45779,8.28477 -0.83511,2.84975 -2.08656,5.59468 -3.2954,8.0455 -1.208851,2.45083 -2.596681,5.01684 -3.394111,6.21564 -0.26191,0.39374 -0.47313,0.65647 -0.66508,0.87024 -0.003,0.005 -0.005,0.009 -0.008,0.0145 -0.3073,0.50847 -0.77037,1.19205 -1.21957,1.68258 -0.44919,0.49054 -0.88477,0.78807 -1.99677,1.10226 -1.11201,0.3142 -2.90095,0.64473 -4.30517,0.84181 -1.40421,0.19707 -2.42362,0.26079 -3.26698,0.29249 -0.84337,0.0317 -1.5105,0.0317 -2.15543,0.004 -0.64492,-0.0275 -1.26762,-0.0831 -1.55856,-0.15193 -0.29094,-0.0689 -0.24986,-0.15133 -0.0775,-0.25063 0.17235,-0.0993 0.4756,-0.2148 0.76223,-0.33332 0.28662,-0.11851 0.55673,-0.24012 0.85989,-0.3917 0.30316,-0.15159 0.63975,-0.33349 1.22267,-0.63665 0.58292,-0.30318 1.41199,-0.72727 2.15697,-1.17048 0.74498,-0.44321 1.40566,-0.90541 2.06602,-1.36736 h 0.004 c 0.28119,-0.25893 0.56925,-0.51596 0.82993,-0.74207 0.80327,-0.69675 1.27589,-1.09503 1.87947,-1.6614 0.60357,-0.56636 1.33826,-1.30088 1.85777,-1.86862 0.5195,-0.56773 0.82406,-0.9691 1.16375,-1.43143 0.33968,-0.46234 0.71434,-0.98601 1.04231,-1.53169 0.32797,-0.54568 0.60909,-1.11329 0.95912,-1.90015 0.35002,-0.78685 0.76911,-1.79284 1.11776,-2.79052 0.34864,-0.99769 0.62717,-1.9868 0.81597,-2.80397 0.1888,-0.81715 0.28784,-1.46226 0.38292,-2.13061 0.0951,-0.66836 0.18603,-1.3603 0.26872,-2.08102 0.0827,-0.72071 0.15732,-1.47021 0.15864,-2.27221 10e-4,-0.802 -0.0706,-1.65622 -0.12712,-2.35903 -0.0565,-0.7028 -0.0977,-1.25413 -0.15606,-1.69395 -0.0583,-0.43982 -0.13342,-0.76832 -0.17467,-1.0697 -0.0412,-0.301382 -0.0483,-0.575601 -0.061,-0.728639 -0.0127,-0.153038 -0.0313,-0.184912 -0.0522,-0.06976 -0.0209,0.11515 -0.0439,0.377426 -0.077,0.646469 -0.0331,0.26905 -0.0762,0.54482 -0.12351,0.94981 -0.0473,0.40499 -0.0986,0.93896 -0.1819,1.57562 -0.0833,0.63665 -0.19853,1.37618 -0.36483,2.23087 -0.16631,0.85468 -0.38378,1.82486 -0.60565,2.78949 -0.22187,0.96464 -0.44786,1.92376 -0.76068,2.92696 -0.31282,1.00319 -0.71227,2.05018 -1.11466,2.98999 -0.40238,0.93982 -0.80787,1.77218 -1.20613,2.50114 -0.39825,0.72897 -0.78946,1.35482 -1.23868,1.91565 -0.44922,0.56083 -0.95637,1.05662 -1.4304,1.48518 -0.47404,0.42856 -0.91495,0.78961 -1.42886,1.13946 -0.5139,0.34986 -1.10099,0.68844 -1.60197,0.88419 -0.11724,0.0458 -0.22858,0.0817 -0.33434,0.11007 l -5.3e-4,5.3e-4 c -0.007,0.002 -0.0153,0.005 -0.0222,0.007 -0.21649,0.0779 -0.49363,0.0627 -0.63096,0.0134 -0.25238,-0.0906 -0.56001,-0.27805 -0.96636,-0.5364 -0.40634,-0.25835 -0.9114,-0.58752 -1.46295,-1.10588 -0.55156,-0.51835 -1.14991,-1.22553 -1.6397,-1.8867 -0.48979,-0.66117 -0.7237,-1.03927 -1.23145,-1.48518 -0.50774,-0.44592 -1.14208,-0.72255 -1.65416,-0.90383 -0.51207,-0.18127 -0.90222,-0.26742 -1.15755,-0.30644 -0.25533,-0.039 -0.37603,-0.0309 -0.56121,0.005 -0.18517,0.036 -0.43457,0.10047 -0.58446,0.12713 -0.14989,0.0267 -0.20017,0.0151 -0.23254,-0.005 -0.0323,-0.0197 -0.047,-0.0479 -0.0305,-0.0708 0.0165,-0.0229 0.0636,-0.0398 0.1757,-0.14365 0.11209,-0.10387 0.12612,-0.11884 0.45734,-0.32763 0.33121,-0.2088 0.65271,-0.25965 0.85834,-0.28887 0.20564,-0.0292 0.2954,-0.0369 0.48679,-0.031 0.1914,0.006 1.0113,0.0602 1.35031,0.20257 0.339,0.14237 0.72374,0.40733 1.0604,0.63924 0.33665,0.23191 0.62535,0.43055 1.05213,0.79892 0.42679,0.36836 0.99216,0.90655 1.54719,1.46089 0.55504,0.55433 0.46137,0.45656 1.07746,1.18236 0.61608,0.72579 0.58605,0.59477 0.92087,0.85834 0.33482,0.26357 0.2856,0.23872 0.46354,0.03 0.0115,-0.0135 0.0214,-0.0319 0.032,-0.0481 0.0766,-0.53032 0.15299,-1.09409 0.19482,-1.60145 0.051,-0.61872 0.0511,-1.13964 0.0264,-1.66191 -0.0248,-0.52227 -0.0744,-1.04576 -0.14883,-1.59009 -0.0744,-0.54432 -0.17349,-1.10966 -0.32918,-1.69808 -0.15569,-0.58842 -0.36794,-1.19993 -0.61598,-1.82832 -0.24803,-0.62838 -0.53178,-1.27347 -0.81287,-1.81229 -0.28109,-0.53882 -0.55949,-0.97168 -0.8971,-1.47743 -0.33762,-0.50575 -0.7345,-1.08434 -1.07487,-1.57148 -0.34037,-0.48714 -0.62454,-0.88288 -0.79427,-1.11001 -0.16972,-0.22712 -0.22521,-0.28547 -0.27957,-0.35811 -0.0544,-0.0726 -0.10741,-0.15923 -0.10283,-0.19172 0.005,-0.0325 0.0668,-0.0109 0.0977,0 0.0309,0.0108 0.0307,0.011 0.28422,0.21962 0.2535,0.20864 0.75994,0.62565 1.3777,1.28829 0.61776,0.66264 1.34677,1.57063 2.02881,2.81792 0.68205,1.24729 1.31726,2.83388 1.70894,3.99149 0.39169,1.15761 0.54018,1.88634 0.6103,2.89388 0.0701,1.00753 0.0622,2.29381 0.0465,2.95847 -0.0157,0.66467 -0.0397,0.70767 0.0481,0.6842 0.0878,-0.0235 0.28715,-0.11329 0.64389,-0.35709 0.35674,-0.24378 0.87105,-0.64145 1.39526,-1.14618 0.52421,-0.50473 1.05836,-1.11653 1.56115,-1.84537 0.50278,-0.72883 0.9744,-1.57466 1.44797,-2.54713 0.47357,-0.97246 0.94912,-2.07169 1.4149,-3.545 0.46578,-1.47331 0.9216,-3.32076 1.27434,-5.19555 0.35275,-1.87478 0.6021,-3.77696 0.7736,-5.164536 0.1715,-1.387576 0.26521,-2.260558 0.33538,-3.320728 0.0702,-1.060166 0.11716,-2.307341 0.16588,-3.201871 0.0487,-0.894529 0.0991,-1.436049 0.12247,-1.770951 0.0234,-0.334902 0.0197,-0.463103 0.0646,-0.47284 0.0449,-0.0097 0.13833,0.09887 0.339,0.846977 0.20066,0.748106 0.50872,2.135449 0.74259,3.135209 0.23387,0.999762 0.39365,1.611828 0.578771,2.728515 0.18512,1.116693 0.39525,2.738005 0.50437,4.470525 0.10911,1.73252 0.11691,3.57593 0.0506,5.01416 -0.0663,1.43823 -0.2062,2.47147 -0.47904,3.72846 -0.272851,1.25699 -0.678531,2.73784 -1.019581,3.83697 -0.34105,1.09913 -0.61749,1.81655 -1.05988,2.73834 -0.44239,0.92178 -1.05035,2.04806 -1.87276,3.26802 -0.82241,1.21995 -1.8596,2.53354 -2.91196,3.73207 -0.94718,1.07872 -1.90669,2.06094 -2.87166,2.70267 -0.0814,0.12522 -0.26674,0.27005 -0.55501,0.46251 -0.48503,0.32382 -1.25402,0.78117 -1.82728,1.09812 -0.57325,0.31695 -0.95062,0.49315 -0.94929,0.55656 10e-4,0.0634 0.38154,0.0138 0.86248,-0.0579 0.48093,-0.0717 1.06229,-0.16536 1.91668,-0.31833 0.85438,-0.15296 1.98198,-0.36499 2.71508,-0.54001 0.73309,-0.17503 1.35166,-0.42658 1.50378,-0.54054 0.15211,-0.11396 0.39734,-0.31785 0.56327,-0.48731 0.16594,-0.16946 0.25287,-0.30489 0.46096,-0.63562 0.11535,-0.18334 0.26767,-0.42532 0.42064,-0.65991 0.16073,-0.31833 0.36817,-0.6742 0.59015,-1.04076 0.42485,-0.7016 0.8927,-1.434 1.56218,-2.54041 0.66947,-1.10642 1.77217,-2.97932 2.659781,-4.94854 0.88761,-1.96922 1.79127,-4.42781 2.51613,-6.92206 0.72485,-2.49424 1.27069,-5.02417 1.44435,-7.94835 0.17366,-2.92418 -0.025,-6.242325 -0.39429,-9.33741 -0.3693,-3.095083 -0.90918,-5.967241 -1.6092,-8.486304 -0.70002,-2.5190617 -1.5602,-4.6852237 -2.610181,-5.9861987 -1.04998,-1.300972 -2.28994,-1.736461 -3.27112,-1.998327 -0.98118,-0.261866 -1.70352,-0.349808 -2.8391,-0.151413 -1.13558,0.198401 -2.68419,0.683498 -4.59145,1.546159 -1.90726,0.862666 -4.17272,2.102713 -5.87044,2.92127 -1.69772,0.818557 -2.82761,1.215239 -3.82251,1.441257 -0.9949,0.2260204 -1.85486,0.2814214 -2.72851,0.2098044 -0.87366,-0.07162 -1.76127,-0.2700294 -2.42828,-0.6475044 -0.66701,-0.377479 -1.11322,-0.934149 -1.39165,-1.38338 -0.27842,-0.449228 -0.38872,-0.790961 -0.4439,-1.273307 -0.0552,-0.482343 -0.0554,-1.10554 0.27544,-1.563211 0.3308,-0.457671 0.99217,-0.749827 1.49655,-0.95653 0.50438,-0.206708 0.85174,-0.327657 1.29553,-0.385508 0.44379,-0.05784 0.98406,-0.0524 1.42782,-0.0083 0.44375,0.04414 0.79079,0.126672 0.98908,0.463021 0.1983,0.336354 0.24826,0.926285 0.18759,1.436089 -0.0607,0.509805 -0.23167,0.939366 -0.58705,1.1405 -0.35537,0.201128 -0.89573,0.173752 -1.05575,-0.101804 -0.16001,-0.275556 0.0608,-0.798896 0.19586,-1.104842 0.13505,-0.305945 0.18465,-0.394282 0.14624,-0.45217 -0.0384,-0.05789 -0.16517,-0.08577 -0.36638,-0.110585 -0.20121,-0.02482 -0.4769,-0.04647 -0.92346,0.06098 -0.44656,0.107452 -1.06409,0.344408 -1.4087,0.562239 -0.34461,0.217837 -0.41637,0.415936 -0.45217,0.622702 -0.0358,0.206767 -0.0354,0.42217 0.0667,0.695048 0.10208,0.272878 0.3057,0.603628 0.5979,0.901237 0.2922,0.297608 0.67266,0.561818 1.18804,0.71882 0.51538,0.157072 1.16595,0.206703 2.13217,0.15813 0.96623,-0.04857 1.72598,-0.135397 3.46387,-0.795819 1.7379,-0.660416 3.93137,-1.834507 5.7366,-2.826699 1.80524,-0.992193 3.2221,-1.802498 4.63331,-2.207618 1.05841,-0.303839 2.11356,-0.379785 3.03547,-0.381373 z m -23.99802,1.692405 c 0.21878,-0.0024 0.42167,0.01595 0.57878,0.04496 0.31421,0.05798 0.44612,0.157258 0.50384,0.311608 0.0577,0.154352 0.0413,0.364101 -0.0579,0.551389 -0.0992,0.187288 -0.28105,0.352266 -0.6227,0.462505 -0.34164,0.110236 -0.84344,0.165716 -1.34513,0.3669 -0.5017,0.201189 -1.00299,0.548336 -1.30897,1.033529 -0.30597,0.485198 -0.41645,1.108141 -0.41909,1.444357 -0.003,0.336217 0.1025,0.385911 0.33951,0.429948 0.23701,0.04404 0.60598,0.08261 0.96428,0.198438 0.35831,0.115826 0.70549,0.308464 1.00976,0.557072 0.30427,0.2486054 0.79069,0.8144627 1.12809,1.1208627 0.33741,0.306396 0.75047,0.61508 0.97359,0.86868 0.22312,0.253601 0.25619,0.451779 0.0496,0.517798 -0.20658,0.06602 -0.65302,-1.77e-4 -1.26763,-0.104902 -0.6146,-0.104728 -1.39732,-0.247775 -2.08359,-0.509532 -0.68626,-0.261752 -1.27612,-0.641874 -1.59318,-0.906404 -0.31706,-0.2645283 -0.36081,-0.4137003 -0.53434,-0.5901463 -0.17352,-0.17644 -0.47688,-0.3805504 -1.21284,-0.2428774 -0.73596,0.1376714 -1.90421,0.6175124 -2.79725,1.1218957 -0.89303,0.504383 -1.5107,1.033679 -1.91564,1.66243 -0.40494,0.628753 -0.63208,1.487357 -0.83303,2.077394 -0.20095,0.590032 -0.41018,1.042038 -0.66921,1.386478 -0.25902,0.34444 -0.56791,0.581522 -0.86558,0.826823 -0.29767,0.2453 -0.58423,0.49867 -0.92035,0.63097 -0.33613,0.132297 -0.72208,0.143666 -1.27331,0.184999 -0.55123,0.04133 -1.26739,0.11267 -1.81591,0.236681 -0.54853,0.124007 -0.92878,0.300577 -1.33945,0.518313 -0.41068,0.217736 -0.85208,0.476531 -1.11673,0.721921 -0.26466,0.245385 -0.35279,0.47734 -0.35812,0.604097 -0.005,0.126754 0.0718,0.14869 0.65887,0.201019 0.58703,0.05233 1.68429,0.134917 2.45929,0.47284 0.77499,0.337926 1.423,1.186132 1.88102,2.053106 0.45802,0.866973 0.9211,2.007957 0.67851,3.022036 -0.24259,1.014085 -1.19054,1.901527 -2.24327,2.483047 -1.05274,0.58153 -2.21043,0.85721 -3.05925,0.87385 -0.84882,0.0166 -1.38906,-0.22615 -2.05879,-0.47697 -0.66973,-0.25083 -1.4688003,-0.50974 -2.08618,-0.77153 C 8.155264,26.912682 7.719683,26.648002 7.344816,26.322836 6.969948,25.997671 6.655659,25.612104 6.421358,25.275872 6.187057,24.939642 6.032677,24.652699 5.969189,24.371534 c -0.06349,-0.28116 -0.03565,-0.556538 0.01395,-0.879015 0.0496,-0.322479 0.121096,-0.692046 0.217558,-0.970483 0.09646,-0.278437 0.217562,-0.465585 0.148828,-0.573093 -0.06874,-0.1075 -0.3276,-0.135017 -0.617017,-0.132292 -0.289417,0.0027 -0.609247,0.03584 -0.882117,0.07441 -0.272869,0.03858 -0.498904,0.08259 -0.587044,0.115755 -0.08814,0.03317 -0.03841,0.05528 0.195854,0.187587 0.234262,0.132311 0.652993,0.374608 0.873331,0.779796 0.220339,0.405194 0.242702,0.97304 0.06356,1.422136 -0.179139,0.449101 -0.559714,0.779814 -1.030944,1.05265 -0.47123,0.272835 -1.033432,0.487942 -1.51567,0.559654 -0.482238,0.07172 -0.884696,-2.64e-4 -1.231966,-0.06098 -0.34727,-0.06064 -0.63910296,-0.110193 -0.80460196,-0.291973 -0.1655,-0.181779 -0.204301,-0.495583 -0.135393,-0.716235 0.06891,-0.220651 0.245353,-0.3478 0.66714296,-0.405659 0.421791,-0.05786 1.088664,-0.0465 1.49655,-0.04651 0.407886,-10e-6 0.556641,-0.01135 0.779797,-0.110585 C 3.844164,24.277467 4.14215,24.090256 4.227688,23.933311 4.313228,23.776368 4.186348,23.649614 3.98791,23.459439 3.789475,23.269265 3.519054,23.015868 3.248937,22.720982 2.97882,22.426099 2.709051,22.089456 2.667577,21.802693 2.626107,21.515929 2.813703,21.279249 2.979186,21.146918 3.144668,21.014589 3.287559,20.986903 3.488715,20.917992 3.689871,20.849082 3.9489,20.73898 4.381684,20.708701 c 0.432784,-0.03027 1.03908,0.01929 1.576131,-0.04289 0.537051,-0.06218 1.470034,-0.4088 1.825212,-0.575675 0.355177,-0.166876 0.597918,-0.327126 0.945164,-0.60823 0.34725,-0.281109 0.7992801,-0.68335 1.0914101,-0.961699 0.2921299,-0.27835 0.4242999,-0.432684 0.5374299,-0.51263 0.11314,-0.07995 0.20666,-0.08558 0.25063,-0.01654 0.044,0.06904 0.0386,0.212312 -0.0331,0.388607 -0.0717,0.176294 -0.20928,0.385667 -0.38292,0.672311 -0.17364,0.286639 -0.3834499,0.650457 -0.5901499,0.959115 -0.2066904,0.308652 -0.4107001,0.562277 -0.7193301,0.810286 -0.30863,0.248005 -0.721683,0.490488 -1.030435,0.868164 -0.308751,0.377675 -0.512989,0.890503 -0.631485,1.334284 -0.118497,0.443785 -0.151673,0.818687 -0.05788,1.229383 0.0938,0.410697 0.314627,0.856893 0.703316,1.179256 0.388689,0.322363 0.945504,0.521079 1.6427941,0.749824 0.6972899,0.228748 1.5351099,0.487525 2.0861699,0.617015 0.55107,0.12949 0.28645,0.12987 0.96997,0.16846 0.68352,0.0386 1.78591,0.1154 2.50786,-0.061 0.72194,-0.17638 1.06368,-0.606382 1.36684,-1.124478 0.30316,-0.518102 0.56763,-1.124397 0.60358,-1.598353 0.0359,-0.473956 -0.15658,-0.815623 -0.39636,-1.226283 -0.23977,-0.410655 -0.52665,-0.890109 -0.85731,-1.198893 -0.33067,-0.30878 -0.70555,-0.44649 -1.08314,-0.595313 -0.37758,-0.14882 -0.75772,-0.308782 -1.15187,-0.386022 -0.39415,-0.07724 -0.80221,-0.07169 -1.05316,0 -0.25096,0.07169 -0.3447,0.209365 -0.40256,0.471289 -0.0579,0.261925 -0.0797,0.647682 0.003,0.917774 0.0828,0.270092 0.27005,0.424585 0.38292,0.700214 0.11287,0.275635 0.15166,0.672465 0.0388,0.887286 -0.1129,0.21482 -0.37728,0.247949 -0.68316,0.173633 -0.30589,-0.07432 -0.65338,-0.256024 -0.83819,-0.542603 -0.18481,-0.286578 -0.20705,-0.678156 -0.21808,-1.24592 -0.011,-0.567759 -0.0108,-1.311632 0.12144,-1.953884 0.13227,-0.642253 0.39703,-1.182825 0.6258,-1.563212 0.22878,-0.380388 0.42166,-0.600633 0.78548,-0.945163 0.36382,-0.344529 0.89819,-0.813043 1.40819,-1.050065 0.51,-0.237021 0.99531,-0.242345 1.68982,-0.333314 0.6945,-0.09097 1.59824,-0.267681 2.27066,-0.499192 0.67242,-0.231513 1.11368,-0.517914 1.37821,-0.848529 0.26453,-0.330613 0.35243,-0.705549 0.48472,-1.240235 0.13229,-0.534683 0.30901,-1.229111 0.69763,-1.876888 0.38864,-0.647771 0.98941,-1.248478 1.68672,-1.8355463 0.69732,-0.587063 1.49093,-1.1603204 2.1084,-1.4469404 0.61748,-0.286621 1.05816,-0.286624 1.61489,-0.297657 0.55673,-0.01103 1.2297,-0.03311 1.57407,-0.05788 0.34437,-0.02477 0.36065,-0.05247 0.3607,-0.132292 0,-0.07982 -0.0164,-0.212191 -0.003,-0.56224 0.0138,-0.350043 0.0579,-0.91781 0.37207,-1.460891 0.31421,-0.543081 0.8981,-1.061069 1.38597,-1.438672 0.48785,-0.377603 0.8796,-0.614802 1.32343,-0.725019 0.22191,-0.05511 0.45663,-0.07824 0.67541,-0.08062 z m 24.47706,0.595312 c 0.10678,-0.0024 0.21307,-0.0013 0.31884,0.0036 0.84618,0.03866 1.6511,0.30893 2.37867,0.846461 0.72757,0.537527 1.37797,1.342043 1.72237,2.284613 0.34441,0.942578 0.38293,2.0229124 0.21756,2.7641747 -0.16537,0.741261 -0.53501,1.144309 -0.91777,1.576646 -0.38277,0.432345 -0.78007,0.895763 -1.28158,1.21543 -0.50151,0.319675 -1.10776,0.495922 -1.8464,0.713653 -0.73863,0.217731 -1.60943,0.476914 -2.26808,0.559654 -0.65863,0.08274 -1.10484,-0.01103 -1.5844,-0.115755 -0.47956,-0.104727 -0.99222,-0.220427 -1.27899,-0.440798 -0.28676,-0.220372 -0.34743,-0.545704 -0.23719,-0.807705 0.11024,-0.261993 0.39123,-0.460533 0.62838,-0.510045 0.23716,-0.04951 0.4303,0.05001 0.72244,0.135393 0.29214,0.08539 0.68334,0.156583 1.01958,0.214458 0.33624,0.05788 0.6174,0.102359 1.19889,0.04444 0.58149,-0.05792 1.46322,-0.217736 2.18798,-0.537435 0.72476,-0.31969 1.29263,-0.79934 1.66191,-1.273307 0.36929,-0.473959 0.54032,-0.942472 0.59273,-1.4660593 0.0524,-0.5235894 -0.014,-1.1022624 -0.22892,-1.6810354 -0.2149,-0.578766 -0.57849,-1.157613 -1.0387,-1.535306 -0.46021,-0.377693 -1.01711,-0.554074 -1.55184,-0.600998 -0.53473,-0.04692 -1.04742,0.03549 -1.72548,0.302826 -0.67806,0.267324 -1.52115,0.719672 -2.2102,1.144114 -0.68905,0.42445 -1.22365,0.82087 -1.65365,1.501719 -0.42999,0.6808424 -0.75534,1.6459417 -1.22111,2.5388627 -0.46577,0.892922 -1.07232,1.713794 -1.94872,2.554367 -0.8764,0.840566 -2.0225,1.70085 -3.25716,2.351276 -1.23468,0.650433 -2.55766,1.091221 -4.0349,1.441256 -1.47724,0.350036 -3.10906,0.609182 -4.14807,0.650606 -1.039,0.04142 -1.48517,-0.135015 -1.9482,-0.272852 -0.46303,-0.137835 -0.94291,-0.237061 -1.25729,-0.09095 -0.31437,0.146113 -0.46287,0.537509 -0.78806,0.983919 -0.32519,0.446418 -0.82686,0.948116 -1.54616,1.480013 -0.7193,0.531905 -1.65633,1.093763 -2.52439,1.303282 -0.86806,0.20951 -1.66726,0.06646 -2.37557,-0.112657 -0.7083,-0.179113 -1.32561,-0.394214 -1.81901,-0.777214 -0.4934,-0.382992 -0.86276,-0.934132 -1.09709,-1.416449 -0.23434,-0.482317 -0.33377,-0.896006 -0.30076,-1.441773 0.033,-0.545767 0.19822,-1.223407 0.5979,-1.788522 0.39967,-0.565108 1.03398,-1.016979 1.75338,-1.364258 0.7194,-0.347271 1.52369,-0.589931 2.22932,-0.487826 0.70563,0.102108 1.3124,0.548526 2.40657,1.000456 1.09418,0.451937 2.67581,0.909352 3.8747,1.201478 1.1989,0.292127 2.0149,0.418963 3.14761,0.363802 1.13271,-0.05516 2.5823,-0.29196 3.92173,-0.647507 1.33943,-0.355539 2.56837,-0.829593 3.55224,-1.389062 0.98386,-0.559462 1.72272,-1.204585 2.36213,-1.816426 0.6394,-0.611841 1.17961,-1.190847 1.56269,-1.717206 0.38308,-0.526365 0.60927,-1.000104 0.90692,-1.5926703 0.29766,-0.5925614 0.66675,-1.3035524 1.1436,-1.8851564 0.47685,-0.581597 1.06126,-1.033524 1.6924,-1.521355 0.63115,-0.487822 1.30906,-1.011639 2.09187,-1.369941 0.68496,-0.313515 1.44984,-0.500319 2.19728,-0.516247 z M 26.347821,15.554502 c -0.32253,0.0027 -0.66416,0.107479 -1.0666,0.314192 -0.40244,0.206706 -0.86535,0.515459 -1.15756,0.840775 -0.29219,0.325315 -0.41361,0.667083 -0.4687,1.014407 -0.0551,0.347329 -0.044,0.700376 0.0718,1.020093 0.11587,0.31972 0.33637,0.606047 0.65888,0.881599 0.3225,0.275559 0.74689,0.540441 1.14928,0.700218 0.40238,0.159771 0.78243,0.214849 1.36116,0.134874 0.57872,-0.07997 1.35621,-0.295249 2.04793,-0.581875 0.69173,-0.286633 1.29819,-0.645017 1.67845,-1.016992 0.38027,-0.37198 0.53429,-0.757497 0.65009,-0.980821 0.1158,-0.223316 0.19314,-0.283985 0.2372,-0.338997 0.0441,-0.05501 0.055,-0.104492 -0.14056,-0.176215 -0.19551,-0.07172 -0.59765,-0.165452 -0.92139,-0.263549 -0.32374,-0.09811 -0.56912,-0.200684 -0.93845,-0.371555 -0.36932,-0.17087 -0.86289,-0.410241 -1.25573,-0.584977 -0.39284,-0.174737 -0.68471,-0.284904 -0.98237,-0.389642 -0.29766,-0.10474 -0.60092,-0.204208 -0.92346,-0.201535 z m -22.16609,12.36048 c 0.230471,-0.0102 0.498235,0.0129 0.814938,0.0636 0.633406,0.10138 1.463458,0.31207 2.519742,0.61805 1.05629,0.30598 2.3383101,0.70758 3.60702,1.16168 1.2687,0.4541 2.52376,0.96042 3.48454,1.30535 0.96078,0.34492 1.62756,0.5283 2.68769,0.48731 1.06013,-0.041 2.51387,-0.30606 3.46283,-0.6997 0.94898,-0.39364 1.39315,-0.91559 1.65624,-1.23713 0.26308,-0.32155 0.34522,-0.4425 0.45837,-0.52245 0.11314,-0.08 0.25726,-0.11908 0.3917,0.0253 0.13445,0.1444 0.25902,0.47175 0.62735,1.37407 0.36835,0.90233 0.98052,2.37984 1.55547,3.54914 0.57494,1.16931 1.11254,2.03062 1.58026,2.81017 0.46772,0.77954 0.86558,1.47702 1.18908,2.07532 0.3235,0.5983 0.57276,1.09702 0.7462,1.45366 0.17344,0.35664 0.27081,0.57114 0.38964,1.03301 0.11884,0.46188 0.25926,1.17108 0.39378,1.6583 0.13452,0.48722 0.2632,0.75268 0.31574,1.25935 0.0525,0.50668 0.0292,1.25472 0.0331,1.80041 0.004,0.54569 0.0352,0.88875 -0.0506,1.32912 -0.0843,0.43267 -0.28006,0.95524 -0.40153,1.26555 -0.0161,0.0483 -0.0258,0.0862 -0.047,0.14366 -0.18323,0.49688 -0.55706,1.35421 -0.83768,1.88619 -0.28061,0.53199 -0.468,0.7384 -0.82268,1.09503 -0.35469,0.35663 -0.87706,0.86352 -1.60197,1.32343 -0.72492,0.4599 -1.65254,0.87285 -2.91145,1.23145 -1.25892,0.3586 -2.84887,0.66251 -3.87005,0.81649 -1.02118,0.15397 -1.47335,0.15813 -1.92547,0.1328 -0.45212,-0.0253 -0.90438,-0.0796 -1.58646,-0.28421 -0.68209,-0.20459 -1.59406,-0.55968 -2.1885,-0.89091 -0.59444,-0.33122 -0.8714,-0.63903 -1.2144,-1.01906 -0.34299,-0.38002 -0.75207,-0.8319 -0.90227,-1.12241 -0.1502,-0.29051 -0.0411,-0.41919 0.11679,-0.55759 0.15789,-0.1384 0.36433,-0.28661 0.54571,-0.31574 0.18137,-0.0291 0.33757,0.0606 0.61236,0.19896 0.27479,0.13835 0.66858,0.32529 1.05834,0.43046 0.38975,0.10518 0.77531,0.12889 1.09295,0.13074 0.31765,0.002 0.56721,-0.0175 0.87902,-0.0506 0.31181,-0.0331 0.68603,-0.0803 0.91002,-0.28681 0.22399,-0.20646 0.29815,-0.57249 0.30024,-0.80046 6.3e-4,-0.0679 -0.007,-0.12094 -0.017,-0.16795 -0.40049,-0.45408 -0.68655,-1.12131 -0.85473,-1.59577 -0.17678,-0.49871 -0.22433,-0.78164 -0.23978,-0.98805 -0.0155,-0.20642 0.001,-0.33618 0.0243,-0.41135 0.0231,-0.0751 0.0525,-0.0952 0.1111,-0.009 0.0587,0.0859 0.14683,0.27727 0.38499,0.54519 0.23817,0.26793 0.62594,0.61249 0.91933,0.89194 0.29338,0.27944 0.49238,0.49378 0.68729,0.65939 0.19492,0.1656 0.38566,0.28248 0.678,0.43253 0.29233,0.15004 0.68598,0.33329 1.08159,0.45992 0.39561,0.12663 0.79319,0.19669 1.2609,0.23564 0.46771,0.039 1.00584,0.0468 1.50275,-0.0176 0.49691,-0.0643 0.9527,-0.20082 1.39113,-0.41909 0.43844,-0.21827 0.85973,-0.51848 1.17151,-0.81855 0.31177,-0.30008 0.51406,-0.59985 0.64853,-0.95447 0.13448,-0.35461 0.20079,-0.76405 0.23978,-1.2454 0.0391,-0.48135 0.0508,-1.0346 0.0372,-1.44384 -0.0136,-0.40924 -0.0525,-0.6745 -0.12454,-0.97462 -0.0721,-0.30011 -0.17738,-0.6355 -0.29042,-0.99994 -0.11304,-0.36443 -0.23379,-0.75762 -0.30592,-1.02267 -0.0721,-0.26505 -0.0956,-0.40172 -0.01,-0.54416 0.0858,-0.14243 0.28062,-0.29029 0.43667,-0.34675 0.15604,-0.0564 0.27293,-0.0216 0.33124,-0.004 0.0583,0.0175 0.0581,0.0175 0.13229,0.0605 0.0742,0.043 0.22258,0.12884 0.44856,0.56741 0.22597,0.43856 0.52964,1.2295 0.66404,1.94665 0.1344,0.71714 0.0993,1.36035 0.076,1.82417 -0.0234,0.46384 -0.0349,0.74834 -0.0388,0.98806 -0.004,0.23971 1.3e-4,0.4349 -0.10903,0.80512 -0.10917,0.37022 -0.33136,0.91568 -0.49507,1.28984 -0.1637,0.37416 -0.26903,0.57673 -0.49505,0.81442 -0.22603,0.2377 -0.57307,0.51075 -0.94723,0.77773 -0.37417,0.26699 -0.77527,0.52799 -1.36374,0.71314 -0.58848,0.18515 -1.36435,0.29454 -2.13372,0.28629 -0.76938,-0.008 -1.01744,-0.0494 -1.63608,-0.18242 -0.61864,-0.13301 -1.09266,-0.27339 -1.61024,-0.43925 -0.0678,-0.0217 -0.13731,-0.0466 -0.20619,-0.0698 -0.18177,0.0595 -0.13467,0.2435 -0.0284,0.44442 0.12676,0.2397 0.33315,0.5009 0.43047,0.70745 0.0973,0.20656 0.0854,0.35844 0.0134,0.43822 -0.072,0.0798 -0.20431,0.0878 -0.4284,0.045 -0.22408,-0.0428 -0.53999,-0.13662 -0.85576,-0.15813 -0.31576,-0.0215 -0.63141,0.0293 -1.20044,0.0351 -0.56904,0.006 -1.3914,-0.0332 -1.71101,0.01 -0.3196,0.043 -0.13644,0.16795 0.25528,0.33745 0.39173,0.1695 0.99227,0.38351 1.62368,0.49454 0.6314,0.11103 1.29412,0.11888 2.3952,0.0253 1.10108,-0.0936 2.64026,-0.28835 3.63802,-0.49299 0.99777,-0.20464 1.45378,-0.41915 2.0345,-0.77773 0.58073,-0.35858 1.28631,-0.8611 1.80661,-1.36581 0.5203,-0.5047 0.85534,-1.01161 1.13791,-1.56115 0.13871,-0.26974 0.26506,-0.54884 0.39688,-0.79478 0.15377,-0.46617 0.30607,-0.93641 0.43563,-1.45986 0.14422,-0.58268 0.26087,-1.22939 0.20051,-2.10633 -0.0604,-0.87694 -0.29802,-1.98429 -0.69298,-3.15381 -0.39497,-1.16953 -1.03574,-2.59869 -1.75597,-3.85868 -0.72023,-1.25998 -1.3612,-2.18944 -1.90479,-3.21582 -0.54359,-1.02639 -0.74209,-1.79154 -0.92914,-2.3611 -0.18706,-0.56956 -0.36288,-0.94359 -0.44287,-1.19114 -0.08,-0.24755 -0.0641,-0.36813 -0.18294,-0.35657 -0.11882,0.0116 -0.37197,0.15552 -0.68574,0.34261 -0.31377,0.1871 -0.68798,0.4173 -1.14205,0.6687 -0.45407,0.2514 -0.98818,0.52418 -1.94304,0.64699 -0.95486,0.1228 -2.33074,0.0954 -3.59358,-0.11111 -1.26283,-0.20653 -2.41279,-0.59246 -3.62303,-1.03094 -1.21024,-0.43849 -2.4807703,-0.92949 -3.550688,-1.30173 -1.069922,-0.37225 -1.939046,-0.62561 -2.48667,-0.80099 -0.547623,-0.17537 -0.773779,-0.27299 -1.02526,-0.27698 -0.251482,-0.004 -0.528167,0.0856 -0.649056,0.2651 -0.12089,0.17947 -0.08567,0.44873 -0.17725,0.65319 -0.09158,0.20446 -0.309959,0.34449 -0.578776,0.33486 -0.268817,-0.01 -0.588317,-0.16939 -0.697632,-0.4656 -0.109315,-0.29621 -0.0083,-0.72888 0.16123,-1.10898 0.169557,-0.3801 0.407357,-0.70725 0.744658,-0.87488 0.16865,-0.0838 0.362257,-0.12774 0.592728,-0.13798 z m 28.41429,3.97806 c 0.0114,10e-4 0.0207,0.004 0.0263,0.009 0.0227,0.0198 -0.0108,0.0753 -0.0568,0.15503 -0.046,0.0798 -0.10464,0.1838 -0.16898,0.31161 -0.0643,0.12781 -0.13464,0.27975 -0.25011,0.47956 -0.11547,0.1998 -0.27572,0.44778 -0.39791,0.6165 -0.12219,0.16872 -0.20601,0.25824 -0.22686,0.33279 -0.0208,0.0746 0.0209,0.13387 0.34778,0.30955 0.32688,0.17567 0.93862,0.4677 1.8495,0.76532 0.91089,0.29763 2.12073,0.60086 3.00034,0.77257 0.87961,0.1717 1.42915,0.212 2.01951,0.23409 0.59036,0.0221 1.22149,0.0256 1.90066,0.0139 0.67917,-0.0117 1.40626,-0.0386 1.88567,-0.061 0.47942,-0.0224 0.71116,-0.0403 0.93328,-0.091 0.22212,-0.0507 0.43491,-0.13421 0.53227,-0.11265 0.0974,0.0216 0.0799,0.14783 -0.0672,0.29094 -0.14708,0.1431 -0.42392,0.30329 -0.86041,0.47283 -0.43651,0.16955 -1.03317,0.34866 -1.76785,0.46561 -0.73469,0.11695 -1.60763,0.17166 -2.4164,0.19895 -0.80876,0.0273 -1.55317,0.0271 -2.38435,-0.0801 -0.83116,-0.10716 -1.74919,-0.32119 -2.54919,-0.56379 -0.80001,-0.24261 -1.48164,-0.51364 -2.15595,-0.84491 -0.6743,-0.33128 -1.34115,-0.72323 -1.74459,-0.99116 -0.40344,-0.26792 -0.54345,-0.41175 -0.61495,-0.49971 -0.0715,-0.088 -0.0741,-0.1197 0.37879,-0.42736 0.45291,-0.30767 1.36125,-0.89092 1.84743,-1.21905 0.48618,-0.32813 0.55029,-0.40118 0.58239,-0.4377 0.0321,-0.0365 0.0319,-0.0366 0.0496,-0.0413 0.0177,-0.005 0.0532,-0.0142 0.0817,-0.0212 0.0285,-0.007 0.0498,-0.012 0.10025,-0.0222 0.0378,-0.008 0.0919,-0.0184 0.12609,-0.015 z m 6.94066,12.47985 c 0.0719,5.3e-4 0.1547,0.009 0.20929,0.0135 0.10917,0.01 0.10334,0.008 0.10025,0.007 -0.003,-10e-4 -0.003,-10e-4 0.36639,0.15399 0.36946,0.155 1.10824,0.4647 1.83709,0.97927 0.72885,0.51457 1.44789,1.23354 2.00815,1.92443 0.56026,0.69089 0.96168,1.35349 1.16427,1.82314 0.20259,0.46966 0.20646,0.74669 0.20257,1.12087 -0.004,0.37417 -0.0157,0.84571 -0.0176,1.18287 -0.002,0.33716 0.006,0.53997 -0.01,0.76016 -0.0156,0.22019 -0.0542,0.45775 -0.13023,0.63304 -0.076,0.17529 -0.18902,0.28806 -0.27285,0.43821 -0.0838,0.15015 -0.13841,0.33772 -0.29972,0.43667 -0.16132,0.099 -0.40819,0.10892 -0.81907,0 -0.41089,-0.10892 -0.96448,-0.33813 -1.70377,-0.72502 -0.7393,-0.38689 -1.27111,-0.70024 -1.84795,-1.08882 -0.57685,-0.38859 -1.33018,-1.15446 -1.72651,-1.38132 -0.39634,-0.22685 -0.96048,-0.44812 -1.60508,-0.60358 -0.64458,-0.15545 -1.36976,-0.24499 -1.79265,-0.31315 -0.42289,-0.0682 -0.54382,-0.11506 -0.29249,-0.22428 0.25134,-0.10922 0.87518,-0.28088 1.40922,-0.35295 0.53403,-0.0721 0.97837,-0.0446 1.50068,0.0724 0.52232,0.11698 1.1226,0.32377 1.73065,0.61029 0.60803,0.28653 1.22363,0.65267 1.6738,0.96842 0.45016,0.31575 0.73481,0.58094 1.10122,0.84595 0.36641,0.265 0.81485,0.52994 1.12861,0.67799 0.31376,0.14805 0.49298,0.17904 0.59221,0.18293 0.0992,0.004 0.11833,-0.0195 0.16899,-0.17725 0.0506,-0.15778 0.13277,-0.45019 0.18345,-0.7152 0.0507,-0.26501 0.0702,-0.50239 0.0274,-0.83561 -0.0428,-0.33322 -0.14802,-0.76189 -0.24547,-1.1653 -0.0974,-0.40341 -0.18709,-0.78157 -0.4501,-1.22008 -0.26301,-0.43851 -0.6994,-0.93729 -1.18391,-1.48776 -0.48449,-0.55048 -0.78477,-0.89028 -1.29604,-1.31414 -0.51127,-0.42385 -1.0014,-0.66936 -1.341,-0.85059 -0.33961,-0.18123 -0.5286,-0.29789 -0.51108,-0.34572 0.009,-0.0239 0.0692,-0.0305 0.14107,-0.03 z" />
  </g>
</svg>
