<?xml version="1.0" encoding="UTF-8" standalone="no"?>
<!-- Created with Inkscape (http://www.inkscape.org/) -->

<svg
   width="77.461998mm"
   height="77.116997mm"
   viewBox="0 0 77.461998 77.116997"
   version="1.1"
   id="svg2242"
   xmlns="http://www.w3.org/2000/svg"
   xmlns:svg="http://www.w3.org/2000/svg">
  <defs
     id="defs2239" />
  <g
     id="layer1">
    <path
       id="path550"
       style="display:inline;fill:#000000;stroke-width:0.351896"
       d="m 40.925469,0 c -0.75468,-3.9995063e-6 -1.56076,0.0243 -2.38125,0.0925 -1.64096,0.136396 -3.34023,0.448391 -5.37486,0.982369 -2.03463,0.533978 -4.40415,1.290059 -6.04511,1.847433 -1.64096,0.557374 -2.55332,0.915737 -4.01888,1.597835 -1.46555,0.682098 -3.484533,1.687592 -5.1294,2.630847 -1.644867,0.943256 -2.915078,1.824445 -4.057115,2.646867 -1.14204,0.822422 -2.155828,1.586187 -3.22771,2.459281 -1.0718835,0.873095 -2.2017495,1.855355 -3.1021375,2.693376 -0.900387,0.838021 -1.571082,1.531615 -2.467549,2.416389 -0.896469,0.884775 -2.019003,1.96047 -2.701128,2.665987 -0.682125,0.705519 -0.923859,1.040633 -1.126546,1.336871 -0.202687,0.296235 -0.36641297,0.553794 -0.29610597,0.842325 0.07031,0.28853 0.37472697,0.608213 0.47594097,0.818554 0.101213,0.210344 -1.35e-4,0.311661 -0.156065,0.526066 -0.155927,0.214408 -0.36653797,0.541634 -0.43666497,1.106911 -0.07013,0.565274 -6.9e-5,1.367978 -0.07803,1.878438 -0.07796,0.510458 -0.304097,0.729025 -0.48731,1.282608 -0.183211,0.553585 -0.323188,1.442352 -0.31522499763,1.902211 0.007999998,0.459856 0.16387799763,0.490635 0.38602199763,0.502293 0.222147,0.01167 0.510196,0.0043 0.64647297,0.05116 0.136276,0.04688 0.120583,0.14801 -0.04703,0.576709 -0.167611,0.428699 -0.487098,1.18458 -0.498679,1.827795 -0.01159,0.643218 0.284851,1.173729 0.620118,1.567347 0.335266,0.393618 0.709096,0.650726 0.981853,0.74414 0.272756,0.09342 0.444476,0.0231 0.631486,-0.14056 0.18701,-0.163658 0.389676,-0.420835 0.568957,-0.763778 0.179282,-0.342939 0.335246,-0.771474 0.471805,-0.993738 0.13656,-0.22226 0.253212,-0.238072 0.370004,-0.370519 0.11679,-0.132448 0.233955,-0.381649 0.34313,-0.54932 0.109175,-0.167672 0.210376,-0.253495 0.288356,-0.187069 0.07798,0.06642 0.132782,0.284692 0.347266,0.530201 0.214482,0.245507 0.588537,0.518097 0.935342,0.580324 0.346805,0.06223 0.666631,-0.08567 0.810805,-0.31936 0.144171,-0.23369 0.112816,-0.553114 0.225824,-0.865063 0.113009,-0.311949 0.370107,-0.616212 0.697633,-0.799433 0.327525,-0.183224 0.725138,-0.245348 1.048514,-0.506429 0.323377,-0.261082 0.572839,-0.721431 0.705385,-1.189074 0.132543,-0.467646 0.148383,-0.942978 0.276984,-1.504302 0.128601,-0.561324 0.3698275,-1.208521 0.9973555,-2.568837 0.627531,-1.360313 1.641268,-3.433704 2.30632,-4.75113 0.665051,-1.317424 1.024077,-1.954208 1.770951,-2.94194 0.746874,-0.987731 1.754481,-2.217862 2.48512,-3.134175 0.730637,-0.916312 0.971865,-1.259291 2.094445,-2.110982 1.122582,-0.851691 3.126046,-2.211893 5.037426,-3.449918 1.91138,-1.238026 3.73066,-2.354003 5.60999,-3.245797 1.87933,-0.891794 2.23667,-1.014802 3.8592,-1.492932 1.62252,-0.47813 2.9283,-0.766219 3.86178,-1.019576 0.93347,-0.253358 1.49439,-0.471588 2.50785,-0.561206 1.01347,-0.08962 2.47887,-0.05075 4.18218,0.05839 1.70331,0.109145 3.64435,0.288359 5.65753,0.783415 2.01319,0.495055 4.09848,1.305997 5.93091,2.041219 1.83242,0.735221 3.41192,1.394773 5.23999,2.634464 1.82807,1.239692 3.34308,2.566871 4.701,3.772897 1.35793,1.206025 1.99697,1.798688 2.51148,2.264461 0.5145,0.465773 0.90452,0.804996 1.341,1.48518 0.43648,0.680185 0.9198,1.701181 1.59267,2.946075 0.67286,1.244893 1.53527,2.713286 2.04277,4.697904 0.50749,1.984616 0.43287,0.762823 0.48731,2.377631 0.0544,1.61481 0.0105,2.343472 -0.061,4.061251 -0.0715,1.717778 -0.0925,2.291437 -0.18345,4.182173 -0.091,1.890739 -0.17403,2.965701 -0.48576,4.45761 -0.31174,1.491909 -0.39655,1.792298 -0.92605,3.602366 -0.52949,1.81007 -1.04825,3.52131 -1.48724,4.95422 -0.43899,1.43291 -0.79814,2.58729 -1.21492,3.64422 -0.41676,1.05693 -0.57689,1.38097 -1.16271,2.44327 -0.58582,1.06229 -1.28336,2.2273 -2.11357,3.4804 -0.83021,1.2531 -1.7932,2.59398 -2.63705,3.68143 -0.84385,1.08745 -1.56875,1.92156 -2.26549,2.77761 -0.69675,0.85606 -1.36507,1.73384 -2.37299,2.69854 -1.00791,0.96471 -1.44115,1.30267 -2.75797,2.24741 -1.31681,0.94475 -2.60289,1.78276 -4.0504,2.53111 -1.4475,0.74836 -3.05626,1.4073 -4.8984,1.79938 -1.84214,0.39208 -2.33578,0.42165 -4.2106,0.45268 -1.87482,0.031 -3.90804,-0.0461 -5.16971,-0.31574 -1.26167,-0.26968 -1.37675,-0.31592 -2.67271,-0.86868 -1.29595,-0.55277 -2.67939,-1.16862 -3.76101,-1.63246 -1.08161,-0.46384 -1.86136,-0.77581 -2.38176,-1.10898 -0.5204,-0.33317 -0.78119,-0.68798 -1.17874,-1.15962 -0.39755,-0.47163 -0.93179,-1.05971 -1.44436,-1.68723 -0.51256,-0.62752 -1.00369,-1.29441 -1.48311,-1.97456 -0.47943,-0.68015 -0.94677,-1.37369 -1.41645,-2.08308 -0.46968,-0.70938 -0.94156,-1.4345 -1.37615,-2.08152 -0.43459,-0.64703 -0.83209,-1.21587 -1.225766,-1.80247 -0.393674,-0.58661 -0.78327,-1.19065 -1.003554,-1.59991 -0.220287,-0.40926 -0.271002,-0.62382 -0.376206,-0.9064 -0.105201,-0.28258 -0.265147,-0.63317 -0.284737,-0.96067 -0.01958,-0.3275 0.101465,-0.63165 0.181386,-0.99994 0.07992,-0.36828 0.118578,-0.80101 0.01344,-1.2609 -0.105145,-0.45989 -0.354666,-0.94727 -0.495062,-1.57872 -0.140393,-0.63145 -0.171233,-1.40661 -0.182932,-2.09651 -0.01169,-0.6899 -0.0039,-1.29451 0.136424,-1.96887 0.140293,-0.67436 0.412803,-1.4186 0.658357,-2.06758 0.245558,-0.64897 0.463815,-1.2023 0.682131,-1.56682 0.218315,-0.36453 0.436626,-0.540123 0.588594,-0.744664 0.151969,-0.204545 0.237893,-0.438161 0.428914,-0.685748 0.191024,-0.247586 0.487411,-0.508727 0.703841,-0.649057 0.21642,-0.140327 0.35256,-0.1597 0.50849,-0.0894 0.15594,0.0703 0.33115,0.229897 0.49868,0.510564 0.16753,0.28067 0.32737,0.681836 0.46767,1.077455 0.14031,0.39562 0.26121,0.78538 0.29817,1.20045 0.037,0.41506 -0.01,0.85595 -0.14831,1.44642 -0.13838,0.59047 -0.36822,1.33102 -0.37,1.78904 -0.002,0.45801 0.22459,0.63336 0.46819,0.7307 0.2436,0.0973 0.50459,0.11656 0.8046,0.002 0.30001,-0.11501 0.63898,-0.3642 0.97617,-0.56689 0.33718,-0.20269 0.6723,-0.35877 1.2609,-0.49713 0.58861,-0.13836 1.43083,-0.25913 1.99213,-0.31367 0.5613,-0.0546 0.84164,-0.0429 1.18856,0.0429 0.34692,0.0858 0.76043,0.24584 0.94929,0.42323 0.18887,0.17739 0.15337,0.37197 0.26459,0.6351 0.11121,0.26314 0.3685,0.59425 0.67644,0.76171 0.30794,0.16746 0.66657,0.17142 0.90434,0.22221 0.23777,0.0508 0.35486,0.14856 0.46974,0.44287 0.11487,0.29431 0.22795,0.78531 0.41703,1.3193 0.18907,0.53399 0.45378,1.11065 0.63303,1.6154 0.17926,0.50475 0.27292,0.93767 0.42892,1.28261 0.15599,0.34494 0.37417,0.60224 0.61391,0.76585 0.23975,0.1636 0.50109,0.23374 0.64131,0.29817 0.14021,0.0644 0.15955,0.12254 0.23564,0.20825 0.0761,0.0857 0.20852,0.19901 0.55346,0.25735 0.34493,0.0583 0.90242,0.0621 1.23765,0.0816 0.33523,0.0195 0.44813,0.0546 0.6196,0.19896 0.17147,0.1443 0.4018,0.39739 0.62787,0.51418 0.22606,0.11678 0.44819,0.0974 0.67024,-0.0253 0.22205,-0.12277 0.4442,-0.34868 0.55139,-0.62529 0.10719,-0.2766 0.099,-0.60386 0.0543,-0.92345 -0.0448,-0.3196 -0.12658,-0.6316 -0.25322,-0.95705 -0.12663,-0.32546 -0.29816,-0.66448 -0.47749,-1.11466 -0.17932,-0.45019 -0.36633,-1.01169 -0.58652,-1.56321 -0.2202,-0.55153 -0.47349,-1.09336 -0.71314,-1.47537 -0.23965,-0.382 -0.4656,-0.60415 -0.67024,-0.8263 -0.20465,-0.22216 -0.38793,-0.44433 -0.73484,-0.91984 -0.34691,-0.47552 -0.85759,-1.20408 -1.33894,-1.81798 -0.48135,-0.61391 -0.9331,-1.11272 -1.24488,-1.39733 -0.31179,-0.28461 -0.48326,-0.35483 -0.67231,-0.40359 -0.18905,-0.0488 -0.39563,-0.0762 -0.50488,-0.12093 -0.10926,-0.0447 -0.12135,-0.10677 -0.20309,-0.20619 -0.0817,-0.0994 -0.23378,-0.235882 -0.40721,-0.343131 -0.17343,-0.107249 -0.36791,-0.185195 -0.75965,-0.257349 -0.39173,-0.07215 -0.98034,-0.138743 -1.50068,-0.210839 -0.52034,-0.0721 -0.97267,-0.149616 -1.19889,-0.211876 -0.22622,-0.06226 -0.226,-0.109524 -0.076,-0.680577 0.15004,-0.571053 0.45019,-1.665957 0.66456,-2.313037 0.21438,-0.647081 0.34296,-0.845831 0.73484,-0.929659 0.39188,-0.08383 1.04678,-0.05266 1.6645,-0.146243 0.61772,-0.09358 1.19839,-0.312105 1.96629,-0.456303 0.7679,-0.144198 1.72286,-0.214381 2.68562,-0.187071 0.96276,0.02731 1.93289,0.15209 3.10317,0.50488 1.17029,0.352791 2.54067,0.933498 3.3631,1.546159 0.82244,0.612659 1.26017,1.639105 1.39372,2.210718 0.13355,0.571614 0.12574,1.070555 0.009,1.705838 -0.11695,0.63529 -0.34311,1.40718 -0.44442,1.988 -0.1013,0.58081 -0.0776,0.97046 -0.0796,1.1808 -0.002,0.21035 -0.0291,0.24181 -0.20825,0.2496 -0.17915,0.008 -0.5105,-0.008 -0.79323,0.13229 -0.28274,0.14033 -0.51674,0.43657 -0.70384,0.8537 -0.1871,0.41713 -0.32753,0.9549 -0.31574,1.4149 0.0118,0.46 0.17561,0.84197 0.40566,1.06402 0.23005,0.22204 0.52645,0.28474 0.78755,0.29248 0.26109,0.008 0.48718,-0.0391 0.75602,-0.2067 0.26885,-0.16759 0.58055,-0.45628 0.90021,-0.68626 0.31965,-0.22999 0.64676,-0.40157 0.9741,-0.72503 0.32734,-0.32345 0.65489,-0.79889 0.90433,-1.31723 0.24945,-0.51834 0.42113,-1.0795 0.5147,-1.64073 0.0936,-0.56122 0.10889,-1.12242 0.22583,-1.50843 0.11693,-0.38601 0.33536,-0.59651 0.54208,-0.63149 0.20673,-0.035 0.40142,0.10533 0.61185,0.34314 0.21043,0.2378 0.43672,0.57285 0.66663,1.1653 0.2299,0.59245 0.46363,1.44234 0.67799,2.39727 0.21436,0.95493 0.40907,2.01512 0.49868,2.75177 0.0896,0.73665 0.0743,1.14989 -0.13229,1.83193 -0.2066,0.68203 -0.60406,1.63317 -0.84181,2.36988 -0.23775,0.73672 -0.31583,1.25855 -0.22221,1.85105 0.0936,0.5925 0.3586,1.25518 0.62374,1.64486 0.26514,0.38969 0.53045,0.50675 0.90072,0.59635 0.37027,0.0896 0.84532,0.15211 1.47278,0.0351 0.62745,-0.11698 1.40731,-0.41359 2.2102,-0.84233 0.80288,-0.42874 1.62901,-0.99001 2.51767,-1.65261 0.88867,-0.66261 1.83957,-1.42608 2.59571,-2.10427 0.75614,-0.67818 1.31741,-1.27092 1.83968,-2.02313 0.52227,-0.75221 1.00586,-1.66393 1.37614,-2.45514 0.37029,-0.79122 0.62726,-1.46183 0.77928,-2.03864 0.15203,-0.57682 0.19869,-1.06039 0.19482,-1.57096 -0.004,-0.51058 -0.058,-1.04834 -0.0775,-1.39527 -0.0195,-0.34692 -0.004,-0.50272 0.0935,-0.78341 0.0974,-0.28069 0.27665,-0.68625 0.55346,-0.994262 0.27681,-0.308006 0.65073,-0.518334 1.07952,-0.697632 0.42879,-0.179295 0.9124,-0.327403 1.50482,-0.596344 0.59241,-0.268941 1.29362,-0.658715 1.78077,-1.208196 0.48714,-0.549481 0.76014,-1.258623 0.99012,-2.081009 0.22997,-0.822386 0.41694,-1.757664 0.56895,-2.509925 0.15202,-0.752263 0.26899,-1.321361 0.19896,-1.789038 -0.07,-0.467678 -0.32724,-0.834199 -0.62735,-1.220081 -0.30011,-0.385882 -0.64322,-0.79125 -1.04077,-1.184939 -0.39754,-0.393692 -0.84934,-0.775446 -1.34824,-1.079521 -0.49889,-0.304078 -1.04492,-0.530511 -1.53995,-0.647507 -0.49504,-0.116996 -0.93932,-0.124651 -1.50844,-0.0078 -0.56912,0.1169 -1.26303,0.358587 -1.78542,0.725021 -0.52239,0.366435 -0.87276,0.85752 -1.11052,1.227831 -0.23777,0.370314 -0.36275,0.619837 -0.47956,0.651124 -0.11682,0.03129 -0.22563,-0.156065 -0.43615,-0.752409 -0.21052,-0.596344 -0.52283,-1.601795 -0.96325,-2.732133 -0.44042,-1.130337 -1.00945,-2.385266 -1.61747,-3.550687 -0.60803,-1.16542 -1.25459,-2.24119 -1.78077,-3.067513 -0.52618,-0.826322 -0.93159,-1.40344 -1.50844,-2.151806 -0.57685,-0.748368 -1.3253,-1.668118 -1.9606,-2.350246 -0.6353,-0.682125 -1.15766,-1.126093 -1.87482,-1.613337 -0.71717,-0.487244 -1.62941,-1.017337 -2.2102,-1.422652 -0.5808,-0.405316 -0.82993,-0.686142 -1.38338,-1.161686 -0.55345,-0.475545 -1.41077,-1.14598 -2.3735,-1.578715 -0.96273,-0.432736 -2.03108,-0.627464 -3.32124,-0.740524 -1.29016,-0.113059 -2.80206,-0.144603 -3.67523,-0.109554 -0.87317,0.03505 -1.10735,0.136611 -1.36064,0.191203 -0.25329,0.05459 -0.52574,0.06264 -0.72451,0.02377 -0.19876,-0.03887 -0.32394,-0.124898 -0.51883,-0.183451 -0.19489,-0.05855 -0.45972,-0.08962 -0.70538,-0.04289 -0.24566,0.04673 -0.47177,0.171262 -0.90434,0.268717 -0.43257,0.09746 -1.0716,0.167677 -2.05775,0.401526 -0.98615,0.233849 -2.31946,0.631705 -3.78892,1.189075 -1.46946,0.55737 -3.07496,1.274063 -4.30671,2.096512 -1.23175,0.82245 -2.08916,1.750087 -2.751777,2.471169 -0.662615,0.721079 -1.130596,1.23598 -1.691886,2.120799 -0.56129,0.884822 -1.216062,2.1395 -1.882571,3.495911 -0.666512,1.356413 -1.344846,2.814121 -2.038636,4.720127 -0.693793,1.906005 -1.402895,4.260524 -1.929082,6.490041 -0.526185,2.229519 -0.869098,4.334129 -1.071769,6.158283 -0.202671,1.824151 -0.26538,3.367328 -0.218591,5.090128 0.04679,1.7228 0.203012,3.62485 0.397907,5.31647 0.194897,1.69162 0.428799,3.17266 0.810805,4.68499 0.382005,1.51232 0.912098,3.05587 1.321366,4.20181 0.409268,1.14593 0.697585,1.89459 1.106908,2.56108 0.409324,0.66649 0.939253,1.25088 1.574581,1.92908 0.63533,0.6782 1.376148,1.44983 2.015381,2.08515 0.639233,0.63532 1.1767,1.13458 1.58595,1.53995 0.409249,0.40538 0.690104,0.71694 1.290364,1.23921 0.60027,0.52226 1.52,1.25486 2.76727,2.10064 1.24728,0.84578 2.82189,1.80459 4.22507,2.66599 1.40318,0.8614 2.63499,1.62573 4.00699,2.18695 1.37199,0.56121 2.884,0.91959 4.45864,1.01699 1.57464,0.0974 3.21178,-0.0664 4.89169,-0.25735 1.67991,-0.19099 3.40274,-0.40921 5.1294,-0.74052 1.72667,-0.33132 3.45707,-0.77555 4.89531,-1.2082 1.43825,-0.43265 2.58432,-0.85389 3.46904,-1.3255 0.88473,-0.47161 1.50857,-0.99349 2.31149,-1.67948 0.80292,-0.686 1.7849,-1.53592 2.56057,-2.15956 0.77566,-0.62365 1.34464,-1.02138 1.89807,-1.57872 0.55343,-0.55733 1.0916,-1.27419 1.9296,-2.44739 0.838,-1.1732 1.97593,-2.80264 3.1998,-4.59559 1.22388,-1.79294 2.53336,-3.7492 3.46491,-5.24981 0.93155,-1.5006 1.48528,-2.54544 1.87895,-3.44578 0.39368,-0.90034 0.62721,-1.65617 0.9741,-2.72025 0.3469,-1.06408 0.80677,-2.43624 1.20045,-3.91345 0.39367,-1.47722 0.72126,-3.05959 0.97462,-4.743386 0.25336,-1.683795 0.43273,-3.468965 0.58084,-4.669483 0.14811,-1.200515 0.26477,-1.81633 0.22582,-3.032371 -0.0389,-1.21604 -0.2339,-3.032199 -0.45216,-4.758883 -0.21827,-1.726686 -0.45944,-3.364037 -0.58808,-4.615222 -0.12865,-1.251185 -0.14464,-2.116346 -0.58498,-3.184303 -0.44034,-1.067953 -1.30542,-2.338556 -1.88619,-3.219442 -0.58077,-0.880884 -0.87724,-1.372005 -1.56321,-2.241206 -0.68597,-0.869201 -1.76167,-2.116271 -2.76727,-3.192053 -1.0056,-1.075783 -1.94096,-1.979913 -2.86081,-2.767273 -0.91985,-0.78736 -1.82402,-1.457715 -2.63085,-2.018999 -0.80682,-0.561283 -1.5162,-1.013698 -1.90996,-1.333251 -0.39376,-0.319553 -0.47147,-0.506775 -0.6351,-0.60048 -0.16364,-0.09371 -0.41322,-0.0934 -1.64486,-0.541569 C 58.699569,4.399935 56.485889,3.503364 54.755289,2.8875 53.024699,2.271635 51.777209,1.936263 50.397419,1.546496 49.017629,1.15673 47.505399,0.712655 46.308779,0.451473 45.112169,0.19029 44.231109,0.112556 42.999419,0.054081 42.383579,0.024841 41.680339,3.410005e-4 40.925649,3.410005e-4 Z m -25.91831,11.753287 c 0.04377,0.0036 0.09315,0.0485 0.189651,0.139527 0.193003,0.182058 0.573267,0.548585 0.760677,0.731738 0.18742,0.183152 0.182023,0.182767 0.14056,0.218591 -0.04147,0.03582 -0.118679,0.107827 -0.299207,0.28422 -0.18052,0.176394 -0.464571,0.457504 -0.869712,0.872299 -0.405148,0.414794 -0.931545,0.962893 -1.409734,1.48518 -0.478192,0.522288 -0.907947,1.018365 -1.379244,1.579232 -0.471297,0.560872 -0.983906,1.186815 -1.521354,1.913062 -0.537448,0.726247 -1.0996645,1.55285 -1.6660495,2.495454 -0.566375,0.942605 -1.136883,2.001086 -1.595766,2.82515 -0.458891,0.824068 -0.805974,1.414005 -1.114663,2.056206 -0.308679,0.642202 -0.578953,1.336337 -0.803566,1.985407 -0.224621,0.649079 -0.403659,1.252914 -0.502814,1.560113 -0.09916,0.3072 -0.118449,0.318273 -0.387057,0.272852 -0.268607,-0.04542 -0.786847,-0.147307 -1.039212,-0.213424 -0.252364,-0.06612 -0.238402,-0.09649 -0.181901,-0.297656 0.05651,-0.201165 0.155348,-0.573646 0.199472,-1.12758 0.04413,-0.553932 0.03325,-1.289307 0.03876,-1.847432 0.0055,-0.558123 0.02766,-0.938474 -0.03566,-1.331185 -0.06333,-0.39271 -0.212066,-0.798052 -0.333312,-1.092956 -0.121248,-0.294905 -0.215315,-0.479558 -0.354499,-0.777214 -0.139189,-0.297659 -0.323572,-0.708075 -0.39946,-0.986504 -0.07589,-0.278429 -0.04292,-0.42485 0.217559,-0.72812 0.260466,-0.303271 0.748096,-0.763601 1.168402,-1.159103 0.420307,-0.395502 0.77311,-0.725945 0.96325,-0.922941 0.190133,-0.196995 0.218075,-0.260503 0.438733,-0.11989 0.220657,0.140615 0.63405,0.485338 0.826822,0.675412 0.192731,0.190074 0.164815,0.225515 0.01601,0.34675 -0.148794,0.121235 -0.418748,0.327964 -0.767395,0.615982 -0.348655,0.288017 -0.775795,0.657227 -1.012859,0.917773 -0.237059,0.260546 -0.284023,0.412152 -0.260448,0.543118 0.02357,0.130974 0.117387,0.241496 0.270266,0.738973 0.152879,0.497486 0.364911,1.382223 0.505913,1.772502 0.141004,0.390279 0.211084,0.286288 0.494027,-0.298172 0.282943,-0.584459 0.778708,-1.649661 1.326018,-2.664955 0.547301,-1.015285 0.762399,-1.361204 1.287774,-2.186945 0.525373,-0.825741 0.977228,-1.512136 1.429372,-2.135788 0.452136,-0.623644 0.9045105,-1.18469 1.4376375,-1.789037 0.53313,-0.604346 1.14713,-1.251916 1.718757,-1.844332 0.571635,-0.592416 1.100532,-1.129816 1.508438,-1.544608 0.407895,-0.414794 0.694647,-0.706733 0.840774,-0.854212 0.07306,-0.07374 0.111257,-0.11112 0.15503,-0.107487 z m 21.68188,3.170349 c 0.73587,3.44e-4 1.42179,0.04202 2.03088,0.08888 1.21821,0.09372 2.12802,0.209413 3.19464,0.51263 1.06663,0.303218 2.29012,0.793559 3.35122,1.267623 1.06109,0.474067 1.95956,0.931913 3.02875,1.675349 1.06921,0.743435 1.99579,1.512189 3.08302,2.612245 1.08722,1.100047 2.15889,2.442892 3.15381,3.994586 0.99492,1.551702 1.98165,3.398396 2.82515,5.164027 0.84351,1.765636 1.27852,2.811536 1.78026,4.318082 0.50174,1.506556 0.80477,2.834804 0.99218,3.664375 0.18741,0.82958 0.25938,1.160646 0.3173,1.375627 0.0579,0.214982 0.10156,0.313836 0.26148,0.363287 0.15992,0.04945 0.43567,0.0498 0.90692,-0.03566 0.47126,-0.08546 1.13832,-0.256294 1.87741,-0.631484 0.73908,-0.375198 1.1999,-0.704932 1.63039,-1.093991 0.43048,-0.389059 0.50114,-0.670902 0.53123,-0.791165 0.0301,-0.120264 0.0301,-0.119777 0.0496,-0.41393 0.0195,-0.294151 0.0585,-0.882984 -0.10697,-1.323433 -0.1655,-0.440446 -0.53601,-0.732626 -0.90434,-0.902271 -0.36833,-0.169646 -0.73456,-0.216337 -1.09916,-0.01757 -0.36459,0.198782 -0.72724,0.642737 -0.90847,0.941028 -0.18117,0.298291 -0.18143,0.450514 -0.17931,0.534334 0.002,0.08382 0.006,0.09921 -0.22376,0.104902 -0.22988,0.0057 -0.69374,0.0021 -0.96274,-0.08165 -0.269,-0.08364 -0.34321,-0.247181 -0.33744,-0.574643 0.006,-0.327456 0.0914,-0.818515 0.44028,-1.237649 0.3489,-0.419135 0.96102,-0.76652 1.41904,-0.990637 0.45801,-0.224121 0.76208,-0.325044 1.0759,-0.375688 0.31382,-0.05064 0.6373,-0.05067 1.02319,-0.0078 0.3859,0.04291 0.83389,0.128336 1.22163,0.508497 0.38775,0.380154 0.71536,1.054413 0.92191,1.543574 0.20654,0.489162 0.29227,0.79361 0.339,1.165821 0.0467,0.37221 0.0544,0.812281 -0.0977,1.277958 -0.15204,0.465678 -0.46373,0.956681 -0.79117,1.501717 -0.32743,0.545036 -0.67022,1.144259 -1.80351,1.65313 -1.13327,0.508862 -3.05706,0.927653 -4.04368,1.123445 -0.98661,0.195789 -1.03633,0.168238 -1.1715,-0.366387 -0.13517,-0.534615 -0.35586,-1.576332 -0.82527,-3.094385 -0.46941,-1.518046 -1.24831,-3.680946 -1.89963,-5.37538 -0.65132,-1.69444 -1.23537,-3.089119 -2.05672,-4.704623 -0.82135,-1.615508 -2.01193,-3.680592 -3.50573,-5.257561 -1.4938,-1.576962 -3.42321,-2.894354 -5.35523,-3.919657 -1.93201,-1.025311 -3.86657,-1.758839 -5.34386,-2.125451 -1.47729,-0.366619 -2.49717,-0.366387 -3.30471,-0.366387 -0.80753,0 -1.40263,1.9e-5 -2.11925,0.08268 -0.71661,0.08266 -1.5544,0.248045 -2.80138,0.57516 -1.24697,0.327117 -2.41666,0.672279 -3.81527,1.404564 -1.39861,0.732285 -2.53917,1.708049 -3.85661,3.044775 -1.31743,1.33673 -2.81163,3.034416 -3.930507,4.937683 -1.118883,1.903275 -2.028759,4.482108 -2.696993,6.403229 -0.668245,1.92111 -1.260419,3.654845 -1.558046,4.695319 -0.297715,1.040477 -0.300628,1.387835 -0.295072,1.597319 0.0056,0.209484 0.01961,0.280964 0.06511,0.298688 0.0455,0.01773 0.122211,-0.01786 0.177252,-0.105936 0.05504,-0.08807 0.08819,-0.228574 0.144693,-0.449067 0.0565,-0.220493 0.136424,-0.521208 0.388606,-1.164789 0.252183,-0.643572 0.676945,-1.629986 1.09864,-2.363163 0.421704,-0.733165 0.840616,-1.213045 1.310516,-1.904791 0.4699,-0.69175 0.990629,-1.595575 1.515671,-2.429311 0.525034,-0.833726 1.05398,-1.59729 1.71669,-2.411222 0.6627,-0.813924 1.1954,-1.391973 1.96836,-2.146639 0.77295,-0.754657 1.52252,-1.399206 2.34662,-1.980758 0.82411,-0.581543 1.72251,-1.100013 3.00964,-1.698085 1.28713,-0.598077 2.9627,-1.275932 4.53099,-1.557012 1.56828,-0.28108 3.0294,-0.165108 4.52427,0.120922 1.49487,0.286034 2.53766,0.597054 3.76515,1.370976 1.22747,0.773925 2.15341,1.865323 2.73213,2.719731 0.57872,0.854409 0.81051,1.471944 0.93172,2.097546 0.12121,0.62561 0.13233,1.259427 -0.0331,1.945618 -0.16539,0.686195 -0.50747,1.424742 -0.87953,2.119249 -0.37207,0.694516 -0.7742,1.344682 -1.87379,1.964741 -1.09958,0.620051 -2.89651,1.210238 -4.31033,1.499647 -1.41382,0.289415 -2.44448,0.278125 -3.59926,-0.03049 -1.15478,-0.308612 -2.43386,-0.914746 -3.25252,-1.700154 -0.81865,-0.785407 -1.17696,-1.750073 -1.36167,-2.670638 -0.18472,-0.920565 -0.19551,-1.796999 0.1049,-2.560568 0.30041,-0.763561 0.91208,-1.414209 1.42472,-1.937864 0.51264,-0.523666 0.92626,-0.920533 1.36736,-1.132748 0.4411,-0.212222 0.90932,-0.239445 1.42472,-0.244948 0.5154,-0.0055 1.07778,0.01109 1.54357,0.17105 0.46579,0.15997 0.83495,0.462992 1.27589,0.909505 0.44096,0.446514 0.95357,1.03631 1.19321,1.471745 0.23965,0.435438 0.20671,0.716211 0.19017,1.137915 -0.0165,0.421701 -0.0164,0.984223 -0.0253,1.271241 -0.009,0.287014 -0.0269,0.299315 -0.30954,0.220657 -0.28263,-0.07866 -0.83047,-0.24865 -1.11208,-0.335381 -0.28161,-0.08673 -0.29695,-0.09052 -0.30489,-0.320392 -0.008,-0.229875 -0.008,-0.685773 -0.0661,-1.243853 -0.0581,-0.55807 -0.0678,-0.614482 -0.41083,-1.013373 -0.34306,-0.398899 -0.91337,-0.536631 -1.44591,-0.634587 -0.53254,-0.09796 -1.02779,-0.156351 -1.48983,0.07752 -0.46204,0.233862 -0.89037,0.760238 -1.28209,1.31568 -0.39173,0.555448 -0.74637,1.139843 -0.75603,1.829864 -0.01,0.690017 0.32518,1.485304 0.90795,2.270662 0.58279,0.785357 1.41292,1.560888 2.57039,1.835547 1.15747,0.274658 2.64285,0.04873 4.09122,-0.386022 1.44837,-0.434761 2.42193,-0.878753 3.31143,-1.71876 0.88951,-0.840002 1.25686,-1.876817 1.47174,-2.675805 0.21489,-0.798989 0.27757,-1.360205 -0.10232,-2.059821 -0.37988,-0.699625 -1.20254,-1.53738 -2.27634,-2.330609 -1.0738,-0.793231 -2.39908,-1.541592 -3.63079,-1.876888 -1.2317,-0.335298 -2.36934,-0.257175 -3.98632,-0.05271 -1.61698,0.204467 -2.16392,0.290589 -3.8039,0.929658 -1.63997,0.639077 -2.8241,1.586386 -3.98322,2.607593 -1.15912,1.021213 -2.29345,2.116418 -3.33416,3.391009 -1.04071,1.274582 -1.98751,2.728073 -2.967781,4.339785 -0.980281,1.611718 -1.993635,3.381693 -2.597774,4.771287 -0.604139,1.389587 -0.799486,2.398834 -1.064535,3.634402 -0.265047,1.235571 -0.600202,2.697261 -0.791165,3.835421 -0.190971,1.13815 -0.237406,1.95257 -0.291973,2.85099 -0.05457,0.89842 -0.116957,1.88057 -0.153996,2.40089 -0.03704,0.52032 -0.0488,0.57905 -0.161748,0.14521 -0.112945,-0.43385 -0.184155,-0.74155 -0.43408,-1.96887 -0.249936,-1.22733 -0.535718,-2.756 -0.682646,-4.00389 -0.146926,-1.24791 -0.154811,-2.21492 -0.141079,-3.281455 0.01373,-1.06653 0.03298,-1.703811 0.238228,-3.006016 0.205253,-1.302216 0.580332,-2.740565 0.944129,-4.069003 0.363805,-1.328444 0.716238,-2.546935 1.104844,-3.732073 0.388602,-1.185134 0.813028,-2.337099 1.178222,-3.121257 0.365193,-0.784154 0.671237,-1.200132 1.290878,-2.220019 0.619633,-1.019889 1.324562,-2.246 2.549196,-3.749643 1.22465,-1.503635 2.74036,-2.886961 4.07159,-3.906737 1.33123,-1.019773 2.47766,-1.675688 3.9026,-2.273763 1.42495,-0.598074 3.12825,-1.138293 4.74338,-1.372526 0.80757,-0.117116 1.59319,-0.157957 2.32906,-0.157613 z m 13.25139,24.622269 c 0.0187,-0.0049 0.0393,0.0072 0.078,0.03721 0.0516,0.04001 0.13537,0.112218 0.50953,0.522965 0.37416,0.410744 1.03842,1.15992 1.58595,1.970423 0.54753,0.810492 0.76791,1.256882 1.11621,1.952852 0.34829,0.69595 0.61463,1.21616 0.7984,1.84278 0.18377,0.62663 0.43902,2.46965 0.48886,3.06803 0.0498,0.59838 0.0479,1.06213 0.0109,1.5844 -0.037,0.52227 -0.10877,1.10345 -0.14676,1.54099 -0.038,0.43754 -0.0422,0.73174 -0.0207,0.91105 0.0215,0.17932 0.0687,0.24364 0.10852,0.26201 0.0399,0.0184 0.0729,-0.009 0.22686,-0.12041 0.15397,-0.11109 0.42888,-0.30587 0.76895,-0.56896 0.34006,-0.26309 0.74536,-0.59424 1.09812,-0.84956 0.35277,-0.25531 0.65255,-0.43449 0.88832,-0.6196 0.23577,-0.18511 0.4073,-0.37613 0.54674,-0.48628 0.13944,-0.11014 0.24668,-0.1393 0.29352,-0.15864 0.0468,-0.0194 0.0333,-0.0291 -0.031,-0.0496 -0.0643,-0.0205 -0.17924,-0.0521 -0.49144,-0.1664 -0.3122,-0.11429 -0.61145,-0.23009 -1.09347,-0.69401 -0.48202,-0.46393 -0.51177,-0.54351 -0.65526,-1.13895 -0.14349,-0.59543 -0.18655,-1.13741 0.0346,-1.68517 0.22117,-0.54777 0.70664,-1.10135 1.2914,-1.46193 0.58475,-0.36058 1.26875,-0.52785 1.80764,-0.3669 0.53888,0.16095 0.93256,0.65018 1.23558,1.07797 0.30303,0.42779 0.51521,0.79387 0.58136,1.23817 0.0662,0.44429 -0.0136,0.96672 -0.13642,1.42368 -0.12279,0.45697 -0.28843,0.84866 -0.49403,1.27641 -0.20561,0.42776 -0.45128,0.89168 -0.87023,1.3379 -0.41896,0.44623 -1.01141,0.87468 -1.63505,1.32292 -0.62363,0.44824 -1.27848,0.91592 -1.91771,1.37098 -0.63922,0.45505 -1.26278,0.89757 -1.89032,1.37407 -0.62754,0.4765 -1.2589,0.98692 -1.5844,1.25884 -0.3255,0.27191 -0.34509,0.30503 -0.36742,0.29249 -0.0223,-0.0125 -0.0473,-0.0707 -0.0708,-0.18862 -0.0234,-0.11792 -0.045,-0.2956 -0.0108,-0.40101 0.0342,-0.10541 0.12407,-0.13859 0.19998,-0.3421 0.0759,-0.20352 0.13813,-0.57728 0.25115,-0.96221 0.11302,-0.38494 0.27651,-0.7807 0.37982,-1.36529 0.10331,-0.5846 0.14656,-1.35827 0.19431,-1.98386 0.0477,-0.62559 0.10003,-1.10284 0.0982,-1.58905 -0.002,-0.48621 -0.0584,-0.98127 -0.20361,-1.6614 -0.14516,-0.68014 -0.37892,-1.54568 -0.50952,-2.10891 -0.13061,-0.56323 -0.15784,-0.82418 -0.3049,-1.18081 -0.14706,-0.35663 -0.41436,-0.80886 -0.64337,-1.2454 -0.22901,-0.43655 -0.4198,-0.85764 -0.72863,-1.264005 -0.30883,-0.406371 -0.73565,-0.798134 -1.07281,-1.108978 -0.33715,-0.310843 -0.58462,-0.540818 -0.70073,-0.666625 -0.11611,-0.125804 -0.10037,-0.146966 0.0682,-0.312642 0.16859,-0.165675 0.48983,-0.475523 0.65061,-0.630452 0.16078,-0.154951 0.16118,-0.155057 0.17673,-0.180351 0.0156,-0.02529 0.0468,-0.07575 0.0724,-0.09715 0.006,-0.0053 0.0124,-0.0093 0.0186,-0.01085 z m 8.5943,6.73034 c -0.0193,2.6e-4 -0.043,5.3e-4 -0.0744,0.002 -0.12557,0.004 -0.37667,0.0117 -0.63407,0.22324 -0.2574,0.21149 -0.52079,0.62664 -0.55087,0.9834 -0.0301,0.35676 0.17247,0.6549 0.39274,0.88677 0.22027,0.23187 0.45804,0.39764 0.69092,0.48524 0.23287,0.0876 0.46112,0.0973 0.63148,-0.0274 0.17036,-0.12467 0.28321,-0.38356 0.34365,-0.61443 0.0604,-0.23088 0.0681,-0.43369 0.0419,-0.72502 -0.0263,-0.29133 -0.0865,-0.67143 -0.22376,-0.88883 -0.13727,-0.21741 -0.35154,-0.27189 -0.45889,-0.29921 -0.0805,-0.0205 -0.10064,-0.0256 -0.15865,-0.0253 z" />
  </g>
</svg>
