<?xml version="1.0" encoding="UTF-8" standalone="no"?>
<!-- Created with Inkscape (http://www.inkscape.org/) -->

<svg
   width="74.002998mm"
   height="60.687mm"
   viewBox="0 0 74.002998 60.687"
   version="1.1"
   id="svg2393"
   xmlns="http://www.w3.org/2000/svg"
   xmlns:svg="http://www.w3.org/2000/svg">
  <defs
     id="defs2390" />
  <g
     id="layer1">
    <path
       id="path582"
       style="display:inline;fill:#000000;stroke-width:0.351896"
       d="m 41.445466,0.00218989 c -0.50719,0.01021 -1.057902,0.05618 -1.647444,0.130225 -1.179087,0.148098 -2.512039,0.409009 -3.21169,0.54932 -0.699651,0.140311 -0.766249,0.159874 -0.696082,0.34519901 0.07016,0.185325 0.277009,0.535975 0.524516,0.954979 0.247504,0.419008 0.535789,0.906518 0.746207,1.436606 0.21042,0.53009 0.343106,1.102574 0.358635,1.540991 0.01553,0.438418 -0.08618,0.742583 -0.390158,1.081588 -0.303974,0.339005 -0.810503,0.7131 -1.20406,0.900205 -0.39356,0.187105 -0.674032,0.18728 -0.829924,0.175699 -0.155893,-0.01159 -0.187317,-0.03504 -0.185518,-0.672311 0.0019,-0.637265 0.03688,-1.888429 -0.22996,-2.701126 -0.26684,-0.812697 -0.835763,-1.186532 -1.537375,-1.367875 -0.701611,-0.181345 -1.535882,-0.170029 -2.278414,-0.119375 -0.742532,0.05066 -1.39346,0.140417 -2.046385,0.350885 -0.652928,0.210466 -1.307254,0.54164 -1.628841,0.75034 -0.321591,0.208701 -0.310201,0.294722 -0.304374,0.337447 0.0058,0.04273 0.0058,0.04252 0.25528,0.814422 0.249502,0.771898 0.748644,2.315461 0.923975,3.862814 0.175332,1.547352 0.02715,3.0985671 -0.113172,4.2834581 -0.140322,1.184892 -0.273019,2.003375 -0.795301,2.86856 -0.522279,0.865185 -1.434399,1.777426 -1.940965,2.233453 -0.506568,0.456031 -0.607811,0.455737 -1.190625,-0.208253 -0.582813,-0.663993 -0.71687,-0.830956 -1.81901,-1.702739 -1.10214,-0.871784 -2.241875,-1.286934 -2.877862,-1.521355 -0.635985,-0.23442 -0.767914,-0.288279 -0.683678,-0.131775 0.08423,0.156503 0.384627,0.523322 0.65319,0.990637 0.26856,0.467317 0.505155,1.034912 0.576709,1.848982 0.07155,0.814073 -0.02172,1.87433 -0.201022,2.794146 -0.179311,0.919818 -0.444558,1.699355 -0.974617,2.451531 -0.530058,0.752173 -1.325089,1.47696 -2.365748,2.227252 -1.040659,0.750295 -2.326727,1.526331 -3.351733,1.923915 -1.025007,0.397584 -1.788933,0.417089 -2.254126,0.351917 -0.465193,-0.06517 -0.33986,0.04769 -0.380854,-0.74259 -0.041,-0.790284 0.04346,-2.220667 0.239778,-3.263369 0.196318,-1.042701 0.504492,-1.697643 0.652674,-2.046385 0.14818,-0.348745 0.136451,-0.391438 -0.01757,-0.210325 -0.154022,0.181115 -0.450096,0.586565 -0.884701,1.286227 -0.4346042,0.699661 -1.0075942,1.693418 -1.3037972,2.597774 -0.296201,0.904357 -0.315585,1.718781 -0.338998,2.161109 -0.02341,0.442328 -0.05082,0.512524 -0.45992,0.543637 -0.409104,0.03111 -1.200443,0.02326 -1.617472,0.0078 -0.417028,-0.0155 -0.459869,-0.03878 -0.606163,-0.685747 -0.146293,-0.646962 -0.395713,-1.917444 -0.317812,-3.32848 0.0779,-1.411036 0.483317,-2.962346 0.701768,-3.734138 0.21845,-0.771792 0.249391,-0.764255 0.14986,-0.670761 -0.09953,0.09349 -0.329211,0.272827 -0.773594,0.997873 -0.444387,0.725043 -1.103009,1.996072 -1.498619,2.982246 -0.395608,0.986173 -0.528442,1.687396 -0.549836,2.338358 -0.02141,0.650965 0.06825,1.251487 0.09353,1.606103 0.02529,0.354618 -0.01349,0.463545 -0.309541,0.471292 -0.296053,0.0078 -0.849667,-0.08596 -1.473295,-0.317813 -0.623629,-0.231854 -1.31744301,-0.601977 -1.67018301,-0.789098 -0.352737,-0.187119 -0.364447,-0.190971 -0.36070100067,0.02739 0.003800001,0.218357 0.0235200007,0.65892 0.11317300067,2.023131 0.08965,1.364212 0.249203,3.652102 0.387572,5.554183 0.138369,1.902082 0.255485,3.418279 0.312127,4.174421 0.05664,0.756145 0.05268,0.752258 0.98030201,0.440286 0.927616,-0.311976 2.786967,-0.9319 4.459158,-1.095542 1.67219,-0.163642 3.157111,0.128836 5.2053672,0.557588 2.048256,0.428755 4.659606,0.993743 6.873484,1.274342 2.213874,0.280598 4.030141,0.276521 5.443077,0.354499 1.412935,0.07798 2.422133,0.237866 3.258198,0.497128 0.836067,0.25926 1.49905,0.61821 1.999879,0.971 0.500827,0.35279 0.839846,0.699437 0.98392,1.137915 0.14407,0.438478 0.09313,0.968801 0.06976,1.333251 -0.02336,0.36445 -0.01937,0.563115 -0.220141,1.309481 -0.200763,0.746366 -0.605949,2.040311 -0.874882,3.090767 -0.268933,1.050457 -0.40169,1.857336 -0.446484,2.523879 -0.04479,0.666541 -0.0021,1.192422 0.08371,1.742012 0.08577,0.549589 0.214461,1.122587 0.247531,1.516186 0.03307,0.3936 -0.02921,0.608132 -0.194821,0.826307 -0.165613,0.218173 -0.434697,0.440262 -0.947229,0.789099 -0.51253,0.348835 -1.268265,0.824254 -1.671733,1.167371 -0.403466,0.343114 -0.454173,0.553508 -0.452168,0.785482 0.0021,0.23197 0.05656,0.48565 0.292489,0.764293 0.235929,0.278641 0.653079,0.582624 1.426787,0.874882 0.773705,0.292259 1.903854,0.572802 2.858741,0.635103 0.954884,0.0623 1.734452,-0.09349 2.326989,-0.272335 0.592537,-0.178848 0.362985,-0.06473 0.640271,-0.347266 0.277286,-0.282535 0.426362,-0.646102 0.623734,-0.931209 0.197371,-0.285107 0.442537,-0.491791 0.598413,-0.79375 0.155877,-0.301955 0.222406,-0.699513 0.438732,-2.059821 0.216326,-1.36031 0.58256,-3.683119 0.874882,-5.329909 0.292325,-1.646788 0.510664,-2.617491 0.97255,-3.574457 0.461889,-0.956967 1.167188,-1.900103 2.23139,-2.49649 1.064202,-0.596386 2.486951,-0.845542 3.897953,-0.966348 1.411001,-0.120809 2.810113,-0.113051 4.419885,0 1.609773,0.113051 3.430104,0.331174 4.858618,0.526066 1.428512,0.194892 2.465446,0.366519 3.410643,0.719336 0.9452,0.352816 1.79846,0.886814 2.583823,1.535824 0.785363,0.64901 1.502902,1.412777 2.040702,2.426208 0.5378,1.013431 0.896395,2.276499 1.054201,3.309358 0.157803,1.032859 0.114763,1.835499 -0.0041,2.583823 -0.118899,0.748324 -0.31377,1.441926 -0.758092,2.184363 -0.444326,0.742437 -1.138296,1.533964 -1.485183,1.956985 -0.346885,0.423021 -0.3468,0.477441 -0.260964,0.664559 0.08583,0.187116 0.257424,0.506611 0.60048,0.892453 0.343056,0.385839 0.857445,0.837951 1.40508,1.104842 0.547637,0.266888 1.128697,0.348705 2.151808,0.260964 1.023112,-0.08774 2.488507,-0.344551 3.308843,-0.86868 0.820332,-0.524129 0.995428,-1.31554 1.059883,-1.738395 0.06445,-0.422854 0.01807,-0.477276 -0.143661,-0.543636 -0.161721,-0.06636 -0.438861,-0.144643 -0.7059,-0.355018 -0.267041,-0.210373 -0.524012,-0.553323 -0.568957,-1.531689 -0.04495,-0.978363 0.122698,-2.592094 0.288353,-4.424019 0.165657,-1.831924 0.329098,-3.882014 0.50643,-5.06894 0.177334,-1.186929 0.368482,-1.510498 0.514699,-1.707391 0.146214,-0.196892 0.247332,-0.266858 0.381888,-0.190685 0.134554,0.07617 0.302257,0.298167 0.471805,0.528132 0.169547,0.229968 0.341143,0.467958 0.537951,0.805119 0.196807,0.337162 0.419143,0.773788 0.676444,1.134298 0.257302,0.360511 0.549315,0.645076 0.802538,0.687814 0.253222,0.04274 0.46781,-0.156086 0.699698,-0.810803 0.231886,-0.654719 0.481166,-1.765808 0.720887,-3.367754 0.239718,-1.601946 0.469744,-3.694898 0.555522,-5.023982 0.08578,-1.329084 0.02718,-1.894205 -0.161748,-2.350244 -0.188929,-0.456038 -0.508595,-0.802666 -0.649057,-1.095023 -0.14046,-0.292359 -0.101275,-0.530039 0.325561,-0.972552 0.426839,-0.442513 1.241468,-1.089608 1.80661,-1.596285 0.565139,-0.506677 0.880763,-0.872979 0.725019,-1.198377 -0.155744,-0.325395 -0.783447,-0.610335 -1.644862,-0.799433 -0.861412,-0.189098 -1.956361,-0.282419 -2.618959,-0.412896 -0.662602,-0.130476 -0.892522,-0.298214 -0.964801,-0.563271 -0.07228,-0.26506 0.01363,-0.627618 0.545703,-1.272791 0.532069,-0.645174 1.510388,-1.57284 2.003497,-2.038636 0.493106,-0.465796 0.500422,-0.469456 -0.261483,-0.668176 -0.761907,-0.198721 -2.29335,-0.592532 -3.069063,-0.808736 -0.775716,-0.216204 -0.795107,-0.254871 -0.376206,-1.17874 0.418902,-0.92387 1.276265,-2.732384 1.708941,-3.640603 0.432673,-0.908222 0.440397,-0.916049 -0.270785,-1.066086 -0.711184,-0.150037 -2.141834,-0.442299 -2.872692,-0.609782 -0.730859,-0.167482 -0.762074,-0.210421 -0.76998,-1.081588 -0.0079,-0.871167 0.008,-2.570538 0.01188,-3.44165 0.0039,-0.871111 -0.0038,-0.913831 -0.432531,-0.826307 -0.428691,0.08752 -1.278376,0.305787 -1.880507,0.364321 -0.602128,0.05853 -0.957052,-0.0428 -1.366325,-0.278537 -0.409257,-0.23579 -0.873048,-0.606518 -1.151853,-1.062515 -0.278804,-0.455998 -0.372239,-0.997759 -0.333314,-1.508437 0.03893,-0.5106751 0.210675,-0.9898431 0.456303,-1.3192971 0.245629,-0.329456 0.564872,-0.508542 0.72657,-0.617535 0.1617,-0.108992 0.165753,-0.147986 0.0217,-0.245462 -0.144047,-0.09748 -0.436409,-0.253642 -1.097092,-0.779798 -0.660683,-0.526156 -1.68973,-1.422681 -2.258777,-1.88464 -0.569048,-0.461958 -0.678313,-0.489001 -0.711584,-0.276469 -0.03327,0.212532 0.01003,0.664761 0.0217,1.136364 0.01167,0.471607 -0.0082,0.962674 -0.06666,1.369944 -0.05849,0.407268 -0.155628,0.730594 -0.309544,0.974101 -0.153913,0.243506 -0.364384,0.40723 -0.738455,0.492993 -0.37407,0.08576 -0.912283,0.09334 -1.452107,-0.146244 -0.539827,-0.239585 -1.081204,-0.726691 -1.213879,-1.708941 -0.132678,-0.982249 0.144087,-2.459236 0.288353,-3.201871 0.144267,-0.742635 0.155745,-0.75067 -0.793234,-0.976685 -0.948976,-0.226015 -2.858603,-0.670248 -3.819403,-0.89245 -0.9608,-0.222205 -0.97254,-0.222163 -0.974619,0.386021 -0.0021,0.608185 0.0053,1.823956 -5.29e-4,2.439644 -0.0058,0.615688 -0.02498,0.631735 -0.605648,0.678513 -0.580659,0.04678 -1.722508,0.124738 -2.287717,0.161748 -0.565205,0.03701 -0.553974,0.03263 -0.351398,-0.501264 0.202576,-0.533892 0.596294,-1.597877 0.606163,-2.40657 0.0099,-0.808694 -0.36386,-1.361885 -0.866614,-1.79265601 -0.50275,-0.43077 -1.134372,-0.738899 -1.962671,-0.875397 -0.414147,-0.06825 -0.877736,-0.09342 -1.384927,-0.0832 z M 45.769749,10.204153 c 2.438019,0.0089 5.317191,0.2263 7.987626,1.130162 3.051926,1.032986 5.830908,2.962457 7.879106,4.997111 2.048198,2.034654 3.365704,4.174318 4.13153,6.072497 0.765831,1.898179 0.98026,3.554624 1.286227,6.226495 0.305966,2.671866 0.703408,6.358848 0.917773,8.660453 0.214366,2.301602 0.245414,3.217757 0.247531,3.673676 0.0021,0.455922 -0.02482,0.45176 -0.315227,0.0894 -0.290412,-0.362357 -0.84401,-1.083236 -1.12086,-1.451591 -0.276857,-0.368351 -0.277069,-0.384141 -0.261485,-0.532265 0.01558,-0.148125 0.04695,-0.428713 -0.01344,-1.455727 -0.06039,-1.02701 -0.212275,-2.800305 -0.346747,-4.410067 -0.134472,-1.609757 -0.251359,-3.055774 -0.39946,-4.336169 -0.1481,-1.28039 -0.327742,-2.394969 -0.584978,-3.651972 -0.257235,-1.257007 -0.592264,-2.656187 -1.400947,-4.07107 -0.808684,-1.414886 -2.09116,-2.84539 -3.203939,-3.971851 -1.112784,-1.126458 -2.055884,-1.949027 -3.285588,-2.66237 -1.229709,-0.713343 -2.745848,-1.31731 -4.207496,-1.779219 -1.461646,-0.46191 -2.868753,-0.781685 -4.252453,-0.992188 -1.383702,-0.210502 -2.743782,-0.311798 -4.180107,-0.298172 -1.436327,0.01363 -2.948979,0.142251 -3.985802,0.280601 -1.036825,0.138356 -1.598001,0.286613 -1.874821,0.405662 -0.276821,0.119047 -0.26892,0.208447 -0.235646,0.260966 0.03328,0.05252 0.0919,0.06842 1.239718,-0.0739 1.147821,-0.142324 3.38509,-0.442338 5.571752,-0.159681 2.186667,0.28266 4.322445,1.147879 5.953643,1.874822 1.631194,0.726942 2.757358,1.315093 3.905187,2.371431 1.147831,1.056341 2.317136,2.5806 3.474725,4.478798 1.157584,1.898192 2.303661,4.170394 2.991549,6.353098 0.687882,2.182709 0.91798,4.275704 1.066083,6.294707 0.148103,2.019006 0.214299,3.964138 0.239778,4.934582 0.02548,0.970445 0.0098,0.966508 -0.629417,0.680062 -0.639212,-0.286442 -1.902246,-0.855624 -2.543514,-1.136363 -0.641273,-0.280736 -0.660376,-0.272933 -0.789101,-0.04289 -0.128722,0.230042 -0.366363,0.682307 -0.492993,0.914156 -0.126629,0.231849 -0.142531,0.243346 -0.871265,0.106971 -0.728728,-0.136374 -2.170641,-0.420872 -4.168219,-0.722952 -1.997578,-0.302086 -4.550675,-0.621755 -5.831168,-0.791168 -1.280485,-0.169413 -1.288079,-0.188741 -1.286227,-0.412896 0.0019,-0.224149 0.01328,-0.653145 0.01913,-0.867645 0.0011,-0.04032 -5.29e-4,-0.04861 0,-0.07597 -0.930971,0.151377 -1.85474,0.187781 -2.946072,0.02739 -1.206309,-0.177292 -2.617477,-0.586449 -3.888136,-1.112592 -1.270653,-0.526145 -2.400697,-1.169638 -3.149161,-1.97249 -0.748461,-0.802857 -1.114898,-1.765517 -1.290359,-2.792595 -0.175464,-1.027078 -0.159785,-2.118161 0.29042,-2.971911 0.450212,-0.853752 1.33482,-1.46989 2.077394,-1.865519 0.742572,-0.395626 1.342573,-0.570709 1.974038,-0.675928 0.631468,-0.10522 1.294315,-0.140613 1.96474,-0.132808 0.67042,0.0078 1.34865,0.05849 2.097029,0.28267 0.748374,0.224179 1.56696,0.621808 2.233453,1.025261 0.666496,0.403447 1.180685,0.813086 1.58595,1.524452 0.405262,0.711372 0.701376,1.724793 0.668176,2.708881 -0.0332,0.984083 -0.395481,1.938618 -0.882631,2.622579 -0.487159,0.683956 -1.099111,1.097077 -1.744081,1.301729 -0.644967,0.204653 -1.323059,0.200909 -1.989542,0.07234 -0.666483,-0.128561 -1.321215,-0.381759 -1.771467,-0.718817 -0.450257,-0.337058 -0.695925,-0.758106 -0.923975,-1.260907 -0.22805,-0.502803 -0.438436,-1.087696 -0.383955,-1.752345 0.05448,-0.664658 0.373779,-1.409013 0.640786,-1.917714 0.26701,-0.508701 0.481346,-0.781148 0.606166,-0.923459 0.124819,-0.142311 0.160297,-0.154345 0.341579,0.03876 0.181282,0.193106 0.508767,0.590931 0.664559,0.797367 0.155789,0.206435 0.13984,0.22208 -0.05116,0.492992 -0.191003,0.270913 -0.557205,0.796769 -0.677995,1.453658 -0.12079,0.656887 0.0037,1.444186 0.467672,1.907895 0.463953,0.463709 1.266783,0.604147 1.907895,0.604096 0.641112,-5e-5 1.120865,-0.140337 1.45986,-0.374136 0.338989,-0.233799 0.537868,-0.561483 0.664556,-1.00769 0.12668,-0.446206 0.180806,-1.011179 0.137978,-1.613339 -0.04283,-0.602162 -0.183116,-1.241435 -0.584462,-1.798857 -0.401344,-0.557421 -1.063683,-1.032682 -1.765266,-1.377693 -0.701582,-0.345012 -1.441982,-0.559314 -2.17868,-0.656807 -0.736695,-0.09749 -1.469424,-0.07812 -2.215885,0.05633 -0.746456,0.134448 -1.506744,0.384064 -2.08566,0.812871 -0.578914,0.4288 -0.97622,1.036535 -1.198375,1.632974 -0.22216,0.59644 -0.269391,1.181278 0.173114,2.101165 0.442508,0.919882 1.374461,2.174912 2.582789,2.95434 1.208333,0.779431 2.693157,1.083273 4.018359,1.246952 1.325208,0.163677 2.490576,0.187145 3.576011,-0.05064 1.085432,-0.237789 2.091147,-0.736923 2.98173,-1.333254 0.890579,-0.596323 1.665962,-1.28987 2.073256,-1.995225 0.407302,-0.705356 0.446307,-1.422676 0.477491,-2.130103 0.03118,-0.707432 0.05487,-1.404961 -0.163298,-2.118217 -0.218165,-0.713256 -0.678053,-1.441897 -1.223698,-2.125969 -0.545643,-0.68407 -1.177182,-1.323459 -1.730642,-1.818495 -0.553461,-0.49503 -1.029198,-0.845719 -1.869136,-1.243332 -0.839946,-0.397619 -2.044047,-0.842209 -3.189986,-1.130681 -1.145942,-0.288475 -2.23347,-0.421079 -3.188438,-0.454237 -0.954964,-0.03316 -1.77732,0.03338 -2.55695,0.302308 -0.779631,0.26893 -1.51647,0.74059 -2.212268,1.475361 -0.695793,0.734769 -1.350732,1.732434 -1.869136,2.580206 -0.518403,0.847765 -0.900231,1.545342 -1.104842,2.317171 -0.20461,0.771827 -0.231761,1.617649 -0.06408,2.40502 0.167685,0.787371 0.529963,1.516065 0.824241,2.110465 0.294272,0.594402 0.520758,1.054515 0.542083,1.518256 0.02133,0.463732 -0.162084,0.931701 -0.481624,1.296043 -0.319542,0.364344 -0.775345,0.625189 -1.168921,0.751893 -0.393578,0.126703 -0.724932,0.118721 -1.089337,0.04082 -0.364411,-0.0779 -0.762259,-0.225957 -1.74253,-0.450104 -0.980278,-0.224144 -2.54314,-0.524015 -3.959966,-0.771528 -1.41682,-0.247509 -2.687669,-0.442415 -4.426087,-0.548288 -1.738413,-0.105862 -3.941527,-0.122941 -5.042069,-0.09353 -1.10054,0.02941 -1.092851,0.104942 -1.386994,-0.104904 -0.294142,-0.209847 -0.890759,-0.705292 -1.189074,-0.952913 -0.29839,-0.247634 -0.29839,-0.247528 -0.300242,-0.270785 -0.0019,-0.02326 -0.0055,-0.06977 0.101804,-0.0894 0.107312,-0.01961 0.325686,-0.01172 0.719336,-0.03514 0.393647,-0.02341 0.962718,-0.07823 2.709394,-0.06408 1.746676,0.01416 4.670618,0.09724 6.954615,0.383955 2.284,0.286721 3.296957,0.588849 4.820378,0.988055 1.523415,0.399203 2.926593,0.706948 3.557921,0.590145 0.631325,-0.116805 0.490879,-0.658344 0.149862,-1.509985 -0.341013,-0.851646 -0.882681,-2.013291 -0.970483,-3.172933 -0.0878,-1.159648 0.278209,-2.316951 0.886251,-3.702616 0.608041,-1.385671 1.457796,-2.999619 2.541447,-4.096909 1.083646,-1.097283 2.401385,-1.677916 3.586345,-2.026748 1.184957,-0.348835 2.237335,-0.465696 3.673676,-0.253214 1.436349,0.212484 3.256529,0.754215 4.950087,1.45779 1.693555,0.703578 3.260122,1.569022 4.287075,2.679941 1.026954,1.110914 1.514348,2.467118 1.824178,3.737755 0.30983,1.270646 0.442103,2.455262 0.147796,3.622519 -0.294314,1.167252 -1.015129,2.317409 -1.724443,3.087151 -0.709316,0.769736 -1.407387,1.159383 -2.288233,1.52187 -0.06829,0.0281 -0.14406,0.05444 -0.214458,0.08217 -0.08259,0.04819 -0.181425,0.0964 -0.309541,0.14211 -0.157716,0.05627 -0.348306,0.108996 -0.522965,0.158129 -0.144798,0.04794 -0.28756,0.09647 -0.43615,0.141075 -0.0045,0.0021 -0.01707,0.0046 -0.02119,0.0067 -0.167542,0.08194 -0.0231,0.140271 0.294556,0.220141 0.317656,0.07987 0.808569,0.18124 2.398821,0.45992 1.590251,0.278678 4.27945,0.734777 5.628079,0.964798 1.348634,0.230021 1.356503,0.233923 1.481047,0.01757 0.124545,-0.216355 0.366408,-0.652901 0.495062,-0.879017 0.128648,-0.226116 0.144357,-0.241808 0.337447,-0.189135 0.193085,0.05267 0.563279,0.173808 1.066083,0.390157 0.502806,0.216348 1.137952,0.52791 1.459344,0.652675 0.321383,0.124782 0.329532,0.06244 0.310058,-0.611828 -0.01947,-0.674278 -0.06644,-1.960576 -0.224274,-3.365688 -0.157834,-1.40511 -0.426773,-2.929157 -0.902271,-4.831228 -0.475499,-1.902077 -1.157497,-4.182041 -2.305286,-6.148462 -1.147789,-1.966425 -2.761578,-3.618881 -4.141348,-4.854485 -1.379775,-1.235607 -2.525421,-2.054436 -4.246253,-2.674255 -1.720834,-0.619818 -4.016539,-1.040455 -5.733499,-1.274341 -1.716966,-0.233887 -2.855399,-0.280877 -4.496369,-0.08992 -1.640964,0.190957 -3.784261,0.619659 -4.934064,0.834056 -1.149805,0.214397 -1.30597,0.214347 -1.494999,0.120923 -0.189028,-0.09343 -0.411077,-0.280316 -0.604099,-0.590145 -0.193019,-0.309828 -0.356743,-0.742704 -0.428913,-0.968934 -0.07217,-0.226224 -0.05283,-0.245655 0.985985,-0.57309 1.038821,-0.327438 3.096932,-0.962628 5.090647,-1.395264 1.99371,-0.432636 3.922914,-0.662763 6.549988,-0.709517 0.328382,-0.0059 0.667668,-0.0085 1.015957,-0.0072 z M 25.71206,22.927407 c 0.281059,-2.65e-4 0.551892,0.02837 0.800984,0.09043 0.66425,0.165491 1.171752,0.567875 1.540992,1.047482 0.369239,0.479605 0.600572,1.036011 0.592211,1.724959 -0.0084,0.688951 -0.256532,1.510247 -0.6258,2.119252 -0.369276,0.608997 -0.859835,1.005954 -1.325502,1.207161 -0.465666,0.2012 -0.906581,0.206706 -1.482598,0.19017 -0.576008,-0.01654 -1.286732,-0.05507 -1.939933,-0.358119 -0.653192,-0.303049 -1.248759,-0.870598 -1.590601,-1.286743 -0.341833,-0.416145 -0.429995,-0.680569 -0.487825,-0.810287 -0.05783,-0.129717 -0.08538,-0.124539 -0.814419,0.309542 -0.729046,0.434078 -2.159257,1.29672 -3.528984,1.860351 -1.369734,0.563634 -2.678864,0.828202 -3.493328,1.016993 -0.814453,0.188788 -1.134544,0.30191 -1.321882,0.352948 -0.187341,0.05105 -0.242467,0.03984 -0.392742,-0.194302 -0.150268,-0.234137 -0.395137,-0.691245 -0.447516,-0.947745 -0.05238,-0.2565 0.08782,-0.311621 0.761709,-0.435634 0.673901,-0.124015 1.881417,-0.316939 3.326929,-0.835091 1.445516,-0.518147 3.12902,-1.361673 4.319635,-2.056204 1.190603,-0.694534 1.888058,-1.240219 2.572967,-1.703255 0.684919,-0.463037 1.357286,-0.843201 2.104265,-1.069187 0.466863,-0.141242 0.963002,-0.222194 1.431438,-0.222723 z m -0.310059,1.56166 c -0.274053,0.0058 -0.456192,0.06774 -0.551387,0.08372 -0.09519,0.01598 -0.103216,-0.01458 -0.522449,0.192236 -0.419229,0.206825 -1.249629,0.651303 -1.67845,0.902787 -0.428818,0.251484 -0.45616,0.31014 -0.212392,0.602546 0.243769,0.292407 0.758338,0.81846 1.214398,1.147734 0.456062,0.329274 0.85367,0.461986 1.329116,0.45217 0.475451,-0.0098 1.02916,-0.162086 1.389581,-0.438735 0.360421,-0.276643 0.527902,-0.677904 0.609782,-1.050062 0.08187,-0.372166 0.07806,-0.715055 -0.03152,-1.009759 -0.109587,-0.2947 -0.325289,-0.541448 -0.615981,-0.689879 -0.290693,-0.148432 -0.656641,-0.198549 -0.930693,-0.192755 z M 3.1568478,28.852626 c 0.02753,0.0013 0.0589,0.0057 0.09508,0.01085 0.289502,0.04122 0.873866,0.145759 1.857769,0.178803 0.983903,0.03303 2.367584,-0.0055 3.059245,-0.01913 0.69166,-0.01365 0.691369,-0.0026 0.790649,0.261999 0.09928,0.264615 0.298003,0.783087 0.366903,1.055751 0.0689,0.272645 0.0083,0.300082 -0.766363,0.29352 -0.774652,-0.0066 -2.263352,-0.04728 -3.040639,-0.08578 -0.777291,-0.0385 -0.843137,-0.07486 -0.8816,0.32866 -0.03846,0.403519 -0.04944,1.246682 -0.03824,1.673799 0.01119,0.427122 0.04411,0.438116 0.280604,0.394809 0.236493,-0.04331 0.676682,-0.140621 1.604036,-0.289388 0.927354,-0.148768 2.341764,-0.349163 3.083534,-0.479558 0.7417702,-0.130394 0.8107682,-0.190947 1.0686682,0.04341 0.257903,0.23436 0.704511,0.7634 0.916739,1.027845 0.212235,0.264446 0.190016,0.264599 -0.567923,0.372071 -0.757936,0.107471 -2.2515172,0.322638 -3.6984832,0.576191 -1.446962,0.253555 -2.846816,0.54552 -3.549653,0.686263 -0.702839,0.140739 -0.708739,0.129907 -0.719852,-0.898136 -0.01111,-1.028039 -0.02726,-3.073205 -0.03824,-4.106725 -0.0096,-0.904335 -0.01497,-1.034521 0.177769,-1.025261 z" />
  </g>
</svg>
