<?xml version="1.0" encoding="UTF-8" standalone="no"?>
<!-- Created with Inkscape (http://www.inkscape.org/) -->

<svg
   width="79.646004mm"
   height="79.473mm"
   viewBox="0 0 79.646004 79.473"
   version="1.1"
   id="svg2846"
   xmlns="http://www.w3.org/2000/svg"
   xmlns:svg="http://www.w3.org/2000/svg">
  <defs
     id="defs2843" />
  <g
     id="layer1">
    <path
       id="path1082"
       style="display:inline;fill:#000000;stroke-width:0.351896"
       d="m 6.5268737,0.00854397 c -0.3470354,0.05057 -0.7017491,0.3232 -1.2045764,0.829924 C 4.8194646,1.345191 4.1686346,2.085738 3.8665704,3.107063 3.5645088,4.128388 3.6112871,5.430531 3.8081764,6.53166 c 0.1968897,1.101129 0.5439331,2.001109 0.686263,2.45308 0.14233,0.451972 0.079788,0.455798 0.015505,0.432532 C 4.4456584,9.394002 4.3792905,9.343432 4.2272742,9.216768 4.0752605,9.090101 3.8374926,8.887808 3.4009698,8.651944 2.9644444,8.41608 2.3291084,8.147029 1.8475747,8.18789 1.3660462,8.22875 1.0388492,8.579413 0.76598708,9.080342 c -0.2728621,0.500929 -0.4908679,1.15159 -0.1984375,2.264461 0.2924307,1.112871 1.09515802,2.688001 1.80454302,4.098975 0.7093796,1.410973 1.3251259,2.657714 1.617472,3.28507 0.292346,0.627356 0.2610908,0.635418 0.2201412,0.649056 -0.040949,0.01364 -0.091577,0.03289 -0.1695,-0.03514 C 3.9622838,19.274734 3.8570295,19.11891 3.3854653,18.851838 2.9139063,18.584766 2.0759207,18.207015 1.4775734,18.045169 0.87922078,17.883323 0.52089298,17.937853 0.29469818,18.343342 c -0.226192,0.40549 -0.320088,1.161262 -0.28887,2.032434 0.03122,0.871173 0.187085,1.857484 0.5301989,2.576588 0.343117,0.719103 0.87329702,1.171302 1.68206742,1.849501 0.8087757,0.6782 1.8960756,1.58261 2.4592835,2.0562 0.5632027,0.4736 0.6025013,0.51648 0.5906612,0.58653 -0.011827,0.07 -0.074443,0.16728 -0.3276283,0.19844 -0.2531851,0.0312 -0.6973887,-0.004 -1.1709876,0.0134 -0.4736042,0.0175 -0.9765691,0.088 -1.2495371,0.15037 -0.272968,0.0624 -0.3156268,0.11703 -0.185002,0.76223 0.1306248,0.64521 0.4346364,1.88068 1.2552204,2.80241 0.8205867,0.92174 2.1574998,1.52948 3.3930748,1.99523 1.2355751,0.46575 2.3696321,0.7896 2.9522737,0.97875 0.5826469,0.18916 0.6138039,0.24354 0.6020299,0.29404 -0.01177,0.0505 -0.06596,0.0975 -0.529682,0.17932 -0.4637222,0.0819 -1.3369398,0.19862 -1.8339966,0.30386 -0.4970568,0.10524 -0.6177862,0.19873 -0.4847246,0.73484 0.1330616,0.5361 0.5199989,1.51416 1.2443672,2.33319 0.7243735,0.81902 1.404297,1.24191 2.146123,1.7141 0.741825,0.4722 1.163447,0.75678 2.342493,1.12087 1.179042,0.36408 2.612726,0.69236 3.58066,0.92604 0.967933,0.23368 0.967681,0.25703 0.963765,0.29404 -0.0039,0.037 -0.01185,0.088 -0.495059,0.2067 -0.483195,0.11876 -1.441862,0.30546 -2.065509,0.43409 -0.623642,0.12861 -0.912077,0.19884 -1.040763,0.3023 -0.128685,0.10347 -0.09766,0.24022 0.662493,0.971 0.760148,0.73078 2.249355,2.05598 3.644739,2.75746 1.395381,0.70148 2.696853,0.77933 3.571875,0.79685 0.875016,0.0175 1.323549,-0.0252 1.615921,-0.0134 0.292373,0.0118 0.428792,0.0779 0.483174,0.14417 0.05438,0.0662 0.02684,0.13228 -0.04134,0.21601 -0.06818,0.0837 -0.177011,0.18535 -0.496609,0.44649 -0.319601,0.26113 -0.849874,0.6821 -1.075905,0.99993 -0.226031,0.31784 -0.147989,0.5318 0.625803,0.9741 0.773787,0.44231 2.243286,1.11296 3.393075,1.40715 1.149784,0.2942 1.97997,0.21224 2.810163,0.0816 0.830194,-0.13058 1.660467,-0.30954 2.089277,-0.39326 0.428813,-0.0837 0.45578,-0.0724 0.443902,-0.0217 -0.01188,0.0506 -0.06243,0.14016 -0.171566,0.34675 -0.109138,0.20658 -0.276889,0.53014 -0.386022,0.78548 -0.109135,0.25534 -0.159401,0.44255 0.240295,0.70952 0.399695,0.26696 1.24936,0.61388 1.952852,0.74827 0.70349,0.13439 1.260452,0.0566 1.780771,-0.0584 0.520313,-0.115 1.003948,-0.26694 1.309997,-0.32143 0.306048,-0.0545 0.434594,-0.0118 0.490926,0.0331 0.05633,0.0448 0.04081,0.0913 -0.171566,0.26665 -0.212376,0.1753 -0.621544,0.47943 -1.284161,1.00563 -0.662612,0.52619 -1.578597,1.27437 -2.233454,1.99161 -0.654859,0.71723 -1.048514,1.4036 -1.346689,2.20658 -0.29817,0.80298 -0.501105,1.72244 -0.307991,2.31097 0.193114,0.58853 0.781555,0.84623 1.038696,0.99425 0.257143,0.14802 0.18302,0.18696 -0.14056,0.68058 -0.32358,0.49362 -0.896538,1.44154 -1.334802,2.35851 -0.438261,0.91698 -0.579376,1.32895 -0.684196,1.78543 -0.10482,0.45647 -0.01132,0.48374 0.261482,0.48369 0.272807,-6e-5 0.724871,-0.027 0.960665,-0.0269 0.2358,1.5e-4 0.255577,0.0273 0.249598,0.076 -0.006,0.0486 -0.03716,0.11882 -0.07028,0.17725 -0.03312,0.0584 -0.06816,0.10513 -0.237712,0.339 -0.169551,0.23386 -0.473721,0.65469 -0.820621,1.1653 -0.346901,0.51061 -0.736743,1.11093 -0.705385,1.49293 0.03136,0.38201 0.483386,0.54601 0.808736,0.57516 0.32535,0.0292 0.524293,-0.0764 0.725022,-0.18552 0.200729,-0.10913 0.403188,-0.22213 0.526066,-0.26096 0.122878,-0.0388 0.16619,-0.004 0.185518,0.0274 0.01934,0.0312 0.01524,0.0587 -0.107487,0.16381 -0.122741,0.10511 -0.364506,0.28796 -0.666626,0.80253 -0.30212,0.51458 -0.664541,1.36073 -0.91984,1.98438 -0.255302,0.62365 -0.40318,1.02493 -0.256834,1.3348 0.146347,0.30988 0.586531,0.52802 1.044382,0.47336 0.457851,-0.0547 0.933204,-0.3822 1.272273,-0.65112 0.339074,-0.26893 0.54193,-0.47938 0.678513,-0.56896 0.136584,-0.0896 0.206584,-0.0583 0.235644,0.004 0.02906,0.0624 0.01765,0.15599 -0.06615,0.2806 -0.08379,0.12461 -0.239612,0.28034 -0.424781,0.6351 -0.185168,0.35476 -0.399478,0.90868 -0.535884,1.48363 -0.136403,0.57496 -0.195146,1.17124 -0.138494,1.55908 0.05666,0.38784 0.228397,0.56705 0.39791,0.6351 0.169513,0.0681 0.336701,0.025 0.749826,-0.14262 0.413121,-0.16761 1.072166,-0.45991 1.588532,-0.8847 0.516369,-0.4248 0.890376,-0.98193 1.188559,-1.40095 0.298183,-0.41902 0.520298,-0.69953 0.666625,-0.81442 0.146328,-0.1149 0.216533,-0.0644 0.222208,0.0837 0.0057,0.1481 -0.05291,0.39352 -0.132808,0.78135 -0.0799,0.38783 -0.181022,0.91784 -0.190685,1.28623 -0.0097,0.36839 0.07193,0.57491 0.245462,0.76584 0.173538,0.19093 0.438793,0.36674 0.676444,0.39585 0.237655,0.0291 0.448078,-0.088 0.839743,-0.48215 0.391665,-0.39412 0.964621,-1.06558 1.458825,-1.68413 0.494205,-0.61856 0.65723,-0.84068 0.931209,-1.34566 0.273984,-0.50497 0.406413,-0.94909 0.515731,-1.15961 0.109321,-0.21053 0.195149,-0.18711 0.214458,-0.076 0.01932,0.11114 -0.02727,0.31009 -0.03307,0.52452 -0.0058,0.21442 0.02908,0.44393 0.151929,0.73432 0.122846,0.29038 0.333161,0.64119 0.604097,0.82424 0.270936,0.18304 0.602451,0.19871 1.007692,0.0155 0.405236,-0.18321 0.884547,-0.56529 1.2392,-1.14205 0.354653,-0.57676 0.584885,-1.34804 0.736907,-1.98334 0.152019,-0.6353 0.226039,-1.13446 0.348813,-2.02313 0.12278,-0.88867 0.293958,-2.16691 0.539504,-3.37912 0.245544,-1.21222 0.565306,-2.35823 0.914157,-3.22358 0.348845,-0.86535 0.72681,-1.45019 1.021125,-1.82831 0.294314,-0.37813 0.505103,-0.54924 0.688329,-0.67593 0.183229,-0.12669 0.339003,-0.20894 0.571027,-0.19327 0.232023,0.0157 0.539824,0.12904 0.834056,0.16795 0.294233,0.0389 0.574635,0.004 0.898136,-0.045 0.323504,-0.0487 0.690272,-0.1114 1.224214,-0.2868 0.533948,-0.17541 1.235374,-0.46371 1.625224,-0.57465 0.389851,-0.11094 0.467927,-0.0444 0.495062,0.22841 0.02714,0.27285 0.0037,0.75226 0.02532,1.01338 0.02159,0.26112 0.08765,0.30408 0.534334,0.12661 0.446683,-0.17747 1.274127,-0.57543 1.707906,-0.70539 0.433779,-0.12996 0.4322,-0.13536 0.454237,-0.008 0.02204,0.12708 0.02572,0.24399 0.02376,0.48369 -0.0019,0.2397 -0.0095,0.60201 0.06666,0.78703 0.07615,0.18502 0.235868,0.19292 0.407213,0.0682 0.171339,-0.1247 0.354623,-0.38213 0.561205,-0.65887 0.206581,-0.27675 0.436147,-0.57282 0.597895,-0.93328 0.16175,-0.36046 0.255709,-0.78504 0.314192,-1.44177 0.05849,-0.65673 0.08161,-1.54578 -0.257347,-2.32337 -0.338957,-0.7776 -1.04072,-1.44377 -1.391647,-1.77715 -0.350925,-0.33338 -0.350846,-0.33377 -0.374137,-0.37259 -0.02328,-0.0388 -0.07014,-0.11642 -0.02532,-0.17312 0.04482,-0.0567 0.18137,-0.092 0.912088,-0.80718 0.730721,-0.7152 2.055863,-2.11028 3.192055,-3.26595 1.136187,-1.15568 2.083448,-2.07178 2.978629,-3.36672 0.895178,-1.29495 1.738344,-2.96895 2.342491,-4.48707 0.604152,-1.51812 0.969425,-2.88023 1.2299,-4.146 0.260474,-1.26577 0.416033,-2.43539 0.569992,-3.5326 0.153958,-1.09721 0.306165,-2.12193 0.582908,-2.86649 0.276744,-0.74457 0.678273,-1.2085 0.99994,-1.46968 0.321667,-0.26118 0.563454,-0.31961 0.772046,-0.31367 0.208593,0.006 0.383726,0.0761 0.703316,0.3178 0.319593,0.24172 0.783185,0.65492 1.282091,1.08366 0.280046,0.24066 0.538644,0.45491 0.813906,0.68575 -0.174421,0.74474 -0.361511,1.59064 -0.545187,2.60552 -0.38309,2.11671 -0.749874,4.93642 -0.968933,6.36809 -0.219059,1.43167 -0.290338,1.47552 -0.495578,1.50585 -0.20524,0.0303 -0.544491,0.0472 -1.138431,0.0816 -0.593939,0.0345 -1.442685,0.0865 -2.095997,0.31523 -0.653309,0.22874 -1.110657,0.63417 -1.475878,1.15238 -0.36522,0.51822 -0.638204,1.14943 -0.911055,1.93631 -0.272852,0.78689 -0.54587,1.72947 -0.886251,2.64584 -0.340379,0.91637 -0.748279,1.80621 -0.920356,2.2748 -0.172085,0.46859 -0.108521,0.51581 0.342096,0.61495 0.450622,0.0991 1.28838,0.25051 2.090311,0.15399 0.801936,-0.0965 1.567945,-0.44122 2.171446,-1.05988 0.603496,-0.61866 1.044887,-1.51133 1.326015,-2.04329 0.28113,-0.53196 0.402381,-0.703 0.514181,-0.7705 0.111799,-0.0675 0.213595,-0.0317 0.238228,0.062 0.02461,0.0937 -0.02756,0.24548 -0.194302,0.6134 -0.166743,0.36791 -0.44786,0.95205 -0.723472,1.52393 -0.275603,0.57189 -0.545872,1.13171 -0.840774,1.77251 -0.294904,0.64079 -0.614516,1.36279 -1.044382,1.85053 -0.42986,0.48774 -0.970222,0.74129 -1.407149,1.2485 -0.436922,0.50721 -0.770149,1.2676 -1.089856,2.13992 -0.319704,0.87233 -0.626009,1.85615 -0.734838,2.76573 -0.108826,0.90957 -0.02053,1.74474 0.121439,2.43241 0.14198,0.68766 0.337645,1.228 0.533302,1.96525 0.195659,0.73725 0.391422,1.67149 0.392739,2.31355 0.0013,0.64207 -0.19142,0.99208 -0.275434,1.24437 -0.08401,0.25229 -0.05933,0.40668 -0.04134,0.49351 0.01799,0.0868 0.02887,0.10591 0.205156,-0.0982 0.176286,-0.20409 0.518146,-0.63098 1.153416,-1.495 0.635273,-0.86403 1.564069,-2.16496 2.145607,-3.33623 0.581536,-1.17127 0.815782,-2.21298 0.954982,-3.26854 0.139197,-1.05555 0.183382,-2.12496 0.06356,-3.0303 -0.119822,-0.90535 -0.403572,-1.64692 -0.568958,-2.10582 -0.165388,-0.4589 -0.212323,-0.63519 0.04806,-1.54616 0.260379,-0.91096 0.827852,-2.55624 1.158587,-3.50573 0.330729,-0.94948 0.424614,-1.20296 0.528132,-1.32705 0.103518,-0.12409 0.216469,-0.11865 0.28112,-0.0579 0.06465,0.0608 0.08135,0.1763 0.03307,0.36639 -0.04828,0.19009 -0.161536,0.45492 -0.225828,0.88625 -0.06429,0.43134 -0.06624,0.50065 -0.116787,1.11105 -0.05056,0.6104 -0.135681,1.23295 -0.0088,1.80764 0.126894,0.57469 0.465767,1.10119 1.073838,1.93735 0.608073,0.83616 1.485,1.98224 2.119249,2.72748 0.634251,0.74524 0.242975,0.40011 0.458372,0.59996 0.215392,0.19985 0.254035,0.25439 0.452684,-0.0264 0.198652,-0.28074 0.557276,-0.89632 0.841809,-1.40302 0.284533,-0.50669 0.495019,-0.90421 0.588594,-1.81229 0.09358,-0.90807 0.07057,-2.32721 -0.04961,-3.6468 -0.120176,-1.31959 -0.337346,-2.53998 -0.54777,-3.3321 -0.210423,-0.79212 -0.414514,-1.15573 -0.943612,-1.50585 -0.529093,-0.35012 -1.383181,-0.68614 -1.894457,-0.92036 -0.511275,-0.23421 -0.679582,-0.36693 -0.772046,-0.52813 -0.09246,-0.1612 -0.108823,-0.35101 -0.08268,-0.59221 0.02614,-0.24121 0.09509,-0.53347 0.223242,-1.05162 0.128159,-0.51814 0.31554,-1.26249 0.401008,-1.8743 0.08548,-0.61182 0.06885,-1.0909 0.107487,-1.35289 0.03864,-0.262 0.132207,-0.30608 0.223242,-0.28939 0.09104,0.0167 0.179441,0.0939 0.228928,0.17932 0.0495,0.0855 0.06013,0.17898 0.06563,0.45733 0.0055,0.27836 0.006,0.74136 0.190685,1.32292 0.18474,0.58156 0.553752,1.28177 0.986502,1.88257 0.432755,0.60081 0.928772,1.10234 1.620573,1.49914 0.691806,0.39679 1.57957,0.68887 2.03967,0.81287 0.4601,0.12399 0.492821,0.0797 0.545187,-0.21239 0.05236,-0.29206 0.124135,-0.83203 0.02223,-1.65055 -0.10192,-0.81851 -0.37774,-1.91563 -0.567923,-2.80861 -0.190187,-0.89299 -0.294923,-1.58165 -0.46302,-2.37815 -0.168106,-0.7965 -0.399577,-1.70091 -1.077455,-2.34043 -0.677879,-0.63952 -1.802292,-1.01407 -2.425176,-1.22628 -0.622877,-0.2122 -0.744128,-0.26168 -0.799434,-0.30851 -0.0553,-0.0468 -0.04393,-0.0911 0.03876,-0.38602 0.08268,-0.2949 0.236664,-0.84081 0.466121,-1.74305 0.0047,-0.0183 0.0108,-0.0445 0.0155,-0.063 0.3874,0.32435 0.684125,0.57438 0.862478,0.77514 0.187021,0.21052 0.261054,0.37813 0.313677,0.49506 0.05262,0.11694 0.08368,0.18305 0.144177,0.2434 0.06049,0.0603 0.150246,0.11484 0.204639,0.0915 0.05439,-0.0234 0.07392,-0.12434 0.03307,-0.30748 -0.04084,-0.18313 -0.142015,-0.44837 -0.48886,-0.98237 -0.227658,-0.35049 -0.546963,-0.78686 -0.849559,-1.20871 0.181285,-0.7418 0.371023,-1.53831 0.532784,-2.28978 0.233645,-1.08541 0.396293,-1.99718 0.556038,-2.96623 0.159744,-0.96905 0.328496,-2.07438 0.367934,-3.14864 0.03944,-1.074262 -0.03867,-2.196394 -0.198953,-3.45974 -0.160287,-1.263342 -0.402619,-2.667936 -0.889352,-4.005956 -0.486733,-1.338021 -0.857716,-1.983212 -1.266071,-2.69906 -0.408355,-0.715849 -0.494419,-0.8757 -0.884184,-0.858346 -0.389766,0.01736 -1.083287,0.212092 -1.416453,0.330729 -0.333163,0.118637 -0.305898,0.160913 -0.264583,0.206706 0.04131,0.04579 0.09662,0.09536 0.212392,0.133842 0.115766,0.03848 0.291989,0.06621 0.643371,0.348816 0.351383,0.282608 0.877866,0.820076 1.422136,1.72961 0.544269,0.909534 1.106289,2.1911 1.37356,3.766178 0.267269,1.575079 0.239959,3.443545 0.179316,4.822961 -0.06065,1.37942 -0.154337,2.26963 -0.264583,3.1998 -0.110247,0.93019 -0.237017,1.90034 -0.500227,3.09232 -0.05902,0.26727 -0.143446,0.60831 -0.214458,0.90331 -0.201512,-0.30737 -0.31936,-0.52881 -0.371038,-0.80357 -0.06634,-0.35276 -0.08212,-0.85175 -0.03927,-1.20458 0.04284,-0.35283 0.144237,-0.55933 0.222207,-0.9958 0.07797,-0.43648 0.132422,-1.10286 0.126609,-1.66605 -0.0058,-0.5632 -0.0723,-1.02315 -0.368454,-1.72083 -0.296158,-0.69768 -0.822105,-1.633138 -1.714624,-2.149737 -0.892522,-0.516599 -2.151634,-0.61387 -3.367754,-0.571023 -1.216115,0.04284 -2.389174,0.225726 -3.765143,0.862996 -1.375973,0.637264 -2.95462,1.728564 -4.552696,2.921264 -1.598072,1.19271 -3.215486,2.48704 -4.32635,3.40496 -1.110858,0.91792 -1.715053,1.4595 -2.052071,1.72651 -0.337016,0.26702 -0.40698,0.25948 -0.582393,0.10904 -0.175413,-0.15044 -0.456324,-0.4439 -1.092957,-1.25884 -0.636632,-0.81493 -1.375934,-1.81067 -2.059305,-2.6758 -0.683373,-0.86514 -1.057195,-1.25851 -1.380794,-1.98541 -0.323601,-0.7269 -0.596519,-1.78691 -1.068152,-4.137217 C 47.526591,20.070237 46.856426,16.429432 46.349233,13.775081 45.842034,11.120731 45.497772,9.452696 45.074375,8.49375 44.650975,7.534804 44.572857,7.49578 43.978317,7.322245 43.383777,7.148711 42.697845,7.05125 42.278679,8.012126 c -0.419164,0.960876 -0.571227,2.98012 -0.691946,3.999239 -0.120722,1.019118 -0.21037,1.038391 -0.296106,0.993738 -0.08574,-0.04465 -0.167547,-0.153608 -0.331764,-0.411345 -0.164216,-0.257737 -0.411072,-0.663882 -0.684712,-1.0573 -0.273643,-0.393418 -0.113422,-0.191024 -0.454753,-0.482657 -0.341334,-0.291633 -0.72331,-0.494373 -1.115176,-0.416513 -0.391872,0.07786 -0.793009,0.436486 -1.147736,0.89452 -0.354722,0.458032 -0.66284,1.015499 -0.565338,2.338875 0.0975,1.323375 0.600154,3.412565 0.849558,4.474662 0.249407,1.062097 0.245346,1.096849 0.220142,1.116211 -0.02519,0.01936 -0.0716,0.02349 -0.118338,0.01964 -0.04674,-0.0038 -0.09346,-0.01542 -0.212392,-0.165364 -0.118932,-0.149947 -0.310147,-0.438641 -0.532264,-0.676445 -0.222123,-0.237804 -0.475203,-0.424646 -0.812356,-0.677995 -0.337151,-0.253348 -0.758214,-0.573063 -1.146183,-0.557588 -0.387969,0.01548 -0.742709,0.366507 -1.0604,1.017509 -0.31769,0.651002 -0.598553,1.601716 -0.317809,2.825668 0.280744,1.223946 1.123029,2.720517 1.789554,3.841104 0.666523,1.12059 1.157311,1.86542 1.38131,2.27066 0.223999,0.40525 0.181184,0.47127 0.120923,0.50436 -0.06026,0.0331 -0.138052,0.0331 -1.092957,-0.38188 -0.9549,-0.41503 -2.786954,-1.24516 -4.449339,-2.21176 C 29.948209,24.302879 28.455401,23.19955 27.12043,22.21488 25.785464,21.230209 24.608264,20.364414 23.390943,19.29051 22.173644,18.216683 21.180676,17.204486 20.195291,16.207055 19.2099,15.209623 18.49674,14.496323 17.756163,13.666124 17.015581,12.835925 16.247893,11.888786 15.441059,10.82082 14.634223,9.752854 13.788538,8.56433 13.040172,7.494408 12.291806,6.424486 11.640952,5.473545 11.029958,4.53955 10.418963,3.605554 9.8479025,2.688423 9.1292995,1.860644 8.4106938,1.032864 8.4183456,1.039296 7.8156829,0.58423597 7.2130256,0.12917597 6.8739092,-0.04201303 6.5268737,0.00855997 Z M 6.9511384,3.733898 c 0.045154,0.0047 0.099293,0.06458 0.181901,0.149345 0.2202895,0.226038 0.6411463,0.631293 1.4304036,1.625224 0.7892548,0.99393 1.94695,2.575957 3.246829,4.405932 1.299885,1.829975 2.741861,3.907466 4.49585,6.117456 1.753984,2.20999 3.82015,4.55247 5.587772,6.448704 1.767624,1.896231 3.23681,3.346296 4.392497,4.381126 1.155692,1.03482 1.997389,1.65468 3.771346,2.73627 1.773952,1.08159 4.480177,2.62482 6.853328,3.58789 2.373151,0.96308 3.902104,1.24997 5.41724,1.40819 1.515134,0.15821 2.504914,0.0918 3.180168,0.0119 0.675253,-0.0799 1.036023,-0.17299 1.28261,-0.2129 0.246586,-0.0399 0.379163,-0.0265 0.503843,0.0672 0.124688,0.0937 0.24176,0.26722 0.306959,0.42995 0.0652,0.16272 0.07843,0.31436 -0.07648,0.48472 -0.154906,0.17036 -0.478065,0.35967 -0.96325,0.47077 -0.48518,0.1111 -1.132515,0.14405 -2.134235,0.20154 -1.001726,0.0575 -2.35812,0.13971 -4.267957,-0.34158 -1.909834,-0.48129 -4.372954,-1.52602 -6.393926,-2.51406 -2.02097,-0.98805 -3.599667,-1.91983 -5.037934,-2.90008 -1.43827,-0.98025 -2.736046,-2.00907 -4.078822,-3.1998 -1.342768,-1.19079 -2.730098,-2.54301 -3.75326,-3.581749 -1.023159,-1.038738 -1.68175,-1.763982 -2.699059,-2.978112 C 17.179655,19.317707 15.803813,17.614759 13.99722,15.196242 12.190621,12.777725 9.9529368,9.643703 8.8244069,8.092283 7.6958822,6.540863 7.676647,6.571988 7.6591052,6.607102 7.6415632,6.642212 7.6256642,6.681472 7.5516182,7.141437 7.4775742,7.601402 7.3452935,8.48239 7.2751498,9.793988 c -0.070144,1.311598 -0.078026,3.053796 -0.035142,4.659664 0.042884,1.605867 0.1366864,3.074904 0.5420863,4.969205 0.4053998,1.894302 1.122508,4.213618 1.9254628,6.265768 0.8029601,2.05215 1.6914891,3.83731 2.8101661,5.58932 1.118674,1.75201 2.467253,3.47078 4.004924,5.13509 1.537665,1.6643 3.264302,3.27375 4.975404,4.75681 1.711108,1.48308 3.406717,2.83964 5.957777,4.35581 2.551057,1.51617 5.95739,3.19232 7.660515,4.03025 1.703126,0.8379 1.703287,0.83775 1.706356,0.82785 0.0031,-0.01 0.0091,-0.0298 0.02635,-0.0119 0.01728,0.0179 0.04562,0.0734 0.06253,0.18087 0.01691,0.1075 0.02267,0.26716 -0.03514,0.42323 -0.05782,0.15607 -0.179359,0.30905 -0.34158,0.39274 -0.162219,0.0837 -0.36545,0.0982 -1.402498,-0.34468 -1.037053,-0.44285 -2.907718,-1.34353 -4.80591,-2.36472 -1.898184,-1.02118 -3.82375,-2.16289 -5.778458,-3.45301 -1.954707,-1.29013 -3.938624,-2.72842 -5.427575,-3.98736 -1.488956,-1.25893 -2.482715,-2.33864 -3.388942,-3.36568 -0.906224,-1.02705 -1.724578,-2.00145 -2.408637,-2.87063 -0.684064,-0.86919 -1.233786,-1.63339 -1.664499,-2.27066 -0.43071,-0.63727 -0.742791,-1.14784 -1.163754,-1.90789 -0.42096,-0.76005 -0.9507268,-1.76933 -1.4262677,-2.79053 -0.4755409,-1.0212 -0.8965221,-2.05401 -1.2025101,-2.87838 C 7.5598176,24.310786 7.3687541,23.694965 7.1056471,22.681558 6.8425402,21.668151 6.5071808,20.257404 6.2674551,19.047155 6.0277293,17.836907 5.8839177,16.82729 5.813737,15.611189 5.743559,14.395089 5.74721,12.972316 5.76671,11.64709 5.78621,10.321864 5.821489,9.09419 6.0085577,7.763089 6.1956287,6.431989 6.534552,4.997605 6.7139395,4.303869 6.8260567,3.870284 6.8758778,3.725964 6.9511358,3.733878 Z m 2.2727285,8.628414 c 0.039838,-0.04092 0.1439148,0.102685 0.3364123,0.408244 0.3850058,0.611116 1.1237618,1.870041 1.7425298,2.890262 0.618768,1.020222 1.117717,1.801924 1.696538,2.6448 0.578823,0.842877 1.237527,1.746727 2.036569,2.778642 0.799039,1.031917 1.738122,2.191475 2.585887,3.143477 0.84777,0.951998 1.603679,1.696488 2.39882,2.428278 0.795142,0.73178 1.629664,1.45125 2.478403,2.10995 0.848735,0.65869 1.71205,1.25687 2.385382,1.65829 0.673339,0.40143 1.156407,0.60593 1.418519,0.72192 0.262112,0.11599 0.303173,0.14325 0.29714,0.19482 -0.006,0.0516 -0.05888,0.12775 -0.271301,0.4191 -0.212426,0.29135 -0.584377,0.79785 -0.752927,1.37873 -0.168545,0.58087 -0.133411,1.23575 -0.05736,1.74149 0.07605,0.50575 0.19304,0.86259 0.360701,1.18804 0.167658,0.32545 0.385516,0.61951 0.485759,0.8475 0.10024,0.22798 0.08281,0.38958 0.05064,0.50643 -0.03216,0.11684 -0.07864,0.18918 -0.172082,0.24856 -0.09344,0.0594 -0.23413,0.10605 -0.412377,0.10904 -0.17825,0.003 -0.394166,-0.0381 -0.589111,-0.21239 -0.19495,-0.1743 -0.368609,-0.482 -0.576193,-0.96532 -0.207585,-0.48331 -0.449027,-1.14231 -0.560174,-1.81177 -0.111135,-0.66947 -0.09193,-1.34947 -0.0062,-1.83969 0.08573,-0.49021 0.237596,-0.79033 0.337963,-0.98133 0.100367,-0.191 0.149143,-0.27273 -0.02997,-0.38964 -0.179115,-0.11691 -0.586436,-0.26906 -1.207161,-0.66559 -0.620726,-0.39654 -1.454653,-1.03738 -2.570385,-2.02934 -1.115728,-0.99195 -2.513263,-2.33482 -3.693307,-3.57135 -1.180042,-1.236543 -2.142405,-2.366975 -2.924887,-3.366725 -0.782476,-0.999754 -1.384792,-1.868994 -1.688785,-2.303736 -0.304001,-0.434742 -0.310007,-0.434748 -0.319876,-0.315743 -0.0099,0.119006 -0.02336,0.357111 0.214456,1.227316 0.237823,0.870204 0.727022,2.372701 1.228865,3.739822 0.501848,1.367126 1.016391,2.598706 1.475364,3.602366 0.458967,1.00365 0.862428,1.77924 1.338935,2.62309 0.476509,0.84386 1.025892,1.7556 1.548227,2.45618 0.52233,0.70059 1.017445,1.19015 1.681033,1.84692 0.663589,0.65677 1.49546,1.48115 2.636531,2.42828 1.141076,0.94712 2.590908,2.01655 4.105177,3.01532 1.514268,0.99877 3.093262,1.92671 4.906676,2.9099 1.813418,0.98318 3.861189,2.02185 5.010031,2.61431 1.14884,0.59246 1.398641,0.73876 1.556494,0.81958 0.157853,0.0808 0.223763,0.0962 0.391192,-0.10645 0.167425,-0.20268 0.436422,-0.62381 0.867129,-1.21336 0.430707,-0.58955 1.023332,-1.34766 1.536856,-1.97714 0.51353,-0.62949 0.948193,-1.13007 1.093475,-1.35909 0.14528,-0.22902 0.0011,-0.18606 -0.278537,-0.10129 -0.279665,0.0848 -0.694772,0.21116 -1.320332,0.3359 -0.625559,0.12474 -1.461532,0.24753 -2.349211,0.29042 -0.887675,0.0429 -1.827303,0.006 -2.926435,-0.21497 -1.099137,-0.22116 -2.357969,-0.62666 -3.34605,-1.11673 -0.988081,-0.49007 -1.705205,-1.06523 -2.139921,-1.85157 -0.434716,-0.78633 -0.586991,-1.78376 -0.16795,-2.51767 0.419045,-0.73392 1.409274,-1.20348 2.109949,-1.44901 0.70068,-0.24553 1.111779,-0.26723 1.524974,-0.19895 0.413189,0.0683 0.828484,0.2262 1.170469,0.45526 0.34199,0.22907 0.610798,0.52926 0.823206,0.78652 0.21241,0.25726 0.368549,0.4715 0.419097,0.84078 0.05055,0.36927 -0.0041,0.89357 -0.148312,1.2764 -0.144206,0.38284 -0.378187,0.62469 -0.674378,0.86145 -0.29619,0.23676 -0.654658,0.46859 -1.000456,0.51935 -0.345794,0.0507 -0.679389,-0.0799 -0.88315,-0.25425 -0.20376,-0.17433 -0.277516,-0.39244 -0.115755,-0.59531 0.161761,-0.20287 0.559128,-0.39007 0.847495,-0.58394 0.288361,-0.19388 0.467656,-0.39447 0.519348,-0.64183 0.05169,-0.24735 -0.02413,-0.54206 -0.198438,-0.78961 -0.174315,-0.24756 -0.446992,-0.44808 -0.711067,-0.56121 -0.264078,-0.11313 -0.519581,-0.1384 -0.831474,-0.078 -0.311894,0.0604 -0.680194,0.20625 -0.973585,0.43821 -0.293391,0.23198 -0.511797,0.55012 -0.608232,0.84646 -0.09644,0.29635 -0.07091,0.57077 0.01394,0.82218 0.08486,0.25141 0.228976,0.47958 0.486275,0.73484 0.2573,0.25525 0.627685,0.53796 1.161685,0.81855 0.534001,0.28059 1.231699,0.55918 1.968357,0.75499 0.736653,0.19582 1.511927,0.30897 2.361613,0.35864 0.84968,0.0497 1.773441,0.0361 2.827734,-0.13643 1.054288,-0.1725 2.239494,-0.504 3.275251,-0.95808 1.035762,-0.45408 1.922203,-1.03078 2.413291,-1.36012 0.491085,-0.32934 0.586891,-0.41121 0.643371,-0.46767 0.05648,-0.0565 0.07393,-0.0878 0.09457,-0.0935 0.02064,-0.006 0.04376,0.0136 0.05529,0.0233 0.01156,0.01 0.01151,0.01 0.1695,0.1757 0.157986,0.16579 0.47375,0.49697 0.633553,0.66456 0.159803,0.16759 0.16374,0.17122 -0.120923,0.41858 -0.284662,0.24736 -0.857678,0.73883 -1.809707,1.66553 -0.952034,0.9267 -2.282785,2.28848 -3.360521,3.61373 -1.077732,1.32526 -1.902412,2.61377 -2.321303,3.25975 -0.418896,0.64598 -0.43217,0.64994 -1.115179,0.29146 -0.683009,-0.35849 -2.03577,-1.07966 -3.83749,-2.05311 -1.801725,-0.97345 -4.052652,-2.19953 -5.95571,-3.32693 -1.903058,-1.12739 -3.45775,-2.15632 -4.873604,-3.22719 -1.415857,-1.07088 -2.692572,-2.18375 -3.82974,-3.28094 -1.137168,-1.0973 -2.135058,-2.17844 -2.933152,-3.26296 -0.798095,-1.08452 -1.396516,-2.17212 -2.030884,-3.46128 -0.634367,-1.28918 -1.304258,-2.77995 -1.848982,-4.16461 C 11.857241,24.075046 11.438239,22.796632 11.055278,21.455817 10.672312,20.114999 10.324954,18.712003 10.00728,17.164605 9.6896023,15.617207 9.4016166,13.925427 9.2729576,13.06098 9.2086242,12.628756 9.1840259,12.403238 9.2238642,12.362315 Z m 35.5993771,0.458886 c 0.03014,-0.0011 0.043,0.01359 0.05271,0.03617 0.03106,0.07225 0.02747,0.22436 -0.14211,0.81287 -0.169574,0.58851 -0.504992,1.613549 -0.651124,2.665988 -0.146129,1.052438 -0.10315,2.131651 -0.02429,3.139859 0.07888,1.008209 0.129968,1.423757 0.372589,2.331123 0.242617,0.907373 0.612703,1.785464 1.121378,2.791561 0.508674,1.006116 1.155827,2.140076 1.869135,3.215826 0.713307,1.07576 1.492819,2.09344 2.632914,3.39721 1.140103,1.30377 2.64064,2.8938 3.388942,3.68505 0.748297,0.79125 0.744255,0.78326 0.804601,0.72657 0.06035,-0.0567 0.185417,-0.1618 1.189074,-1.09141 1.003663,-0.9296 2.885819,-2.68363 4.474147,-4.0907 1.58832,-1.40708 2.882492,-2.46691 3.981669,-3.33417 1.099167,-0.86725 2.003182,-1.54167 2.886128,-1.90221 0.882946,-0.36053 1.744382,-0.40725 2.601907,-0.25321 0.857533,0.15403 1.71109,0.50872 2.264463,1.02526 0.553371,0.51654 0.806934,1.19485 0.775663,1.92753 -0.03127,0.73268 -0.346763,1.52003 -0.923459,1.88051 -0.576688,0.36048 -1.415018,0.29425 -1.949233,0.14624 -0.534223,-0.14801 -1.558174,-1.17038 -1.702739,-1.65416 -0.144566,-0.48379 -0.203327,-1.22145 -0.248047,-1.60972 -0.04472,-0.38827 -0.07576,-0.4275 -0.57671,-0.10025 -0.500951,0.32724 -1.471514,1.02127 -2.609659,1.90996 -1.13814,0.88868 -2.443615,1.97213 -3.75326,3.13365 -1.309635,1.16153 -2.623513,2.40124 -3.69538,3.43804 -1.071872,1.03678 -1.901907,1.87066 -2.346111,2.28771 -0.444203,0.41705 -0.50265,0.41726 -1.147733,-0.24133 -0.645083,-0.65857 -1.876788,-1.97594 -3.016869,-3.24269 -1.140087,-1.26675 -2.188443,-2.48323 -3.295407,-3.94291 -1.106971,-1.45968 -2.272286,-3.16281 -2.98173,-4.61471 -0.709451,-1.451892 -0.963086,-2.652505 -1.198893,-3.716572 -0.235807,-1.064073 -0.453641,-1.991576 -0.504362,-2.860807 -0.05072,-0.869233 0.06617,-1.679864 0.118856,-2.102715 0.05268,-0.422849 0.04072,-0.457753 -0.08992,-0.313676 -0.130644,0.144078 -0.380228,0.46747 -0.698664,1.009241 -0.318434,0.541771 -0.382551,0.667753 -0.662493,1.256771 -0.279945,0.589019 -0.452252,1.006991 -0.53847,1.215946 -0.08622,0.208957 -0.08622,0.208772 -0.187584,0.764295 -0.101359,0.555523 -0.304107,1.666191 -0.358635,2.572452 -0.05453,0.906259 0.03895,1.60809 0.161748,2.262915 0.122799,0.65482 0.27509,1.26297 0.415478,1.65468 0.140388,0.39171 0.268959,0.56695 0.296106,0.75396 0.02715,0.18701 -0.04689,0.38559 -0.171567,0.54725 -0.124674,0.16167 -0.299908,0.28654 -0.564822,0.30024 -0.264914,0.0137 -0.619876,-0.0838 -0.890902,-0.82424 -0.271026,-0.74047 -0.458142,-2.12428 -0.540017,-3.451469 -0.08187,-1.327193 -0.05866,-2.597727 0.175183,-3.739824 0.233834,-1.142095 0.678479,-2.155293 1.163751,-3.090767 0.48527,-0.935474 1.011267,-1.793128 1.786972,-2.568835 0.775706,-0.775709 1.800866,-1.469261 2.346627,-1.820045 0.375211,-0.241163 0.523835,-0.320079 0.590145,-0.322461 z m 24.373705,13.388327 c -0.06134,0.0157 -0.09418,0.0774 -0.116271,0.18914 -0.04419,0.2234 -0.04453,0.64748 0.09612,1.10639 0.140647,0.45892 0.421867,0.95258 0.687813,1.15084 0.265946,0.19825 0.681882,0.10136 0.8816,-0.10801 0.19972,-0.20937 0.232936,-0.53184 0.237196,-0.80047 0.0043,-0.26862 -0.276865,-0.67381 -0.573093,-0.9343 -0.296227,-0.2605 -0.657439,-0.37626 -0.927592,-0.51832 -0.135078,-0.071 -0.224427,-0.10093 -0.285771,-0.0853 z m -3.487126,6.9603 c 0.206787,0.0194 0.394163,0.14068 0.537435,0.27027 0.143271,0.12958 0.242482,0.26773 0.217558,0.66456 -0.02492,0.39682 -0.173643,1.0528 -0.461986,2.08411 -0.28834,1.03131 -0.52384,1.80607 -1.236617,3.65869 -0.712777,1.85262 -1.71087,4.15137 -2.808616,6.15208 -1.097743,2.00071 -1.446964,2.49718 -2.533695,3.98529 -1.086723,1.4881 -2.062385,2.76158 -3.121255,3.70055 -1.058876,0.93896 -0.742318,0.77139 -1.913062,1.20612 -1.170749,0.43473 -2.370082,0.69956 -3.318145,0.53434 -0.94806,-0.16523 -1.6447,-0.76063 -2.224669,-1.43041 -0.57997,-0.66977 -1.043059,-1.41389 -1.044382,-2.39675 -0.0013,-0.98285 0.218284,-1.56639 0.83716,-2.84685 0.618871,-1.28046 1.396069,-2.62014 2.275314,-3.79822 0.879242,-1.17809 2.125022,-2.46839 3.131073,-3.26337 1.006055,-0.79498 2.036631,-1.36802 2.902149,-1.37614 0.865521,-0.008 1.565762,0.54836 2.045353,1.15393 0.479589,0.60558 0.738886,1.26011 0.799434,1.84434 0.06055,0.58423 -0.0774,1.0982 -0.457854,2.05258 -0.380447,0.95439 -1.003231,2.34909 -1.769401,3.51762 -0.766167,1.16853 -1.675887,2.11082 -2.304251,2.70061 -0.628362,0.58978 -0.975606,0.82676 -1.391647,0.87643 -0.416037,0.0497 -0.901219,-0.0879 -1.322917,-0.30282 -0.42169,-0.2149 -0.779642,-0.50696 -0.953429,-0.85421 -0.173783,-0.34726 -0.163179,-0.74984 -0.07183,-1.15291 0.09135,-0.40306 0.263511,-0.80642 0.586012,-1.22266 0.322501,-0.41625 0.795404,-0.84486 1.18029,-1.03921 0.384879,-0.19436 0.681358,-0.15465 0.876949,0.0108 0.19559,0.16551 0.29047,0.45645 0.304889,0.64028 0.01442,0.18382 -0.0517,0.26082 -0.349332,0.50333 -0.297629,0.24251 -0.826854,0.65025 -1.008723,1.0914 -0.18187,0.44115 -0.01648,0.91536 0.305924,0.93999 0.322416,0.0246 0.802217,-0.39965 1.460892,-1.19889 0.65868,-0.79923 1.496554,-1.97339 2.067057,-2.97656 0.570508,-1.00317 0.873485,-1.83541 1.05265,-2.574 0.179165,-0.73859 0.234098,-1.38369 0.115755,-1.79163 -0.118343,-0.40793 -0.410117,-0.57885 -0.677479,-0.66714 -0.267364,-0.0883 -0.510339,-0.0937 -0.95963,0 -0.449292,0.0937 -1.104895,0.28659 -2.031918,1.18959 -0.927021,0.90301 -1.87152,2.17503 -2.961058,3.83595 -1.089544,1.66091 -2.070973,3.3695 -2.252059,4.53615 -0.181086,1.16666 0.437488,1.79121 1.093472,2.21847 0.655987,0.42726 1.155153,0.59264 2.145089,0.48473 0.989943,-0.10791 1.364734,-0.28307 2.525426,-1.22422 1.160698,-0.94115 1.851157,-1.71181 2.92127,-3.20755 1.070113,-1.49575 2.250676,-3.41594 3.246829,-5.22294 0.996159,-1.807 1.807647,-3.50092 2.413807,-5.3144 0.606158,-1.8135 1.006806,-3.74664 1.218015,-4.7408 0.211209,-0.99417 0.232957,-1.04928 0.357084,-1.11828 0.124124,-0.069 0.350287,-0.15171 0.55707,-0.13229 z m 9.286771,4.53978 c 0.06728,-8e-4 0.1426,0.009 0.227378,0.03 0.339111,0.0855 0.829778,0.36117 1.295527,0.74982 0.465746,0.38867 0.906507,0.89038 1.195792,1.6428 0.28929,0.75242 0.427202,1.75562 0.520899,2.64583 0.0937,0.89022 0.143417,1.66723 0.17105,2.06137 0.02763,0.39415 0.03265,0.40523 -0.33383,0.24805 -0.366477,-0.15718 -1.104802,-0.48238 -1.584399,-0.76068 -0.479594,-0.27829 -0.700143,-0.50972 -0.849045,-0.73018 -0.1489,-0.22047 -0.225806,-0.42978 -0.333312,-0.79634 -0.107505,-0.36656 -0.245573,-0.89015 -0.28422,-1.30638 -0.03865,-0.41623 0.0218,-0.72506 0.134876,-0.92087 0.113073,-0.19581 0.278808,-0.27853 0.447,-0.22325 0.168193,0.0553 0.339125,0.24823 0.42168,0.43564 0.08255,0.1874 0.07665,0.36913 0.09043,0.63923 0.01378,0.27011 0.04706,0.62825 0.259413,0.94517 0.212355,0.31691 0.60392,0.59272 0.807704,0.68368 0.203785,0.091 0.220073,-0.003 0.153996,-0.28371 -0.06608,-0.28106 -0.214794,-0.74982 -0.366387,-1.26245 -0.151593,-0.51264 -0.306039,-1.06943 -0.669727,-1.44436 -0.363683,-0.37493 -0.93717,-0.5675 -1.287259,-0.64751 -0.350088,-0.08 -0.47639,-0.047 -0.559138,-0.14882 -0.08276,-0.1018 -0.121389,-0.33894 -0.104905,-0.59532 0.01648,-0.25637 0.08796,-0.53215 0.217559,-0.72243 0.09721,-0.14272 0.227068,-0.23688 0.428913,-0.23926 z m -22.214146,0.75292 c 0.114295,0.006 0.210772,0.0446 0.287837,0.10491 0.205508,0.16093 0.273344,0.48038 0.274402,0.66145 0.0011,0.18108 -0.06536,0.22391 -0.266133,0.42272 -0.200766,0.1988 -0.535626,0.55372 -1.315165,1.44435 -0.779547,0.89063 -2.003364,2.3172 -3.125909,3.62149 -1.122537,1.30428 -2.143815,2.48602 -3.302122,4.11241 -1.158311,1.62639 -2.215975,3.31659 -3.362586,5.26014 -1.146612,1.94356 -2.144435,3.75987 -2.925919,6.0849 -0.781492,2.32504 -1.346253,5.15884 -1.611273,6.87193 -0.265017,1.7131 -0.230158,2.30531 -0.191201,2.57607 0.03896,0.27077 0.08178,0.2204 0.203089,0.004 0.121303,-0.21678 0.431236,-0.81084 0.776179,-1.39165 0.344942,-0.58081 0.568002,-0.94907 1.480529,-2.21175 0.912529,-1.26268 2.137801,-2.79823 3.39566,-3.99459 1.257853,-1.19634 2.180973,-1.80953 3.894336,-2.80706 1.713359,-0.99753 3.849346,-2.13535 4.948533,-2.71611 1.099191,-0.58077 1.161582,-0.60431 1.192692,-0.59635 0.03112,0.008 0.03111,0.0471 -0.0186,0.31213 -0.04971,0.26501 -0.149068,0.75573 -0.125573,1.11828 0.0235,0.36254 0.169645,0.59684 0.513664,0.73897 0.344017,0.14212 0.885831,0.19265 1.354439,0.11368 0.468607,-0.079 0.864257,-0.28779 1.081588,-0.3979 0.217331,-0.11011 0.256262,-0.12172 0.314709,-0.14315 0.05845,-0.0214 0.136429,-0.0523 0.257349,-0.0444 0.12092,0.008 0.284475,0.0545 0.388607,0.22996 0.104121,0.1755 0.149206,0.47929 0.129707,0.66818 -0.0195,0.18888 -0.103495,0.26297 -0.428914,0.44907 -0.325419,0.1861 -0.892664,0.48423 -1.431438,0.62166 -0.538771,0.13741 -1.049176,0.11417 -1.553908,-0.005 -0.504738,-0.11882 -1.003546,-0.33289 -1.31155,-0.56276 -0.308002,-0.22987 -0.425215,-0.47565 -0.499193,-0.60823 -0.07398,-0.13258 -0.104941,-0.15226 -0.175183,-0.14263 -0.07024,0.01 -0.179332,0.0488 -0.452686,0.17209 -0.273352,0.12327 -0.710964,0.3309 -1.858285,1.02577 -1.147315,0.69487 -2.388291,1.48481 -3.86643,2.52853 -1.478132,1.04373 -2.577201,1.94868 -3.633886,3.31608 -1.05669,1.3674 -1.846484,2.79229 -2.842723,4.69118 -0.996233,1.8989 -1.974553,3.86726 -2.483051,4.85139 -0.5085,0.98413 -0.547423,0.98392 -0.637169,0.64595 -0.08975,-0.33796 -0.230019,-1.0143 -0.248566,-2.64066 -0.01855,-1.62637 0.08491,-4.20244 0.402561,-6.42907 0.317648,-2.22663 0.84944,-4.10328 1.529104,-6.03219 0.679669,-1.92891 1.507233,-3.91008 2.577621,-5.90662 1.070393,-1.99653 1.983459,-3.39526 3.365169,-5.32112 1.381718,-1.92586 2.831544,-3.76551 4.010607,-5.21156 1.179068,-1.44607 2.087385,-2.49843 2.823086,-3.35691 0.735695,-0.85848 1.298575,-1.52283 1.75183,-1.85415 0.283287,-0.20707 0.523676,-0.28411 0.714168,-0.27337 z m 18.534784,6.91017 c 0.09665,-0.003 0.242552,0.071 0.337966,0.15297 0.09541,0.0819 0.14025,0.17169 0.168465,0.24184 0.02822,0.0702 0.04029,0.12087 -0.07183,0.54467 -0.11212,0.4238 -0.34815,1.22059 -0.695048,1.98644 -0.346897,0.76586 -0.804709,1.50058 -1.281575,2.00247 -0.476864,0.50188 -1.209701,0.90001 -1.824178,1.05885 -0.614476,0.15883 -1.22919,0.14302 -1.561663,0.12402 -0.332465,-0.019 -0.382699,-0.0414 -0.220141,-0.40308 0.16256,-0.3617 0.538181,-1.06262 0.868682,-1.88102 0.330497,-0.81839 0.615519,-1.75433 0.935342,-2.29495 0.319823,-0.54062 0.67441,-0.68584 0.936895,-0.79427 0.262485,-0.10843 0.432919,-0.18013 0.629417,-0.15968 0.196498,0.0205 0.418407,0.1331 0.488344,0.36381 0.06994,0.23071 -0.0118,0.57961 -0.0956,0.84852 -0.08381,0.26891 -0.169272,0.45785 -0.315227,0.5054 -0.145955,0.0476 -0.352708,-0.0466 -0.598413,0.0274 -0.245708,0.074 -0.530074,0.31612 -0.760159,0.70021 -0.230084,0.3841 -0.405439,0.9104 -0.500745,1.17151 -0.09531,0.26118 -0.11121,0.25721 -0.04496,0.26303 0.06625,0.006 0.214506,0.0211 0.545703,-0.13488 0.3312,-0.15594 0.845699,-0.48333 1.198375,-0.83405 0.352681,-0.35072 0.543867,-0.72463 0.743625,-1.10174 0.199757,-0.37711 0.407879,-0.75739 0.56379,-1.12862 0.155911,-0.37122 0.259315,-0.73373 0.334346,-0.95498 0.07503,-0.22124 0.121938,-0.30097 0.21859,-0.30386 z m 1.904794,3.34347 c 0.09357,0.005 0.172884,0.025 0.218075,0.0367 0.06026,0.0156 0.06072,0.0158 0.425296,0.31213 0.364578,0.29634 1.09314,0.88871 1.537375,1.47536 0.444235,0.58665 0.604054,1.16707 0.687814,1.97972 0.08371,0.81266 0.0916,1.85757 -0.0021,2.81637 -0.09357,0.9588 -0.288142,1.83173 -0.410829,2.2779 -0.122688,0.44616 -0.173501,0.46555 -0.29042,0.30592 -0.11692,-0.15962 -0.300149,-0.49883 -0.596347,-0.92759 -0.296199,-0.42877 -0.705361,-0.94691 -1.079521,-1.36788 -0.374161,-0.42097 -0.713148,-0.74471 -0.91984,-1.19682 -0.206687,-0.45212 -0.280985,-1.03258 -0.22841,-1.52963 0.05257,-0.49704 0.232093,-0.91028 0.388091,-1.14618 0.155993,-0.2359 0.288227,-0.2942 0.43253,-0.26872 0.144304,0.0255 0.300334,0.13433 0.358635,0.38964 0.05831,0.25532 0.01947,0.65692 -0.01757,0.98237 -0.03703,0.32545 -0.07213,0.57502 -0.07596,0.75241 -0.0038,0.17739 0.0231,0.28251 0.149863,0.43253 0.126778,0.15003 0.353245,0.34506 0.528651,0.48731 0.175405,0.14225 0.299995,0.23187 0.370001,-0.0176 0.07001,-0.24944 0.08546,-0.83825 0.09715,-1.40146 0.0117,-0.56322 0.01945,-1.10105 -0.20257,-1.51619 -0.222014,-0.41514 -0.674177,-0.7073 -1.028877,-0.96842 -0.354706,-0.26112 -0.611577,-0.49119 -0.75396,-0.6997 -0.142382,-0.2085 -0.169978,-0.3957 -0.170015,-0.57309 -4e-5,-0.17738 0.02745,-0.34508 0.115236,-0.4563 0.08779,-0.11122 0.235974,-0.16563 0.37052,-0.17725 0.03364,-0.003 0.06596,-0.003 0.09715,-0.002 z m -4.465876,8.46253 c 0.06597,0.003 0.124765,0.0197 0.167431,0.0481 0.08533,0.0566 0.107331,0.16121 0.118338,0.21342 0.01098,0.0522 0.0108,0.0524 0.09353,0.37776 0.08272,0.32537 0.248108,0.97552 0.214974,1.93735 -0.03313,0.96183 -0.264731,2.23544 -0.536919,3.33468 -0.272184,1.09924 -0.423478,1.54741 -0.714684,2.26291 -0.291203,0.7155 -0.468201,1.04747 -0.619601,1.24178 -0.1514,0.19432 -0.231381,0.16391 -0.409276,-0.45888 -0.177896,-0.62279 -0.453494,-1.83822 -0.501777,-2.8236 -0.04829,-0.98537 0.130908,-1.74074 0.347265,-2.30994 0.216353,-0.5692 0.469747,-0.95239 0.669724,-1.1343 0.199985,-0.18191 0.34626,-0.16256 0.441317,-0.1266 0.09506,0.036 0.138949,0.0887 0.158131,0.25683 0.01918,0.16811 0.01378,0.45158 -0.09508,0.74362 -0.108884,0.29205 -0.32094,0.59244 -0.407728,1.02526 -0.08678,0.43283 -0.04824,0.99787 -0.02066,1.3286 0.02758,0.33074 0.04404,0.42737 0.07855,0.46716 0.03451,0.0398 0.08658,0.023 0.187068,-0.21808 0.100489,-0.24105 0.249415,-0.7066 0.347266,-1.0635 0.09785,-0.35689 0.144844,-0.60498 0.162782,-1.00459 0.01797,-0.3996 0.0071,-0.95067 0.0016,-1.39578 -0.0055,-0.44511 -0.0058,-0.78441 -0.06769,-0.99115 -0.06186,-0.20675 -0.185703,-0.28098 -0.238231,-0.49868 -0.05253,-0.2177 -0.03345,-0.57846 0.04651,-0.80874 0.07996,-0.23027 0.220547,-0.32972 0.36535,-0.37516 0.07241,-0.0227 0.145902,-0.0319 0.211876,-0.0284 z" />
  </g>
</svg>
