<?xml version="1.0" encoding="UTF-8" standalone="no"?>
<!-- Created with Inkscape (http://www.inkscape.org/) -->

<svg
   width="81.078003mm"
   height="55.540001mm"
   viewBox="0 0 81.078003 55.540001"
   version="1.1"
   id="svg2544"
   xmlns="http://www.w3.org/2000/svg"
   xmlns:svg="http://www.w3.org/2000/svg">
  <defs
     id="defs2541" />
  <g
     id="layer1">
    <path
       id="path520"
       style="display:inline;fill:#000000;stroke-width:0.351896"
       d="M 47.829611,3.6973433e-5 C 47.362024,8.2997343e-4 46.871539,0.01209697 46.342365,0.03620697 c -2.116701,0.09644 -4.850514,0.394275 -6.732924,0.543119 -1.882407,0.148844 -2.913168,0.148992 -3.977018,0.121438 -1.063845,-0.02755 -2.160921,-0.08269 -3.395657,-0.190169 -1.234742,-0.107479 -2.607038,-0.267481 -3.706752,-0.311608 -1.099709,-0.04413 -1.926799,0.02757 -3.707267,0.471289 C 23.042284,1.11399 20.308328,1.929796 17.753411,2.778674 15.198494,3.627553 12.822665,4.509655 11.439069,5.058121 10.055473,5.606591 9.6642278,5.821089 9.4133528,6.162965 c -0.250878,0.341874 -0.36127,0.810742 -0.377754,1.364774 -0.01648,0.554032 0.06063,1.193474 0.196369,1.888773 0.135741,0.695296 0.330348,1.446146 0.484724,1.856219 0.154379,0.410067 0.268526,0.479427 0.5787762,0.482655 0.310256,0.0032 0.816684,-0.05937 2.109433,0.393258 1.292752,0.452623 3.513281,1.485911 5.052404,2.228805 1.539129,0.742895 2.680105,1.327407 3.810103,1.851049 1.130007,0.523645 2.249308,0.986719 4.145484,1.438672 1.896181,0.451959 4.569415,0.892831 7.286895,0.9617 2.71748,0.06887 5.479076,-0.234432 8.119401,-0.667142 2.640324,-0.432715 5.159375,-0.99459 6.515364,-1.31155 1.355984,-0.316955 1.548831,-0.389006 1.777669,-0.391705 0.228841,-0.0027 0.493112,0.06344 0.65009,0.204121 0.156966,0.140676 0.206745,0.356007 0.181901,0.532267 -0.02484,0.176263 -0.123968,0.313722 -0.697117,0.503846 -0.573145,0.190119 -1.620403,0.432697 -3.681944,0.810287 -2.061538,0.377581 -5.137327,0.890362 -7.714258,1.146699 -2.576933,0.256338 -4.655174,0.256304 -6.628537,0.190169 -1.973355,-0.06614 -3.8418,-0.198321 -5.500955,-0.564825 -1.659151,-0.366498 -3.10901,-0.967216 -4.387847,-1.540473 -1.278829,-0.573259 -2.386573,-1.119095 -3.351215,-1.493967 -0.964639,-0.374864 -1.785736,-0.578739 -2.40864,-0.686263 -0.622898,-0.107524 -1.047755,-0.118475 -1.910476,0.124024 -0.862722,0.242506 -2.163176,0.738441 -2.775025,1.058333 -0.611848,0.319894 -0.534897,0.463396 0.473872,1.483114 1.008771,1.019725 2.949202,2.915414 6.00842,4.473112 3.059218,1.5577 6.261671,2.492634 9.81697,3.413746 3.555307,0.921108 6.487949,1.544212 9.993707,2.864425 3.505758,1.32021 7.584514,3.337586 10.007139,4.539257 2.422631,1.201666 3.188671,1.587074 3.582729,1.799373 0.394057,0.212297 0.416427,0.251138 0.849042,-0.110072 0.43262,-0.361206 1.275678,-1.121698 2.52698,-1.984375 1.251294,-0.862671 2.91075,-1.827614 4.071067,-2.508371 1.160322,-0.68076 1.821601,-1.077283 3.442168,-2.113569 1.620568,-1.03628 4.20029,-2.712005 5.986198,-4.233333 1.785908,-1.52132 2.778302,-2.888382 3.33778,-3.695898 0.559485,-0.807511 0.6858,-1.055672 0.782383,-1.18804 0.09658,-0.132369 0.162886,-0.148789 0.179316,-0.06046 0.01643,0.08832 -0.01635,0.281003 -0.34985,0.986504 -0.333489,0.705501 -0.967558,1.923593 -1.700671,3.06183 -0.73311,1.138235 -1.565642,2.196608 -2.378665,3.075781 -0.813027,0.879168 -1.606454,1.579232 -2.436029,2.248959 -0.829567,0.669718 -1.694857,1.309139 -2.268077,1.67845 -0.573217,0.369306 -0.854496,0.468866 -2.072743,1.367356 -1.218242,0.898493 -3.373573,2.596026 -5.644616,4.682403 -2.271043,2.08638 -4.65792,4.56133 -5.859589,6.612 -1.201671,2.05067 -1.218044,3.67692 -0.986504,5.74952 0.231542,2.07261 0.711004,4.59137 1.363223,5.80533 0.652224,1.21395 0.953984,1.18077 2.515611,0.86248 1.561618,-0.31829 3.860403,-0.8642 6.156211,-1.56425 2.29581,-0.70005 4.588915,-1.55444 6.259049,-2.44739 1.67014,-0.89296 2.717073,-1.82415 3.345535,-2.32854 0.628457,-0.50439 0.837946,-0.58161 1.050065,-0.83509 0.212114,-0.25348 0.427532,-0.68333 0.581874,-0.98651 0.154342,-0.30317 0.247859,-0.47986 0.424265,-0.72243 0.176405,-0.24258 0.435274,-0.5512 1.209746,-1.32292 0.774467,-0.77172 2.064467,-2.00659 2.998782,-2.88303 0.934315,-0.87643 1.513258,-1.39439 2.130618,-1.94562 0.617369,-0.55122 1.273342,-1.13539 1.943034,-2.22673 0.669698,-1.091339 1.353225,-2.689959 1.860352,-4.390434 0.507135,-1.700469 0.837472,-3.502993 0.947748,-5.109765 0.110278,-1.60677 -4.2e-5,-3.017563 -0.272852,-4.420402 -0.272814,-1.402834 -0.707847,-2.797395 -1.396814,-4.167187 -0.688968,-1.369785 -1.63195,-2.714887 -2.433961,-3.767728 -0.80201,-1.052846 -1.462976,-1.81347 -2.885096,-3.050976 C 72.624501,11.945699 70.441347,10.231461 69.057772,9.131778 67.674203,8.032091 67.090288,7.54698 66.671355,7.298814 66.252419,7.050658 65.998856,7.039361 65.861069,7.031132 65.723281,7.022932 65.701234,7.017772 65.257488,6.576896 64.813739,6.13602 63.947996,5.259355 62.707772,4.256106 61.467554,3.252861 59.852844,2.123175 57.9153,1.417521 55.977765,0.71186597 53.717826,0.43068297 51.838152,0.23774597 50.428402,0.09303797 49.232377,-0.00215203 47.829611,3.6973433e-5 Z M 44.279959,3.763631 c 0.244065,5.29e-4 0.491125,0.0034 0.741555,0.0088 2.003439,0.0429 4.225079,0.245563 7.047632,0.756542 2.822554,0.51099 5.748129,1.210937 8.885762,2.910935 3.137641,1.699991 5.713029,4.030904 7.24917,5.515941 1.536155,1.485048 1.894846,1.999554 1.805059,2.895949 -0.08978,0.896382 -0.627499,2.174521 -1.243335,3.374988 -0.615834,1.200457 -1.309735,2.323155 -2.233456,3.332612 -0.923711,1.009449 -2.077374,1.905736 -3.133659,2.747635 -1.056275,0.841909 -2.015025,1.629084 -3.550687,2.595708 -1.535663,0.966621 -3.648501,2.112973 -5.464784,2.861323 -1.816274,0.748361 -3.336351,1.099164 -4.283458,1.278477 -0.947106,0.179303 -1.321144,0.186955 -2.64635,-0.68213 -1.325218,-0.869085 -3.601484,-2.615528 -5.639966,-3.905705 -2.038483,-1.290169 -3.839078,-2.124234 -5.483903,-2.794662 -1.644838,-0.670425 -3.133579,-1.177038 -4.154786,-1.473295 -1.021197,-0.296254 -1.57494,-0.38182 -1.923397,-0.474906 -0.348453,-0.09309 -0.491871,-0.193997 -0.503327,-0.399976 -0.01146,-0.205975 0.109805,-0.517009 0.198953,-0.669726 0.08915,-0.152728 0.145778,-0.146749 0.230479,-0.139526 0.0847,0.0072 0.197025,0.01572 0.298688,0.03101 0.101664,0.01529 0.192685,0.03711 1.378212,0.383955 1.185513,0.34684 3.465605,1.018448 5.521627,1.837614 2.05601,0.819168 3.887991,1.785858 5.427575,2.756421 1.539573,0.970563 2.787025,1.945082 3.819921,2.728515 1.032886,0.783434 1.851457,1.375847 2.307352,1.632974 0.455893,0.257128 0.54904,0.179237 1.730127,-0.171563 1.181094,-0.350814 3.449592,-0.974469 5.445146,-1.917714 1.995553,-0.943242 3.718467,-2.206053 5.675106,-3.722253 1.956641,-1.5162 4.147169,-3.285943 5.367115,-5.078759 1.219935,-1.792827 1.469165,-3.609197 1.438153,-4.591452 C 68.555473,14.409121 68.24362,14.261266 67.514714,13.598707 66.785819,12.936148 65.640205,11.7592 63.839488,10.500188 62.038763,9.241187 59.583138,7.900302 57.525143,7.046653 55.467156,6.193007 53.806753,5.826408 51.885179,5.491192 49.963595,5.155975 47.781169,4.852117 45.380149,4.828701 c -2.401017,-0.02341 -5.020384,0.233932 -6.376871,0.401524 -1.3565,0.1676 -1.450096,0.245499 -1.48518,0.48731 -0.03508,0.24181 -0.01143,0.647115 -0.175183,1.235583 -0.163743,0.588478 -0.514821,1.360225 -1.002007,2.042252 -0.487185,0.682035 -1.110726,1.274636 -1.726509,1.730645 -0.615794,0.456009 -1.224113,0.775711 -1.851567,0.94723 -0.627457,0.171521 -1.274332,0.194532 -1.742012,0.140041 -0.467693,-0.05449 -0.75583,-0.186759 -1.153419,-0.479039 C 29.469814,11.04197 28.962788,10.589943 28.666441,9.974122 28.370076,9.358302 28.284759,8.578726 28.662841,7.849706 29.040912,7.120676 29.882564,6.442281 30.84927,5.943362 31.815965,5.444442 32.907326,5.12468 34.361201,4.824566 35.815068,4.524449 37.631459,4.24406 39.432208,4.045286 41.00787,3.87136 42.571521,3.759999 44.279975,3.76365 Z M 28.12177,5.299971 c 0.0145,2.7e-5 0.02569,0.0013 0.03617,0.0036 0.08384,0.01826 0.11603,0.100555 0.129709,0.289388 0.01368,0.188833 0.0089,0.48436 -0.137459,0.705901 -0.146402,0.221541 -0.434662,0.369628 -0.828373,0.661974 -0.393713,0.292346 -0.892725,0.728514 -1.161688,1.23145 -0.268962,0.502939 -0.307662,1.072367 -0.412895,1.446422 -0.105225,0.374062 -0.276934,0.553331 -0.452168,0.611849 -0.175236,0.05852 -0.354279,-0.0041 -0.51418,-0.206706 -0.159901,-0.202568 -0.300395,-0.545299 -0.210839,-1.00924 0.08955,-0.463942 0.409316,-1.048652 0.631484,-1.434536 0.222176,-0.385893 0.346657,-0.573054 0.381889,-0.666629 0.03523,-0.09357 -0.01916,-0.09332 -1.663981,0.05478 -1.644827,0.1481 -4.879797,0.443878 -6.625952,0.52193 C 15.54734,7.588204 15.28989,7.447924 15.149433,7.292079 15.008977,7.136234 14.985468,6.964736 15.059513,6.804772 15.133563,6.64481 15.305107,6.497115 16.088909,6.467841 16.87271,6.438561 18.26844,6.527881 20.322758,6.366037 22.377075,6.2042 25.089883,5.791174 26.514111,5.561437 27.760317,5.36042 28.020143,5.299727 28.121764,5.299954 Z m 8.29872,0.298173 c -0.0385,-0.0029 -0.115766,0.01929 -1.066602,0.248046 -0.950838,0.228757 -2.775778,0.66416 -3.795633,1.041797 -1.019865,0.377637 -1.234374,0.697101 -1.410769,0.978236 -0.176384,0.281125 -0.314253,0.523711 -0.347265,0.799434 -0.03301,0.275722 0.03838,0.584462 0.11834,0.849042 0.07995,0.264591 0.168023,0.485008 0.405143,0.655775 0.23712,0.170768 0.62307,0.292362 1.080553,0.361217 0.457491,0.06885 0.986592,0.08531 1.457793,-0.02222 0.471202,-0.107518 0.884923,-0.339021 1.37821,-0.760677 0.493297,-0.421656 1.066628,-1.033441 1.430403,-1.672767 0.363786,-0.639315 0.517972,-1.3062 0.614434,-1.714106 0.09646,-0.407905 0.135197,-0.556768 0.154512,-0.644922 0.01929,-0.08815 0.01937,-0.115945 -0.01913,-0.118856 z m 12.953214,1.543058 c 0.241173,-0.0047 0.492244,-0.0021 0.761193,0.0067 1.075796,0.0351 2.432354,0.167399 3.632853,0.526066 1.20051,0.358666 2.245254,0.94353 3.317111,1.641244 1.071864,0.697715 2.171141,1.50808 2.665986,2.439644 0.494842,0.931566 0.385636,1.984087 0.286287,2.6386 -0.09935,0.654515 -0.188992,0.911074 -0.503843,1.363223 -0.314849,0.452149 -0.85511,1.100055 -1.573033,1.710489 -0.717915,0.610441 -1.613392,1.183563 -2.357477,1.536343 -0.744082,0.352771 -1.337085,0.485211 -1.681551,0.54725 -0.344467,0.06205 -0.440754,0.0538 -0.461471,0.106456 -0.02072,0.05266 0.03451,0.165724 0.06201,0.222207 0.0275,0.05648 0.0276,0.05658 0.347265,0.855763 0.319675,0.799174 0.958649,2.397292 1.239203,3.547071 0.280556,1.14977 0.202771,1.851218 0.120922,2.252575 -0.08185,0.401357 -0.167534,0.502795 -0.31161,0.553455 -0.144066,0.05066 -0.346615,0.05094 -0.490924,-0.120406 -0.144306,-0.171345 -0.2301,-0.514533 -0.479557,-1.551327 -0.249457,-1.036801 -0.662768,-2.767179 -0.990121,-3.839043 -0.327353,-1.071859 -0.569135,-1.485395 -0.709517,-1.812808 -0.140386,-0.327414 -0.179195,-0.568773 -0.109038,-0.756026 0.07016,-0.187256 0.249354,-0.319646 0.68988,-0.45217 0.440526,-0.132528 1.142344,-0.265041 1.921846,-0.502812 0.779508,-0.237768 1.636972,-0.581025 2.365748,-1.341003 0.728776,-0.759974 1.328918,-1.937018 1.488797,-2.977595 C 58.76454,12.694516 58.483937,11.78999 57.926669,11.11562 57.3694,10.441242 56.535259,9.997163 55.439998,9.576179 54.344745,9.155187 52.988184,8.757579 51.850039,8.543166 50.711883,8.328737 49.792078,8.297622 48.868306,8.313206 c -0.923763,0.01558 -1.851556,0.0779 -2.662369,0.331245 -0.810805,0.253342 -1.504289,0.697879 -1.95647,1.0604 -0.452183,0.36253 -0.662815,0.642879 -0.674378,0.892453 -0.01156,0.249573 0.175842,0.467892 0.468191,0.752409 0.292341,0.284517 0.68992,0.635487 1.321366,0.904338 0.631439,0.268851 1.496322,0.455763 2.318721,0.557072 0.822399,0.101312 1.602155,0.116843 2.303735,0.109037 0.70158,-0.0078 1.325346,-0.0388 1.652612,-0.190685 0.327265,-0.151892 0.358428,-0.424579 0.288356,-0.74414 -0.07007,-0.319567 -0.241681,-0.686208 -0.553456,-0.85008 -0.311774,-0.163873 -0.764156,-0.124643 -1.196827,-0.05839 -0.432667,0.06625 -0.845449,0.159404 -1.196308,0.299723 -0.350858,0.140319 -0.639556,0.327565 -0.873331,0.428916 -0.233775,0.101349 -0.412835,0.117062 -0.557072,0.03927 -0.144238,-0.07778 -0.253686,-0.249613 -0.195337,-0.499192 0.05835,-0.249581 0.284485,-0.576707 0.674378,-0.798917 0.389885,-0.222219 0.943599,-0.33904 1.446421,-0.424781 0.502823,-0.08574 0.954739,-0.140592 1.539441,-0.05478 0.584701,0.08581 1.301782,0.312211 1.72651,0.690396 0.424728,0.378188 0.557469,0.907873 0.588595,1.434021 0.03113,0.526147 -0.03904,1.04867 -0.561205,1.364257 -0.522166,0.315588 -1.496605,0.424823 -2.911452,0.366388 -1.414838,-0.05844 -3.270228,-0.284822 -4.575947,-0.651124 -1.305724,-0.366303 -2.061554,-0.872818 -2.517677,-1.340488 -0.456118,-0.467661 -0.612167,-0.896361 -0.362768,-1.45779 0.249397,-0.56143 0.904288,-1.255128 1.816426,-1.816429 0.912148,-0.561295 2.081109,-0.990044 3.06338,-1.235582 0.736703,-0.18415 1.368343,-0.265335 2.091862,-0.27957 z m -37.06337,5.611545 c -0.176506,0.0082 -0.308854,0.08544 -0.849045,0.405143 -0.54019,0.319701 -1.4885832,0.882086 -2.2851302,1.477428 -0.796552,0.595342 -1.441471,1.223894 -1.876888,1.601451 -0.435419,0.377561 -0.661225,0.503968 -0.845944,0.666629 -0.184722,0.16266 -0.328086,0.361286 -0.602031,0.587044 C 5.577352,17.716198 5.1727485,17.969367 4.5810899,18.084204 3.9894287,18.199044 3.4476097,18.18242 2.6127328,18.070763 1.7778587,17.959098 1.5813923,17.901554 1.1229038,17.704892 0.66441259,17.50823 0.52369659,17.400888 0.35447439,17.255307 c -0.1692248,-0.145582 -0.3057234,-0.282742 -0.3436487,-0.243912 -0.037923,0.03883 0.023072,0.253802 0.1943047,0.518314 0.171233,0.264509 0.4524719,0.578707 1.06711751,0.837676 0.6146429,0.258966 1.5625365,0.462878 2.3259547,0.57309 0.7634208,0.110215 1.3425355,0.12668 1.6402102,0.14056 0.2976748,0.01389 0.3141874,0.0249 0.2340954,0.14056 -0.080092,0.115673 -0.2565426,0.336283 -0.5844619,0.578776 -0.3279193,0.242496 -0.8074395,0.506748 -1.4081813,0.633555 -0.6007444,0.126807 -1.3231098,0.115885 -1.7916234,0.0801 -0.4685109,-0.03579 -0.6834928,-0.09661 -0.81855461,-0.129707 -0.1350619,-0.0331 -0.1901481,-0.0382 -0.1405599,0.05013 0.049588,0.08832 0.2042504,0.270002 0.56534051,0.473872 0.3610927,0.203872 0.9284758,0.429667 1.584399,0.542604 0.6559259,0.112935 1.4000136,0.113173 2.183847,0.01757 0.7838362,-0.09562 0.9889302,-0.143042 1.7285762,-0.911056 0.739648,-0.768011 1.395772,-2.113018 1.90841,-3.055628 0.512641,-0.942607 0.881645,-1.482717 1.6231582,-1.876888 0.741513,-0.394168 1.854846,-0.642162 2.604492,-0.818554 0.749649,-0.176388 1.135494,-0.281464 1.248503,-0.452168 0.113011,-0.170701 -0.04672,-0.407517 -0.300242,-0.666626 -0.253515,-0.259109 -0.600834,-0.540118 -0.8847,-0.711067 -0.283861,-0.170953 -0.504071,-0.231961 -0.680577,-0.223759 z m 63.658646,5.713862 c 0.08954,-0.01558 0.288353,0.183451 0.288353,0.183451 0,0 -1.37e-4,-2.61e-4 0.263033,0.541568 0.263173,0.541936 0.789136,1.625833 1.137915,2.871145 0.348784,1.245303 0.520668,2.652225 0.610298,3.950144 0.08963,1.297927 0.09744,2.486541 -0.153995,3.735689 -0.251434,1.249156 -0.76213,2.559074 -1.299662,3.781166 -0.537525,1.222086 -0.575271,1.297223 -1.269172,2.222087 -0.693902,0.924856 -1.517235,1.639882 -2.574004,2.486664 -1.056765,0.8468 -2.346804,1.82543 -3.321244,2.61276 -0.974439,0.78735 -1.632886,1.38345 -2.194181,2.00712 -0.561295,0.62366 -1.025239,1.27443 -1.348756,1.89032 -0.323519,0.6159 -0.506685,1.1968 -0.670243,1.49293 -0.163557,0.29614 -0.307633,0.30803 -1.085204,0.18139 -0.777568,-0.12664 -2.188729,-0.39178 -3.632853,-0.48731 -1.444131,-0.0955 -2.921355,-0.0216 -3.964099,0.24339 -1.042752,0.26504 -1.650947,0.72104 -2.194698,1.21802 -0.543761,0.49698 -1.022892,1.03516 -1.324985,1.44642 -0.302091,0.41126 -0.427072,0.69538 -0.555522,0.82786 -0.12845,0.13248 -0.260514,0.11294 -0.432014,0.0253 -0.171498,-0.0876 -0.382014,-0.24354 -0.421164,-0.45992 -0.03915,-0.21638 0.09307,-0.49297 0.358119,-0.92759 0.265054,-0.43462 0.662588,-1.027 1.594217,-1.7384 0.931627,-0.71139 2.39734,-1.54153 4.172874,-1.79679 1.775529,-0.25525 3.860525,0.0643 5.023982,0.23771 1.163447,0.17345 1.405178,0.20078 1.531689,0.18139 0.12651,-0.0194 0.138287,-0.0858 0.313677,-0.47956 0.175381,-0.39372 0.514387,-1.11478 1.089337,-1.81642 0.574955,-0.70166 1.385705,-1.38333 2.506308,-2.28565 1.120605,-0.90232 2.551118,-2.02501 3.74964,-3.069584 1.198528,-1.044567 2.165176,-2.011468 2.870626,-3.061827 0.705459,-1.050366 1.14984,-2.184326 1.508438,-3.41013 0.358587,-1.225793 0.631401,-2.543307 0.545703,-4.260204 -0.0857,-1.716889 -0.530421,-3.833267 -0.890903,-5.135086 -0.360479,-1.301827 -0.637029,-1.788835 -0.789098,-2.100646 -0.15207,-0.31182 -0.179488,-0.448271 -0.14056,-0.590664 0.03893,-0.142394 0.144412,-0.290647 0.286803,-0.380339 0.142391,-0.08969 0.321805,-0.12084 0.411345,-0.136424 z m -26.453166,2.548165 c 0.168111,0.01455 0.363101,0.17503 0.588079,0.983401 0.257109,0.923864 0.553207,2.693532 0.736388,3.905705 0.183177,1.212178 0.253254,1.866722 0.202571,2.275832 -0.05068,0.409104 -0.221761,0.57277 -0.373621,0.611849 -0.15186,0.03908 -0.284515,-0.04629 -0.68988,-0.315228 -0.405368,-0.268941 -1.083807,-0.721436 -1.878954,-1.360641 -0.79515,-0.639204 -1.706817,-1.465537 -2.728,-2.097029 -1.021173,-0.631491 -2.151788,-1.0679 -3.208073,-1.430403 -1.056275,-0.362503 -2.038363,-0.650939 -2.563667,-0.875917 -0.525301,-0.22498 -0.593489,-0.386627 -0.632518,-0.550352 -0.03904,-0.163724 -0.04859,-0.329215 0.02842,-0.460438 0.07701,-0.131223 0.240358,-0.227682 0.345716,-0.265099 0.105357,-0.03742 0.152109,-0.01627 1.083654,0.277503 0.931545,0.293764 2.748168,0.860218 3.940844,1.369425 1.192683,0.509204 1.761754,0.96085 2.52181,1.568897 0.760058,0.608039 1.710901,1.37246 2.201934,1.789554 0.491035,0.417105 0.522322,0.487169 0.561205,0.43253 0.03889,-0.05464 0.08529,-0.234328 -0.02376,-0.93586 -0.10908,-0.701524 -0.374115,-1.925225 -0.510564,-2.790526 -0.136451,-0.865309 -0.144073,-1.371653 -0.0739,-1.683618 0.07017,-0.311965 0.218191,-0.429133 0.401527,-0.448553 0.02291,-0.0024 0.04677,-0.0031 0.0708,-0.0011 z" />
  </g>
</svg>
