<?xml version="1.0" encoding="UTF-8" standalone="no"?>
<!-- Created with Inkscape (http://www.inkscape.org/) -->

<svg
   width="46.159mm"
   height="79.350998mm"
   viewBox="0 0 46.159 79.350998"
   version="1.1"
   id="svg2695"
   xmlns="http://www.w3.org/2000/svg"
   xmlns:svg="http://www.w3.org/2000/svg">
  <defs
     id="defs2692" />
  <g
     id="layer1">
    <path
       id="path1515"
       style="display:inline;fill:#000000;stroke-width:0.351896"
       d="m 3.7101747,0.00245519 c -0.08552,0.0084 -0.07972,0.02498 -0.06873,0.09663 0.01098,0.07165 0.02729,0.198778 0.250631,0.540535 0.223341,0.34176 0.653267,0.89847001 0.93431,1.46347701 0.281043,0.56501 0.413409,1.138076 0.620117,2.053106 0.206709,0.915029 0.488009,2.171615 0.67541,3.086631 0.187405,0.91502 0.281162,1.488319 0.314193,1.86862 0.03303,0.380302 0.0053,0.567857 -0.03049,0.686263 -0.03582,0.118409 -0.08007,0.168124 -0.322461,0.181901 -0.242393,0.01378 -0.683167,-0.0085 -1.48518,-0.162779 -0.802013,-0.154311 -1.965087,-0.440976 -2.587956,-0.595313 -0.622871,-0.154337 -0.705458,-0.176162 -0.719336,-0.112654 -0.01389,0.06351 0.04095,0.212227 0.468188,0.868164 0.427236,0.6559358 1.22686,1.8191738 1.673284,2.5771018 0.44642,0.757928 0.539736,1.110406 0.553455,1.452108 0.01371,0.341704 -0.05236,0.672367 -0.09922,0.862481 -0.04686,0.190113 -0.07425,0.240051 0.259414,0.532267 0.333663,0.292217 1.028332,0.826625 1.378211,1.160135 0.34988,0.333512 0.355399,0.465677 0.08526,1.093991 -0.270132,0.628314 -0.816197,1.752756 -0.978749,2.943489 -0.162555,1.190734 0.05836,2.447724 0.339513,3.533635 0.281157,1.085911 0.622671,2.000909 0.920356,2.687175 0.297688,0.686263 0.551455,1.143949 0.700217,1.527037 0.148762,0.38309 0.192447,0.691729 0.140044,0.945163 -0.05241,0.253434 -0.200972,0.451691 -0.37724,0.567407 -0.176266,0.115715 -0.380363,0.148635 -0.677995,0.159681 -0.29763,0.01103 -0.688853,-5.8e-5 -0.909505,0.04961 -0.22065,0.04967 -0.270436,0.1602 -0.466119,0.548801 -0.195686,0.388604 -0.537105,1.055269 -1.022163,1.741498 -0.485055,0.686226 -1.113456,1.392166 -1.711523,2.020546 -0.59806398,0.628383 -1.16603498,1.179269 -1.41128198,1.590085 -0.245248,0.410816 -0.16813,0.680913 0.01654,1.270722 0.184666,0.589812 0.476838,1.499484 0.677995,2.552301 0.20115798,1.052817 0.31157298,2.249104 0.56792298,3.561022 0.256352,1.31192 0.658765,2.739207 1.882574,4.412133 1.223809,1.672929 3.268795,3.591311 4.299479,4.578017 1.030682,0.986705 1.046834,1.041984 1.066086,1.361672 0.01926,0.319691 0.0416,0.903976 0.184999,1.430406 0.143404,0.52644 0.407715,0.9946 0.647507,1.39423 0.239792,0.39963 0.455102,0.73054 0.7307053,0.85163 0.275603,0.12109 0.611452,0.0328 0.801502,-0.0636 0.19005,-0.0964 0.234588,-0.20108 0.259413,-0.31678 0.02482,-0.11569 0.03004,-0.24257 0.16795,-0.0827 0.137906,0.15989 0.4079,0.60632 0.917773,1.51308 0.509874,0.90677 1.259891,2.27376 1.871721,3.54707 0.611833,1.27333 1.085903,2.4529 1.620573,4.0101 0.53467,1.5572 1.12977,3.49211 1.8216,5.12372 0.69182,1.6316 1.47998,2.96002 2.35644,4.2664 0.87646,1.30638 1.84121,2.5909 2.3456,3.2551 0.50438,0.6642 0.54827,0.70803 0.57567,0.71623 0.0274,0.008 0.0384,-0.0194 0.52349,-0.64233 0.48509,-0.62294 1.44418,-1.84125 2.36471,-3.2551 0.92052,-1.41385 1.80247,-3.02309 2.43913,-4.37906 0.63665,-1.35597 1.02818,-2.45825 1.37821,-3.51658 0.35002,-1.05834 0.65887,-2.07289 1.04748,-3.14503 0.38861,-1.07214 0.85696,-2.2019 1.30896,-3.14451 0.452,-0.94261 0.88762,-1.6979 1.29553,-2.3704 0.4079,-0.6725 0.78807,-1.26229 1.01131,-1.6123 0.22324,-0.35002 0.28955,-0.46016 0.35863,-0.49041 0.0691,-0.0303 0.14065,0.0192 0.23151,0.1819 0.0909,0.16266 0.20087,0.43823 0.43512,0.47387 0.23425,0.0356 0.59245,-0.16819 0.96997,-0.66973 0.37751,-0.50153 0.77476,-1.3006 0.96221,-1.973 0.18744,-0.67241 0.16502,-1.21805 0.19534,-1.529628 0.0303,-0.311579 0.11298,-0.388769 0.96738,-1.237652 0.85439,-0.848882 2.48083,-2.469648 3.63285,-3.866947 1.15202,-1.397299 1.83003,-2.571475 2.27376,-3.943945 0.44374,-1.37247 0.65302,-2.94349 0.78807,-4.010091 0.13505,-1.066602 0.19587,-1.628778 0.38602,-2.257227 0.19016,-0.628449 0.50952,-1.32258 0.5979,-1.700154 0.0884,-0.377574 -0.0546,-0.438282 -0.54519,-0.967383 -0.49063,-0.5291 -1.32857,-1.527042 -2.0314,-2.46135 -0.70282,-0.934304 -1.27075,-1.804857 -1.56011,-2.245857 -0.28936,-0.440997 -0.30039,-0.452022 -0.51263,-0.443899 -0.21224,0.0081 -0.62549,0.03538 -1.04438,-0.07752 -0.4189,-0.112901 -0.84335,-0.366337 -0.85731,-0.879018 -0.014,-0.512677 0.38309,-1.284329 0.92604,-2.521809 0.54295,-1.237478 1.23189,-2.940638 1.31465,-4.541841 0.0828,-1.601202 -0.44118,-3.100752 -0.76636,-3.957899 -0.32518,-0.857144 -0.45194,-1.072107 -0.46302,-1.212845 -0.0111,-0.140737 0.0936,-0.206716 0.45733,-0.520898 0.36378,-0.314182 0.98707,-0.876573 1.2821,-1.174089 0.29502,-0.297516 0.26163,-0.330509 0.13487,-0.407728 -0.12675,-0.07722 -0.34726,-0.198226 -0.39429,-0.382921 -0.047,-0.184695 0.0801,-0.432993 0.60099,-1.044897 0.52094,-0.611905 1.43575,-1.5875 1.97043,-2.158008 0.53468,-0.570508 0.68884,-0.735833 0.76326,-0.887286 0.0744,-0.15145 0.0689,-0.289438 -0.49041,-0.4273628 -0.55935,-0.137924 -1.6724,-0.275412 -2.56264,-0.333314 -0.89023,-0.0579 -1.55721,-0.03608 -1.91822,-0.03876 -0.36102,-0.0027 -0.41618,-0.03001 -0.4191,-0.468188 -0.003,-0.438182 0.0465,-1.287378 0.25322,-2.252059 0.20669,-0.964682 0.57045,-2.044909 0.73587,-2.673223 0.16542,-0.628312 0.13217,-0.804842 0.29197,-1.254186 0.1598,-0.449345 0.51278,-1.171115 0.81597,-1.681036 0.30319,-0.50991801 0.55672,-0.80752101 0.69453,-0.96738201 0.13781,-0.159859 0.15978,-0.182052 -0.62012,0.01085 -0.77989,0.192906 -2.36154,0.600644 -4.08967,1.34203901 -1.72812,0.741391 -3.60246,1.816166 -4.91443,3.059244 -1.31197,1.243076 -2.06172,2.654382 -2.44739,3.351731 -0.38568,0.697352 -0.40772,0.680993 -1.25936,0.410829 -0.85163,-0.270163 -2.53245,-0.794046 -3.90777,-1.061434 -1.37531,-0.267388 -2.44494,-0.278347 -3.68246,-0.165364 -1.23752,0.112982 -2.64302,0.3502 -3.62976,0.609264 -0.98673,0.259066 -1.55442,0.539845 -1.84381,0.683164 -0.28939,0.143317 -0.30044,0.149172 -0.62839,-0.404627 -0.32794,-0.553799 -0.972934,-1.667372 -2.124935,-2.860807 -1.151998,-1.193438 -2.811192,-2.466621 -4.4813803,-3.356901 -1.670185,-0.890283 -3.351017,-1.39745501 -4.279842,-1.65106401 -0.928825,-0.253605 -1.105622,-0.253886 -1.191141,-0.245462 z M 39.771539,2.2028382 c 0.10818,0.0016 0.13764,0.137475 0.0403,1.199925 -0.11124,1.214231 -0.38775,3.638389 -0.56121,4.912879 -0.17346,1.274492 -0.24355,1.399529 -0.44803,1.47743 -0.20449,0.0779 -0.54363,0.109011 -0.75603,0.09353 -0.2124,-0.01548 -0.29796,-0.07781 -0.33124,-0.465603 -0.0333,-0.3878 -0.0142,-1.101119 0.10851,-1.985925 0.12277,-0.884812 0.34914,-1.941306 0.45062,-2.483054 0.10149,-0.541745 0.0779,-0.568841 -0.41134,-0.194821 -0.48927,0.374023 -1.44403,1.149417 -2.2996,1.969908 -0.85558,0.820486 -1.61196,1.686113 -2.24534,2.477368 -0.63339,0.791249 -1.14366,1.5081638 -1.4087,1.8784378 -0.26504,0.370271 -0.28451,0.393782 -0.49093,0.259414 -0.20642,-0.134364 -0.60044,-0.426953 -0.81287,-0.575157 -0.21243,-0.148204 -0.24341,-0.151974 -0.21239,-0.212392 0.031,-0.06041 0.12467,-0.177307 0.33125,-0.442348 0.20657,-0.2650418 0.52586,-0.6783288 1.20406,-1.5358248 0.6782,-0.857496 1.71513,-2.158915 2.96829,-3.273702 1.25316,-1.114785 2.72246,-2.042462 3.57808,-2.531629 0.85562,-0.489164 1.09724,-0.539909 1.2454,-0.563271 0.0185,-0.003 0.0357,-0.0054 0.0512,-0.0052 z m -33.2465493,0.06563 c 0.07444,-0.01103 0.210063,0.03683 0.465087,0.153996 0.510059,0.234333 1.496727,0.747035 2.362132,1.287261 0.8654043,0.540229 1.6093963,1.107731 2.4045043,1.891874 0.79511,0.784143 1.641414,1.784715 2.329055,2.626712 0.68765,0.842002 1.216501,1.525651 1.497581,1.8991108 0.28109,0.373459 0.31414,0.43643 0.32091,0.487306 0.007,0.05088 -0.0121,0.08964 -0.19533,0.243915 -0.18324,0.15427 -0.53079,0.424267 -0.71262,0.545703 -0.181828,0.121438 -0.198092,0.09424 -0.530202,-0.425297 -0.332102,-0.519533 -0.97998,-1.5309528 -1.903243,-2.5838228 -0.923261,-1.052864 -2.122014,-2.147477 -2.9336713,-2.840654 -0.811649,-0.693174 -1.235906,-0.98502 -1.461926,-1.131197 -0.226018,-0.146177 -0.253982,-0.14606 -0.198954,0.12971 0.05503,0.27577 0.19294,0.82682 0.338998,1.628841 0.146055,0.802021 0.300611,1.855036 0.369485,2.527493 0.06887,0.672462 0.05237,0.964205 0.03049,1.107427 -0.02188,0.143224 -0.04961,0.13762 -0.297657,0.06873 -0.248046,-0.06889 -0.716571,-0.200686 -0.948264,-0.272335 -0.231682,-0.07165 -0.226369,-0.08293 -0.22634,-0.518316 2.6e-5,-0.435383 -0.0055,-1.295194 -0.14056,-2.268077 -0.135012,-0.972886 -0.399632,-2.058617 -0.537435,-2.623614 -0.137813,-0.564991 -0.148608,-0.609063 -0.151413,-0.843359 -0.0028,-0.234297 0.003,-0.659106 0.02223,-0.893485 0.0097,-0.117187 0.02273,-0.186888 0.09715,-0.197922 z m 19.0846193,6.285924 c 0.21711,0.0047 0.44682,0.03571 0.66973,0.110069 0.35666,0.118983 0.69564,0.349059 1.09709,0.668695 0.40145,0.319629 0.8654,0.7291328 1.14205,1.0702178 0.27665,0.341082 0.3662,0.613481 0.38758,0.782897 0.0213,0.169418 -0.0254,0.23586 -0.29818,0.434599 -0.27279,0.198739 -0.77169,0.530252 -1.3348,0.676444 -0.56311,0.146196 -1.19037,0.107083 -1.69705,-0.01757 -0.50669,-0.12465 -0.89282,-0.335293 -1.14619,-0.495059 -0.25337,-0.159766 -0.37394,-0.268999 -0.54932,-0.368454 -0.17537,-0.09945 -0.40523,-0.188796 -0.7307,-0.395324 -0.32548,-0.206529 -0.74682,-0.529939 -1.09761,-0.722953 -0.35079,-0.193013 -0.631,-0.255582 -0.93896,-0.261482 -0.30797,-0.0059 -0.64356,0.04493 -0.93793,0.163814 -0.29436,0.11888 -0.54744,0.30608 -0.71313,0.454236 -0.1657,0.148154 -0.24374,0.257046 -0.21239,0.364318 0.0314,0.107273 0.17189,0.212654 0.43304,0.335381 0.26116,0.122724 0.64313,0.263123 1.0387,0.305924 0.39557,0.0428 0.80481,-0.01212 1.13223,-0.04134 0.32743,-0.02922 0.5729,-0.03294 0.80874,0.03927 0.23583,0.07221 0.46178,0.22007 0.54932,0.319363 0.0875,0.09929 0.0366,0.150064 -0.0842,0.315743 -0.12085,0.165674 -0.3115,0.446397 -0.72451,0.580843 -0.413,0.13444 -1.04815,0.122856 -1.75751,-0.02326 -0.70936,-0.146111 -1.49288,-0.427067 -2.07171,-0.744659 -0.57883,-0.31759 -0.95313,-0.672053 -1.10329,-0.874882 -0.15017,-0.202827 -0.0763,-0.253495 0.16536,-0.530199 0.24162,-0.276706 0.65081,-0.7795198 1.1498,-1.1420498 0.49899,-0.362529 1.08786,-0.584652 1.70377,-0.672309 0.61591,-0.08766 1.25865,-0.04071 1.88619,0.175699 0.62755,0.216411 1.23963,0.602232 1.78336,0.9549798 0.54373,0.352747 1.01942,0.672435 1.29811,0.843878 0.27869,0.17145 0.36063,0.194815 0.56327,0.184999 0.20264,-0.0098 0.526,-0.05269 0.71882,-0.103352 0.19283,-0.05066 0.25518,-0.10913 0.0858,-0.245464 -0.1694,-0.136329 -0.57068,-0.350769 -0.90588,-0.502812 -0.33521,-0.15204 -0.6042,-0.2419898 -0.8537,-0.4387318 -0.2495,-0.196739 -0.47948,-0.500533 -0.58291,-0.685747 -0.10343,-0.185208 -0.0802,-0.251682 0.0563,-0.321942 0.13653,-0.07026 0.38577,-0.144151 0.69763,-0.17725 0.11695,-0.01241 0.24284,-0.01934 0.3731,-0.01654 z m 16.25276,2.4442938 c 0.33623,-0.0058 0.57517,-0.0037 0.73639,5.3e-4 0.32243,0.0084 0.33325,0.02495 0.24494,0.14056 -0.0883,0.115617 -0.27577,0.330715 -0.88211,1.033528 -0.60635,0.702813 -1.63124,1.893337 -2.17145,2.604492 -0.5402,0.711155 -0.59536,0.943036 -0.59531,1.215946 5e-5,0.27291 0.0553,0.587026 0.32815,1.422135 0.27288,0.835113 0.76333,2.190777 0.97823,3.171899 0.21491,0.981128 0.15401,1.587683 0.0631,2.205035 -0.091,0.617352 -0.21187,1.245463 -0.47646,1.882056 -0.26459,0.636592 -0.67266,1.281594 -1.39475,2.166276 -0.72208,0.884682 -1.75851,2.009346 -3.10058,2.477883 -1.34207,0.468543 -2.99018,0.281244 -4.35994,-0.05219 -1.36977,-0.333436 -2.4608,-0.813274 -3.37861,-1.43609 -0.9178,-0.622811 -1.66206,-1.389068 -2.28771,-2.10013 -0.62565,-0.711057 -1.13296,-1.366748 -1.25988,-1.978689 -0.12691,-0.611942 0.12695,-1.179912 0.50178,-1.846916 0.37484,-0.667004 0.87086,-1.4331 1.68672,-2.191081 0.81586,-0.757981 1.95127,-1.507392 2.87734,-2.036569 0.92609,-0.529172 1.64272,-0.837875 2.56884,-0.992188 0.92612,-0.15431 2.06137,-0.154463 2.67322,-0.115755 0.61186,0.03871 0.6999,0.115721 1.07746,0.636654 0.37755,0.520938 1.0448,1.485868 1.41955,2.161108 0.37475,0.675244 0.45739,1.060969 0.42426,1.581817 -0.0331,0.520848 -0.1819,1.176912 -0.45475,1.777669 -0.27285,0.600755 -0.66979,1.146059 -1.32292,1.628326 -0.65312,0.482264 -1.5626,0.901194 -2.35903,1.074869 -0.79642,0.17367 -1.47984,0.102272 -2.28461,-0.120925 -0.80477,-0.223192 -1.73092,-0.598329 -2.24638,-0.873847 -0.51545,-0.275519 -0.62034,-0.45176 -0.67954,-0.544153 -0.0592,-0.09239 -0.0729,-0.100676 0.0827,-0.266134 0.15557,-0.165457 0.48077,-0.487952 0.64337,-0.644921 0.16261,-0.15697 0.16296,-0.148434 0.67438,0.127124 0.51142,0.275558 1.5336,0.81829 2.34663,1.02526 0.81303,0.206968 1.41686,0.07821 2.02313,-0.19327 0.60627,-0.271476 1.21535,-0.68548 1.61902,-1.268656 0.40367,-0.583176 0.60212,-1.335556 0.61598,-1.928048 0.0139,-0.592492 -0.15729,-1.025249 -0.42323,-1.529622 -0.26592,-0.504373 -0.62702,-1.080564 -1.14928,-1.342554 -0.52226,-0.26199 -1.20558,-0.209621 -1.90428,-0.100769 -0.69869,0.108855 -1.41257,0.274561 -1.99006,0.532267 -0.57747,0.257705 -1.01852,0.607703 -1.75441,1.236099 -0.73589,0.628402 -1.76644,1.534872 -2.36316,2.235007 -0.59673,0.700135 -0.75938,1.193303 -0.81029,1.537891 -0.0509,0.344588 0.01,0.540393 0.28525,0.865579 0.27571,0.325191 0.76669,0.779817 1.40199,1.275892 0.63529,0.496075 1.41505,1.033724 2.35902,1.564246 0.94398,0.530521 2.05213,1.053954 3.04013,1.212329 0.98799,0.158374 1.85593,-0.04788 2.82463,-0.517798 0.96871,-0.469916 2.03817,-1.203132 2.72438,-2.224154 0.68622,-1.021021 0.98938,-2.330315 1.05007,-3.356901 0.0607,-1.026586 -0.12145,-1.770771 -0.36122,-2.629296 -0.23977,-0.858526 -0.53756,-1.831041 -0.69194,-2.663405 -0.15439,-0.83236 -0.16501,-1.52433 0.13539,-2.260327 0.3004,-0.735992 0.91219,-1.515983 1.21542,-1.914094 0.30324,-0.39811 0.29744,-0.414618 -0.3116,-0.334864 -0.60905,0.07976 -1.82134,0.256331 -3.68298,0.664559 -1.86164,0.408231 -4.37248,1.048316 -6.1774,1.785421 -1.80492,0.737106 -2.90406,1.57075 -3.68143,2.250509 -0.77738,0.67976 -1.23286,1.205143 -1.49914,1.48363 -0.26627,0.278495 -0.34316,0.310221 -0.42168,0.261482 -0.0785,-0.04874 -0.1585,-0.178292 -0.23357,-0.241845 -0.0751,-0.06357 -0.14571,-0.06063 -0.19327,-0.05788 -0.0476,0.0028 -0.0721,0.0057 -0.13074,0.06356 -0.0587,0.0579 -0.15094,0.170912 -0.21498,0.239778 -0.064,0.06887 -0.10017,0.09338 -0.39016,-0.199985 -0.28998,-0.29337 -0.83407,-0.905341 -1.64021,-1.620573 -0.80613,-0.715238 -1.87429,-1.533509 -3.50521,-2.226739 -1.63092,-0.693229 -3.824725,-1.260885 -5.686471,-1.657781 -1.861749,-0.396891 -3.3913293,-0.623186 -4.1878603,-0.734838 -0.796525,-0.111651 -0.859565,-0.108656 -0.608748,0.160198 0.250818,0.268853 0.815385,0.803539 1.161172,1.365808 0.345781,0.562268 0.472538,1.151726 0.506944,1.737362 0.03441,0.585632 -0.02307,1.167567 -0.220141,1.983341 -0.197077,0.815771 -0.533654,1.865831 -0.747241,2.699575 -0.213588,0.83375 -0.304443,1.450851 -0.263033,2.028301 0.04141,0.577451 0.215286,1.114828 0.478522,1.736329 0.263237,0.621501 0.615744,1.327089 1.015442,1.860351 0.399704,0.533263 0.846267,0.894554 1.6138553,1.341004 0.767594,0.44645 1.856301,0.97817 2.811198,1.088305 0.954903,0.110135 1.776141,-0.201533 2.867521,-0.75551 1.09139,-0.553974 2.45262,-1.350174 3.37034,-2.072224 0.91772,-0.722051 1.39173,-1.369732 1.55443,-1.850533 0.1627,-0.480801 0.0143,-0.79511 -0.30128,-1.265039 -0.31553,-0.469929 -0.7979,-1.095674 -1.4428,-1.725478 -0.6449,-0.629798 -1.45228,-1.263279 -2.22674,-1.774568 -0.77445,-0.511284 -1.51597,-0.899941 -2.31252,-1.072285 -0.796544,-0.172344 -1.648365,-0.128325 -2.123898,-0.06356 -0.475538,0.06477 -0.574612,0.150166 -0.868167,0.533302 -0.29355,0.383135 -0.78155,1.064064 -0.997871,1.706356 -0.216323,0.642289 -0.161144,1.245558 0.02635,1.800923 0.1875,0.555366 0.507225,1.062371 0.93586,1.449523 0.428636,0.387157 0.966192,0.654468 1.481564,0.80047 0.515368,0.14604 1.008578,0.171246 1.507402,0.143658 0.49883,-0.02759 1.00327,-0.10782 1.46761,-0.263549 0.46434,-0.155728 0.88891,-0.387299 1.14102,-0.57464 0.25211,-0.187346 0.33185,-0.330661 0.39532,-0.413412 0.0635,-0.08275 0.11048,-0.104748 0.13385,-0.115755 0.0234,-0.01101 0.0233,-0.01064 0.17776,0.149344 0.15447,0.159986 0.463,0.479237 0.61443,0.658358 0.15144,0.17912 0.14587,0.218027 -0.0222,0.361217 -0.16809,0.14319 -0.4989,0.391199 -1.05833,0.672311 -0.55945,0.281112 -1.34745,0.59545 -2.05569,0.733288 -0.70825,0.13784 -1.336714,0.09901 -2.04226,-0.03876 -0.705541,-0.137766 -1.488054,-0.374576 -2.177127,-0.906405 -0.689073,-0.531828 -1.284398,-1.358722 -1.584917,-2.207617 -0.3005173,-0.848897 -0.3059013,-1.719866 -0.07441,-2.568837 0.231489,-0.848966 0.699963,-1.675794 1.190625,-2.2133 0.490667,-0.537507 1.003294,-0.785686 1.742014,-0.898652 0.738716,-0.112969 1.703226,-0.091 2.554885,0.04134 0.85165,0.132342 1.59043,0.375097 2.47788,0.92914 0.88745,0.554048 1.92342,1.419347 2.84117,2.364713 0.91775,0.945372 1.71718,1.970471 2.05879,2.722833 0.34162,0.752361 0.22583,1.232006 0.0935,1.620573 -0.13229,0.388567 -0.28132,0.686495 -1.02267,1.336868 -0.74135,0.650375 -2.075,1.653307 -3.37861,2.469102 -1.3036,0.81579 -2.57719,1.444458 -3.858675,1.565794 -1.281483,0.121337 -2.571237,-0.264806 -3.491778,-0.642337 C 10.24505,28.596809 9.693876,28.227589 8.974505,27.566157 8.25514,26.904727 7.368006,25.951278 6.880061,24.719304 6.392114,23.487324 6.303899,21.977077 6.460964,20.651335 6.618031,19.325587 7.020441,18.184617 7.262982,17.344043 7.505528,16.503467 7.587911,15.963212 7.447468,15.425814 7.307025,14.888416 6.943262,14.35355 6.345209,13.634191 5.74716,12.914836 4.915019,12.011014 4.490543,11.543879 4.06608,11.076749 4.049178,11.046568 4.082299,11.031249 c 0.03312,-0.01532 0.116086,-0.01569 0.805119,-0.0047 0.689033,0.01103 1.984512,0.03321 3.70985,0.257866 1.725342,0.224647 3.880241,0.651677 5.547466,1.087787 1.667225,0.43611 2.846385,0.881263 3.938775,1.341522 1.09239,0.460253 2.09821,0.935574 2.99465,1.570963 0.89644,0.635384 1.68358,1.430883 2.10013,1.856732 0.41655,0.425853 0.46247,0.482262 0.48731,0.509014 0.0248,0.02675 0.029,0.02392 0.17777,-0.140044 0.1488,-0.16396 0.4425,-0.489358 0.98753,-1.01854 0.54504,-0.529188 1.34144,-1.262261 2.54455,-1.926498 1.20311,-0.664241 2.81256,-1.259353 4.36976,-1.788522 1.55721,-0.529169 3.06195,-0.992378 4.59713,-1.278991 1.53519,-0.286617 3.10058,-0.396541 4.20026,-0.451654 0.54985,-0.02756 0.98358,-0.04169 1.31982,-0.04754 z m -27.726473,8.33024 c 0.01148,0 0.02207,0.0013 0.031,0.0036 0.03577,0.0098 0.04421,0.04289 0.121441,0.166915 0.07723,0.124023 0.223184,0.338912 0.48369,0.519348 0.260512,0.180435 0.635302,0.326136 1.045932,0.404627 0.41064,0.07849 0.85725,0.0896 1.09141,0.171051 0.23416,0.08145 0.25591,0.23305 0.31936,0.414959 0.0634,0.181914 0.1684,0.394044 0.20826,0.527619 0.0399,0.133569 0.0152,0.188695 -0.16795,0.238228 -0.18314,0.04954 -0.52507,0.09366 -1.01286,0.05374 -0.48779,-0.03992 -1.12154,-0.163719 -1.656234,-0.381373 -0.534683,-0.217649 -0.97024,-0.528868 -1.225248,-0.753441 -0.255006,-0.224573 -0.329756,-0.362482 -0.360183,-0.443902 -0.03043,-0.08142 -0.01624,-0.106397 0.156062,-0.247012 0.172297,-0.140616 0.50283,-0.396888 0.668176,-0.525034 0.165346,-0.128151 0.165611,-0.127968 0.197403,-0.134874 0.02384,-0.0052 0.06533,-0.01442 0.09974,-0.01447 z m 18.762163,0.02222 c 0.0188,0 0.0342,0.0054 0.0444,0.0088 0.0205,0.0068 0.0205,0.0068 0.1695,0.148828 0.14896,0.142068 0.44655,0.425784 0.60358,0.587044 0.15703,0.161261 0.17352,0.200158 0.0398,0.336413 -0.13373,0.136258 -0.4174,0.370361 -0.78806,0.612883 -0.37067,0.242523 -0.82827,0.493499 -1.23197,0.638204 -0.4037,0.144706 -0.75364,0.183097 -1.09813,0.192752 -0.34448,0.0097 -0.68353,-0.0096 -0.85317,-0.02739 -0.16965,-0.01778 -0.16968,-0.03444 -0.15865,-0.26045 0.011,-0.226008 0.0333,-0.661189 0.0651,-0.874882 0.0319,-0.213736 0.0731,-0.205799 0.37621,-0.211355 0.30314,-0.0056 0.86827,-0.02479 1.34772,-0.181901 0.47945,-0.157112 0.87337,-0.452048 1.09657,-0.640789 0.2232,-0.18874 0.27595,-0.271491 0.32298,-0.305924 0.0235,-0.01722 0.0453,-0.02223 0.0641,-0.02223 z m -9.50382,6.225976 c 0.0946,0.005 0.18995,0.120714 0.44339,0.364318 0.4055,0.389769 1.21604,1.106702 1.865,1.691371 0.64898,0.584665 1.13624,1.036904 1.36994,1.278474 0.23371,0.24157 0.21416,0.272402 -0.0295,0.716751 -0.24361,0.444349 -0.71118,1.301806 -1.17306,2.248958 -0.46188,0.947161 -0.91787,1.984328 -1.40508,2.997235 -0.48721,1.012901 -1.00606,2.001488 -1.28002,2.492869 -0.27397,0.491382 -0.30346,0.485318 -0.42323,0.181902 -0.11977,-0.303417 -0.32954,-0.903989 -0.72916,-1.91823 -0.39962,-1.014232 -0.98944,-2.442046 -1.54616,-3.643704 -0.55671,-1.201663 -1.08012,-2.177489 -1.34203,-2.66547 -0.26189,-0.488 -0.26221,-0.487789 -0.26976,-0.49816 -0.008,-0.01037 -0.0225,-0.03132 -0.001,-0.06149 0.0215,-0.03018 0.0801,-0.06921 0.38808,-0.213423 0.30795,-0.144222 0.86517,-0.393587 1.36013,-0.705385 0.49496,-0.311798 0.92747,-0.686004 1.38544,-1.099158 0.45798,-0.413153 0.94122,-0.865646 1.18288,-1.0604 0.0906,-0.07303 0.14734,-0.109442 0.20412,-0.106453 z m 0.0176,1.776119 c -0.012,0.0013 -0.021,0.0053 -0.0269,0.0083 -0.0117,0.0059 -0.0116,0.0059 -0.24546,0.214456 -0.23385,0.208518 -0.70144,0.625758 -1.13016,0.957048 -0.42873,0.33129 -0.81846,0.576797 -1.01338,0.717269 -0.19492,0.14047 -0.19476,0.175342 -0.0816,0.417029 0.11312,0.241686 0.33911,0.689821 0.73277,1.523939 0.39367,0.834109 0.95456,2.054047 1.24696,2.673736 0.29239,0.619696 0.31577,0.639178 0.43253,0.432533 0.11675,-0.206645 0.32729,-0.639046 0.7307,-1.52187 0.40342,-0.882833 1.00007,-2.215796 1.2945,-2.886131 0.29442,-0.670327 0.28667,-0.678016 -0.0563,-0.968414 -0.343,-0.290399 -1.02152,-0.86332 -1.38596,-1.175123 -0.36445,-0.311801 -0.41506,-0.362747 -0.45217,-0.382405 -0.0185,-0.0098 -0.0335,-0.01167 -0.0455,-0.01035 z M 8.1295717,29.815104 c 0.02349,0.004 0.05084,0.02368 0.198954,0.132811 0.148114,0.10914 0.417168,0.308078 1.03301,0.555521 0.615847,0.247441 1.5784833,0.543391 2.4691023,0.751891 0.890617,0.208502 1.709124,0.329641 2.393135,0.345199 0.684006,0.01556 1.233636,-0.07411 1.779216,-0.358635 0.54559,-0.284519 1.08766,-0.764259 1.38597,-1.002006 0.29831,-0.237744 0.35257,-0.23382 0.72863,0.54002 0.37606,0.773837 1.07355,2.317245 1.41645,3.100586 0.34291,0.783341 0.33155,0.806926 0.1757,0.912087 -0.15584,0.105164 -0.45617,0.292299 -0.61391,0.383958 -0.15774,0.09166 -0.17334,0.08774 -0.41703,-0.465605 -0.24369,-0.553347 -0.71518,-1.656192 -0.97824,-2.204001 -0.26305,-0.547809 -0.31783,-0.540282 -0.60048,-0.399976 -0.28264,0.140309 -0.79319,0.413031 -1.45572,0.568958 -0.66253,0.155929 -1.477146,0.195344 -2.426209,0.119374 -0.949068,-0.07597 -2.0325,-0.267247 -3.030307,-0.582911 -0.9978053,-0.315664 -1.9095483,-0.756042 -2.3714313,-0.978233 -0.461881,-0.222198 -0.473835,-0.225865 -0.357085,-0.422715 0.11675,-0.19685 0.362445,-0.586946 0.485244,-0.781865 0.122793,-0.194921 0.122502,-0.19463 0.132291,-0.200503 0.0098,-0.0058 0.02921,-0.01797 0.05271,-0.01394 z m 29.8917173,0.220144 c 0.0486,-2.64e-4 0.11269,0.03814 0.22014,0.168463 0.14327,0.173763 0.36373,0.5099 0.47387,0.686263 0.11014,0.176369 0.10987,0.193249 -0.11885,0.352952 -0.22873,0.159702 -0.68614,0.462677 -1.63143,0.823722 -0.94529,0.361045 -2.37838,0.779923 -3.6406,0.901237 -1.26223,0.121314 -2.35352,-0.05486 -3.06183,-0.261483 -0.70832,-0.206623 -1.03336,-0.443994 -1.20975,-0.56534 -0.17638,-0.121346 -0.20428,-0.126823 -0.45527,0.413411 -0.25098,0.540234 -0.72487,1.626143 -0.95911,2.166276 -0.23424,0.540134 -0.22873,0.534784 -0.42427,0.452168 -0.19552,-0.08261 -0.59253,-0.242433 -0.79375,-0.325043 -0.20121,-0.08261 -0.20655,-0.08828 0.17364,-0.87385 0.38019,-0.785567 1.14647,-2.351207 1.52135,-3.128489 0.37488,-0.777288 0.358,-0.765987 0.63097,-0.526069 0.27297,0.239925 0.83525,0.708401 1.55184,1.033529 0.7166,0.325133 1.58739,0.507008 2.64842,0.407728 1.06103,-0.09928 2.31238,-0.479554 3.15847,-0.785482 0.84608,-0.305927 1.28715,-0.53749 1.52962,-0.686263 0.24246,-0.148772 0.2868,-0.214796 0.3421,-0.242363 0.0138,-0.0069 0.0282,-0.01125 0.0444,-0.01138 z m -5.3e-4,3.077332 c 0.77841,-0.03276 1.62268,0.265941 2.33888,0.6258 0.8185,0.411269 1.46986,0.902481 1.9823,1.818495 0.51244,0.916009 0.88616,2.25656 1.07125,3.250446 0.1851,0.993889 0.18124,1.640959 0.11886,2.360062 -0.0624,0.719108 -0.18316,1.510318 -0.55345,2.537314 -0.3703,1.026994 -0.99001,2.289792 -1.81436,3.533117 -0.82435,1.24333 -1.85321,2.467451 -2.82567,3.496429 -0.97246,1.028975 -1.88854,1.862849 -2.87269,2.63653 -0.98415,0.773684 -2.03637,1.486997 -2.69699,1.900147 -0.66063,0.41314 -0.92975,0.52598 -1.06041,0.57671 -0.13065,0.0507 -0.12272,0.0391 0.0351,-0.20258 0.15785,-0.24165 0.46571,-0.71298 0.92758,-1.519802 0.46188,-0.806812 1.07787,-1.948828 1.48519,-3.108335 0.40731,-1.159513 0.60613,-2.336837 0.6997,-3.231327 0.0936,-0.894496 0.082,-1.506281 0.0801,-1.814362 -0.002,-0.308076 0.006,-0.311907 0.21808,-0.307991 0.21251,0.0039 0.62941,0.01545 0.85938,0.02326 0.22997,0.0078 0.27295,0.01196 0.2806,0.279053 0.008,0.267108 -0.0197,0.797166 -0.0801,1.475362 -0.0604,0.678196 -0.15384,1.50431 -0.339,2.244826 -0.18515,0.74051 -0.46163,1.395298 -0.60771,1.726509 -0.14608,0.331211 -0.16199,0.338931 -0.0548,0.303858 0.10721,-0.03508 0.33746,-0.113051 0.83044,-0.528135 0.49299,-0.415083 1.24909,-1.167016 2.01693,-1.987476 0.76785,-0.820457 1.54707,-1.709229 2.26033,-2.880444 0.71326,-1.171213 1.36041,-2.624852 1.67225,-3.930507 0.31185,-1.305661 0.28836,-2.463456 0.11886,-3.537255 -0.16951,-1.073792 -0.48519,-2.063506 -0.99374,-2.798278 -0.50855,-0.734769 -1.21022,-1.214255 -1.87482,-1.401463 -0.66461,-0.187209 -1.29218,-0.08197 -1.82625,0.134358 -0.53407,0.216326 -0.97442,0.543602 -1.21026,1.005623 -0.23583,0.46202 -0.26684,1.058071 -0.26097,1.582332 0.006,0.524262 0.0488,0.976477 0.24185,1.278475 0.19309,0.301998 0.53594,0.454279 0.73277,0.54002 0.19684,0.08574 0.24749,0.105037 0.30593,0.114721 0.0584,0.0097 0.12461,0.0098 0.15761,0.0098 0.033,0 0.0331,-6.7e-5 0.0429,0.239778 0.01,0.239845 0.0294,0.719204 0.0372,0.94723 0.008,0.228026 0.004,0.204636 -0.30179,0.159678 -0.30586,-0.04496 -0.91418,-0.110939 -1.495,-0.668176 -0.58082,-0.557233 -1.13405,-1.605867 -1.18287,-2.592088 -0.0488,-0.986227 0.40677,-1.910154 1.0051,-2.68976 0.59834,-0.779602 1.33896,-1.414885 2.20245,-1.566828 0.10794,-0.019 0.21798,-0.03046 0.32918,-0.03514 z M 8.3347167,33.378711 c 0.2891,-0.0019 0.595744,0.03318 0.931209,0.112139 0.8945703,0.210566 1.9937603,0.732895 2.5548833,1.536858 0.561115,0.803955 0.584777,1.889112 0.453202,2.779676 -0.131577,0.890555 -0.418208,1.586317 -0.73484,2.051036 -0.316633,0.46472 -0.663578,0.698643 -1.037662,0.826307 -0.374086,0.127664 -0.7756893,0.149426 -0.9725503,0.159163 -0.196858,0.0097 -0.18892,0.0077 -0.187068,-0.203605 0.0019,-0.211291 -0.0024,-0.632235 -0.0041,-0.842843 -0.0019,-0.210802 -0.0016,-0.211066 0.0186,-0.212389 0.02024,-0.0013 0.0605,-0.0039 0.157097,-0.01085 0.09659,-0.0069 0.249134,-0.01786 0.42478,-0.100253 0.1756473,-0.08241 0.3743623,-0.236432 0.5710273,-0.502293 0.196659,-0.265864 0.391543,-0.643668 0.457851,-1.089856 0.06631,-0.446193 0.0038,-0.961041 -0.136425,-1.376146 C 10.690489,36.090559 10.4722,35.775196 10.168228,35.488663 9.8642537,35.20213 9.4746307,34.944796 8.9951737,34.845292 c -0.479454,-0.09951 -1.048729,-0.0413 -1.522388,0.112654 -0.47366,0.153951 -0.851604,0.403577 -1.303796,0.992188 -0.452191,0.588616 -0.97823,1.516414 -1.301728,2.65462 -0.323501,1.138203 -0.444233,2.486557 -0.08165,3.985286 0.362585,1.498725 1.20804,3.147655 2.186432,4.4943 0.97839,1.346639 2.089412,2.390886 2.824115,3.129523 0.7347063,0.738635 1.0931313,1.171552 1.3094813,1.391648 0.216353,0.220107 0.290745,0.227552 0.327628,0.198437 0.03689,-0.02911 0.03667,-0.09527 -0.08216,-0.549322 -0.118835,-0.454049 -0.356608,-1.295948 -0.502812,-2.248959 -0.146201,-0.953002 -0.20094,-2.017109 -0.224277,-2.551263 -0.02334,-0.534297 -0.01527,-0.537736 0.22841,-0.535884 0.243692,0.0021 0.723254,0.0096 0.966867,0.01344 0.243612,0.0039 0.251253,0.0042 0.276468,0.766361 0.02522,0.762135 0.06776,2.286087 0.479042,3.784782 0.411278,1.49869 1.190974,2.971687 1.699635,3.905187 0.508664,0.93351 0.746728,1.32751 0.850078,1.52033 0.10335,0.19282 0.0717,0.18473 -0.390155,-0.0997 -0.461878,-0.28447 -1.354275,-0.84579 -2.229324,-1.473298 -0.875043,-0.627512 -1.732317,-1.320953 -2.6463493,-2.199867 -0.914032,-0.878907 -1.884632,-1.942992 -2.753836,-3.007051 -0.869212,-1.064067 -1.637223,-2.128271 -2.227771,-3.188435 -0.59055,-1.06017 -1.003691,-2.116241 -1.245401,-3.242697 -0.241713,-1.12646 -0.311743,-2.323097 -0.07596,-3.640605 0.235773,-1.317504 0.777769,-2.756011 1.401464,-3.705199 0.623694,-0.94919 1.32898,-1.408671 2.02675,-1.689303 0.436108,-0.175395 0.868982,-0.280768 1.350822,-0.283705 z m 19.8706223,5.13974 c 0.1195,-0.0056 0.21203,0.107612 0.39326,0.331761 0.36244,0.4483 1.07981,1.34106 1.69757,2.245342 0.61776,0.904282 1.13615,1.82023 1.47226,2.819982 0.33611,0.999754 0.48989,2.083374 0.58342,2.982764 0.0935,0.89939 0.12635,1.614422 0.0279,2.517677 -0.0984,0.903251 -0.32817,1.994747 -0.73742,2.973978 -0.40926,0.979231 -0.9979,1.846215 -1.66243,2.617925 -0.66454,0.77172 -1.40491,1.44793 -2.25361,2.1115 -0.84871,0.66358 -1.80559,1.3144 -2.87063,2.0004 -1.06504,0.68599 -2.23841,1.40727 -3.12125,1.98024 -0.88285,0.57297 -1.47502,0.99764 -1.94665,1.36891 -0.47165,0.37127 -0.82267,0.68923 -1.06144,1.10639 -0.23877,0.41716 -0.36552,0.93313 -0.25631,1.71566 0.1092,0.78253 0.45411,1.83097 0.93844,2.90576 0.48433,1.07479 1.10793,2.17612 1.74718,3.18172 0.63924,1.0056 1.29427,1.91568 1.62057,2.37557 0.32631,0.45989 0.32422,0.4695 0.74518,-0.11524 0.42095,-0.58474 1.26495,-1.76348 1.91099,-2.68821 0.64605,-0.92473 1.09441,-1.59511 1.53583,-2.27428 0.44141,-0.67917 0.87574,-1.36727 1.20509,-1.99574 0.32935,-0.62848 0.55348,-1.19749 0.68213,-1.77819 0.12864,-0.5807 0.16161,-1.17295 0.0165,-1.69912 -0.14507,-0.52617 -0.46842,-0.98652 -0.93999,-1.39681 -0.47157,-0.4103 -1.09118,-0.77069 -1.39733,-0.9617 -0.30616,-0.19101 -0.29863,-0.2124 -0.19534,-0.42582 0.10329,-0.21341 0.30242,-0.61876 0.4098,-0.81752 0.10737,-0.19875 0.12293,-0.19103 0.54777,0.0847 0.42484,0.27578 1.25884,0.81955 1.78593,1.29708 0.52711,0.47753 0.74739,0.88902 0.89349,1.38596 0.1461,0.49695 0.21797,1.07963 0.16433,1.63401 -0.0536,0.55438 -0.2328,1.08029 -0.4501,1.6893 -0.2173,0.60902 -0.4726,1.30101 -0.89452,2.12339 -0.42192,0.82238 -1.01017,1.77536 -1.68155,2.79363 -0.67138,1.01826 -1.42588,2.10178 -2.12649,3.05769 -0.70061,0.95591 -1.34729,1.78406 -1.67276,2.20607 -0.32546,0.422 -0.32972,0.43756 -0.33538,0.44338 -0.006,0.006 -0.0135,0.002 -0.43357,-0.55035 -0.42002,-0.55243 -1.25206,-1.65347 -1.89032,-2.54507 -0.63826,-0.89159 -1.08235,-1.57383 -1.5043,-2.3027 -0.42195,-0.72887 -0.82171,-1.50441 -1.16376,-2.26446 -0.34204,-0.76005 -0.62637,-1.50438 -0.79013,-2.16214 -0.16375,-0.65776 -0.20649,-1.22873 -0.20464,-1.76372 0.002,-0.53498 0.0483,-1.03412 0.36794,-1.60817 0.31961,-0.57405 0.91202,-1.22299 1.62729,-1.82521 0.71527,-0.60222 1.55332,-1.15781 2.80448,-1.97146 1.25116,-0.81364 2.91539,-1.88554 4.1305,-2.70991 1.2151,-0.82436 1.98138,-1.40117 2.58743,-1.97507 0.60607,-0.573908 1.05232,-1.144818 1.38752,-1.632979 0.33519,-0.488162 0.55892,-0.893498 0.73432,-1.369941 0.1754,-0.476444 0.30231,-1.02374 0.37931,-1.654165 0.077,-0.63042 0.1045,-1.343996 0.0558,-2.168342 -0.0487,-0.824344 -0.17349,-1.759913 -0.42582,-2.67684 -0.25233,-0.916922 -0.63268,-1.815288 -1.04386,-2.623095 -0.41118,-0.807807 -0.8533,-1.52472 -1.08521,-1.881539 -0.2319,-0.356815 -0.25364,-0.35305 -0.81597,0.08837 -0.56232,0.441417 -1.66495,1.320532 -2.66857,1.962671 -1.00362,0.642133 -1.90817,1.047229 -2.36419,1.242301 -0.45602,0.195072 -0.46355,0.179514 -0.524,-0.03876 -0.0605,-0.218268 -0.17341,-0.638929 -0.22996,-0.849559 -0.0566,-0.210619 -0.0567,-0.210619 -0.0615,-0.221176 -0.005,-0.01056 -0.0147,-0.03223 0.009,-0.04702 0.0234,-0.01479 0.0797,-0.02259 0.17518,-0.04599 0.0955,-0.02339 0.23022,-0.06251 0.69401,-0.283705 0.46379,-0.221194 1.25677,-0.624626 2.22726,-1.329119 0.97048,-0.704487 2.11848,-1.709946 2.69647,-2.210715 0.289,-0.250389 0.43551,-0.374756 0.55501,-0.380339 z m -10.01593,0.209804 c 0.04,0.0084 0.0732,0.03027 0.15296,0.512631 0.0798,0.482369 0.20648,1.42522 0.48215,2.359546 0.27566,0.934331 0.70017,1.860174 1.39061,3.045293 0.69043,1.185116 1.6467,2.629498 2.76159,3.854545 1.11489,1.225045 2.38813,2.230901 3.17913,2.817916 0.79101,0.587015 1.09967,0.755168 1.28571,0.85576 0.18604,0.100595 0.24959,0.133406 0.28112,0.149863 0.0315,0.01646 0.0317,0.01635 -0.11162,0.213423 -0.14333,0.197083 -0.4303,0.591656 -0.58033,0.785998 -0.15003,0.194345 -0.16363,0.18859 -0.53846,-0.04702 -0.37484,-0.235614 -1.11085,-0.701614 -2.00247,-1.423686 -0.89161,-0.722072 -1.93902,-1.69999 -3.03599,-3.017388 -1.09696,-1.317392 -2.24304,-2.974147 -2.96106,-4.286043 -0.71801,-1.311892 -1.00772,-2.279272 -1.16478,-2.786394 -0.15707,-0.507126 -0.1818,-0.55404 -0.23565,-0.489376 -0.0538,0.06467 -0.13625,0.241515 -0.32918,0.598414 -0.19292,0.356904 -0.49644,0.894281 -0.68936,1.413867 -0.19292,0.519589 -0.27546,1.020752 -0.32091,1.700157 -0.0455,0.6794 -0.054,1.536827 0.0481,2.549713 0.10201,1.012891 0.31465,2.181421 0.59996,3.137794 0.28531,0.956374 0.64316,1.700673 1.08831,2.440678 0.44514,0.740003 0.97716,1.475734 1.63866,2.164724 0.6615,0.68899 1.45278,1.33121 1.87998,1.67018 0.42721,0.33897 0.49018,0.37476 0.52452,0.40101 0.0344,0.0263 0.04,0.0425 -0.10335,0.25322 -0.14339,0.2107 -0.43572,0.61586 -0.5886,0.82113 -0.15287,0.20528 -0.16629,0.21104 -0.48317,-0.0548 -0.31688,-0.26582 -0.93722,-0.80358 -1.57665,-1.43609 -0.63943,-0.63251 -1.29788,-1.35961 -2.04484,-2.620511 -0.74695,-1.260901 -1.58225,-3.055236 -1.950265,-4.62349 -0.368015,-1.568257 -0.268722,-2.910763 -0.206703,-3.975984 0.06201,-1.065226 0.08684,-1.853057 0.23151,-2.597258 0.144668,-0.744204 0.409058,-1.444271 0.969968,-2.167827 0.5609,-0.723556 1.41807,-1.470707 1.87017,-1.846916 0.4521,-0.3762 0.49899,-0.381492 0.53898,-0.373105 z m 14.53555,17.353465 c 0.0151,-0.004 0.0148,-0.004 0.20929,0.13229 0.19445,0.13653 0.58345,0.40939 0.77359,0.54571 0.19015,0.13631 0.18187,0.13641 0.007,0.32659 -0.17514,0.19018 -0.51711,0.57052 -0.93327,0.97979 -0.41616,0.40926 -0.9068,0.84768 -1.28571,1.13016 -0.37891,0.28248 -0.64622,0.4092 -0.77721,0.46715 -0.131,0.058 -0.12568,0.0468 -0.22066,-0.16536 -0.095,-0.21212 -0.29049,-0.62533 -0.38706,-0.83354 -0.0966,-0.20822 -0.0937,-0.21116 0.13643,-0.33383 0.23018,-0.12267 0.68752,-0.36504 1.11879,-0.73432 0.43127,-0.36928 0.83648,-0.86531 1.04593,-1.13533 0.20945,-0.27003 0.22329,-0.31425 0.24547,-0.34055 0.0222,-0.0263 0.0526,-0.0347 0.0677,-0.0388 z m -18.287257,1.44281 c 0.02939,-2.4e-4 0.06801,0 0.119372,0 0.205462,0 0.615795,7e-5 0.829405,0.006 0.21362,0.006 0.23011,0.0167 0.25477,0.17931 0.0247,0.16266 0.0579,0.4768 0.14624,0.72347 0.0883,0.24668 0.23182,0.42592 0.39584,0.54157 0.16403,0.11566 0.34867,0.16799 0.51677,0.19689 0.1681,0.0289 0.31967,0.0343 0.39532,0.0413 0.0757,0.007 0.0756,0.0155 0.0687,0.25115 -0.007,0.23564 -0.021,0.69858 -0.032,0.93689 -0.011,0.23831 -0.0189,0.2517 -0.13591,0.2558 -0.11697,0.004 -0.34332,-0.001 -0.73742,-0.15399 -0.3941,-0.15289 -0.95607,-0.45328 -1.3255,-0.89556 -0.369426,-0.44228 -0.545848,-1.0268 -0.642339,-1.38234 -0.09649,-0.35555 -0.112868,-0.48197 -0.0894,-0.56069 0.02347,-0.0787 0.0867,-0.10941 0.118341,-0.12454 0.02373,-0.0113 0.02966,-0.0142 0.117821,-0.015 z" />
  </g>
</svg>
