<?xml version="1.0" encoding="UTF-8" standalone="no"?>
<!-- Created with Inkscape (http://www.inkscape.org/) -->

<svg
   width="89.106003mm"
   height="36.319mm"
   viewBox="0 0 89.106003 36.319"
   version="1.1"
   id="svg5"
   xmlns="http://www.w3.org/2000/svg"
   xmlns:svg="http://www.w3.org/2000/svg">
  <defs
     id="defs2">
    <rect
       x="29.5047"
       y="46.939293"
       width="720.87799"
       height="397.69052"
       id="rect236" />
    <rect
       x="29.5047"
       y="46.939293"
       width="720.87799"
       height="397.69052"
       id="rect294" />
    <rect
       x="29.5047"
       y="46.939293"
       width="720.87799"
       height="397.69052"
       id="rect431" />
    <rect
       x="29.5047"
       y="46.939293"
       width="720.87799"
       height="397.69052"
       id="rect525" />
  </defs>
  <g
     id="layer1"
     style="display:inline">
    <g
       aria-label="TAINTED"
       transform="matrix(0.26458333,0,0,0.26458333,-57.150882,-13.874792)"
       id="text234"
       style="font-size:21.3333px;line-height:2.25;font-family:'Celtic Garamond the 2nd';-inkscape-font-specification:'Celtic Garamond the 2nd';text-align:center;letter-spacing:5px;white-space:pre;shape-inside:url(#rect236);display:inline;stroke-width:1.33">
      <path
         d="m 333.97276,64.070261 h -0.59733 q -0.32,-2.090663 -1.19467,-2.837328 -0.87466,-0.767999 -3.02933,-0.767999 h -3.17866 v 12.458647 q 0,1.834663 0.40533,2.389329 0.53334,0.682666 2.368,0.682666 l -0.10667,0.618666 -4.22399,-0.213333 q -0.66133,-0.02133 -1.89866,0.08533 -1.36534,0.128 -1.89867,0.128 v -0.618666 q 1.42933,0 1.92,-0.234666 0.74666,-0.405333 0.74666,-1.706664 V 60.464934 h -2.87999 q -2.15466,0 -3.02933,0.767999 -0.87466,0.746665 -1.17333,2.837328 h -0.72533 l 0.61866,-5.141325 h 0.61867 q 0.46933,0.618666 2.87999,0.618666 h 3.69066 v -1.343998 q 0,-1.023998 -0.72533,-1.365331 -0.384,-0.170667 -1.72799,-0.277333 v -0.618666 l 3.79732,0.213333 q -0.14933,0 3.79733,-0.213333 v 0.618666 q -1.45066,0 -1.96266,0.554666 -0.49067,0.533332 -0.49067,2.026663 v 0.405333 h 4.01066 q 2.41066,0 2.85866,-0.618666 h 0.53334 z"
         id="path844" />
      <path
         d="m 353.99141,76.614242 q -2.26133,-0.213333 -3.584,-0.213333 -1.13066,0 -3.60532,0.213333 v -0.618666 q 1.87733,-0.106667 1.87733,-1.023999 0,-0.426666 -0.34134,-1.130664 l -1.32266,-3.797328 h -6.48532 l -1.13067,2.965329 q -0.384,1.002665 -0.384,1.599997 0,1.386665 2.53867,1.386665 v 0.618666 q -2.88,-0.213333 -3.584,-0.213333 -0.832,0 -3.09333,0.213333 v -0.618666 q 1.28,0 2.00533,-0.767999 0.53334,-0.575999 1.088,-2.00533 l 4.52266,-11.925315 q -0.34133,-0.981331 -2.26133,-1.130664 v -0.618666 q 1.536,0.213333 4.20266,0.213333 3.09333,0 4.11733,-0.213333 v 0.618666 q -2.02667,0 -2.368,1.343997 l 5.03466,12.629314 q 0.40533,1.002665 1.06667,1.407998 0.57599,0.362666 1.70666,0.447999 z m -7.48799,-7.615988 -2.98666,-7.402655 -2.66666,7.402655 z"
         id="path846" />
      <path
         d="m 368.01541,76.614242 q -0.55467,0 -1.728,-0.106667 -1.152,-0.106666 -1.79199,-0.106666 -0.66134,0 -2.02667,0.106666 -1.36533,0.106667 -2.11199,0.106667 v -0.618666 q 1.27999,0 1.79199,-0.298666 0.68267,-0.426666 0.68267,-1.663998 V 61.830265 q 0,-1.109332 -0.72533,-1.471998 -0.40534,-0.191999 -1.74933,-0.298666 v -0.511999 q 2.41066,0.106666 3.81866,0.106666 1.23733,0.02133 3.83999,-0.106666 v 0.511999 q -1.49333,0.08533 -2.00533,0.618666 -0.49067,0.533332 -0.49067,2.06933 v 10.34665 q 0,1.685331 0.40534,2.218663 0.46933,0.682666 2.09066,0.682666 z"
         id="path848" />
      <path
         d="m 394.75403,76.614242 q -0.66133,0 -2.06933,-0.106667 -1.408,-0.106666 -2.15466,-0.106666 -0.72533,0 -2.21866,0.106666 -1.472,0.106667 -2.19733,0.106667 v -0.618666 q 1.91999,0 2.43199,-0.661332 0.448,-0.554666 0.448,-2.51733 V 61.083599 l -9.77065,3.391995 v 8.34132 q 0,1.94133 0.576,2.559996 0.576,0.618666 2.41066,0.618666 v 0.618666 q -0.704,0 -2.17599,-0.106667 -1.472,-0.106666 -2.24,-0.106666 -0.66133,0 -2.09066,0.106666 -1.408,0.106667 -2.13333,0.106667 v -0.618666 q 3.09332,0 3.09332,-4.01066 v -9.258653 q 0,-1.49333 -0.36266,-1.962663 -0.42667,-0.597332 -1.81333,-0.597332 v -0.618666 l 4.73599,0.106666 v 3.391995 l 9.66399,-3.498661 q 0.25599,0 0.81066,0.064 0.576,0.04267 0.832,0.04267 0.384,0.064 3.39199,-0.106666 v 0.618666 q -1.40799,0 -1.83466,0.533332 -0.42667,0.511999 -0.42667,2.026663 v 9.258653 q 0,4.01066 3.09333,4.01066 z"
         id="path850" />
      <path
         d="m 419.21,64.070261 h -0.59733 q -0.32,-2.090663 -1.19467,-2.837328 -0.87466,-0.767999 -3.02932,-0.767999 h -3.17867 v 12.458647 q 0,1.834663 0.40534,2.389329 0.53333,0.682666 2.36799,0.682666 l -0.10666,0.618666 -4.224,-0.213333 q -0.66133,-0.02133 -1.89866,0.08533 -1.36533,0.128 -1.89866,0.128 v -0.618666 q 1.42933,0 1.91999,-0.234666 0.74667,-0.405333 0.74667,-1.706664 V 60.464934 h -2.88 q -2.15466,0 -3.02933,0.767999 -0.87466,0.746665 -1.17333,2.837328 h -0.72533 l 0.61867,-5.141325 h 0.61866 q 0.46933,0.618666 2.88,0.618666 h 3.69066 v -1.343998 q 0,-1.023998 -0.72533,-1.365331 -0.384,-0.170667 -1.728,-0.277333 v -0.618666 l 3.79733,0.213333 q -0.14934,0 3.79732,-0.213333 v 0.618666 q -1.45066,0 -1.96266,0.554666 -0.49067,0.533332 -0.49067,2.026663 v 0.405333 h 4.01066 q 2.41067,0 2.85867,-0.618666 h 0.53333 z"
         id="path852" />
      <path
         d="m 439.46332,72.923581 q -1.088,1.68533 -1.23733,3.690661 -1.28,0 -3.30666,-0.04267 -2.02667,-0.064 -2.77333,-0.064 0,0 -3.17866,-0.106666 -2.19733,-0.064 -5.14133,0.106666 v -0.618666 q 1.344,0 1.81333,-0.277333 0.66134,-0.405332 0.66134,-1.663997 V 62.107598 q 0,-1.237332 -0.704,-1.642664 -0.49067,-0.298666 -1.77067,-0.298666 v -0.618666 q 2.944,0.170666 5.14133,0.106666 0,0 3.17866,0 0.74666,0 2.77333,-0.04267 2.02666,-0.064 3.30666,-0.064 0.14933,2.06933 1.23733,3.605327 l -0.72533,0.192 q -0.78933,-1.834664 -2.304,-2.495996 -1.152,-0.469332 -3.45599,-0.469332 -2.176,0 -2.77333,0.213333 -1.23733,0.469332 -1.23733,2.239996 v 4.33066 h 3.49866 l 0.72533,-0.725332 q 0.064,-0.08533 0.0853,-0.08533 0.0427,0.02133 0.10667,0.08533 l 1.13067,1.130665 q 0.0853,0.08533 0.0853,0.106666 -0.0213,0.02133 -0.0853,0.106667 l -1.13067,1.130664 h -0.192 L 432.466,68.187588 h -3.49866 v 5.141325 q 0,1.749331 1.23733,2.175997 0.512,0.192 2.77333,0.192 2.36799,0 3.45599,-0.448 1.51467,-0.639999 2.304,-2.538662 z"
         id="path854" />
      <path
         d="m 463.57793,67.974255 q 0,4.58666 -3.92533,6.826656 -3.15732,1.813331 -8.08532,1.813331 -0.53333,0 -1.62133,-0.04267 -1.06666,-0.064 -1.57866,-0.064 -0.68267,0 -2.00533,0.064 -1.30133,0.04267 -1.89866,0.04267 v -0.618666 q 1.38666,0 1.85599,-0.298666 0.61867,-0.32 0.61867,-1.642664 V 61.915598 q 0,-1.109331 -0.74667,-1.450664 -0.384,-0.192 -1.72799,-0.298666 v -0.618666 q 0.76799,0.106666 4.41599,0.106666 0.576,0 1.25866,-0.04267 0.704,-0.064 0.896,-0.064 4.97066,0 8.27732,1.706664 4.26666,2.19733 4.26666,6.719989 z m -2.96533,0.32 q 0,-3.989327 -2.94399,-6.079991 -2.58133,-1.834663 -6.71999,-1.834663 h -1.344 v 12.22398 q 0,1.791997 0.49067,2.45333 0.59733,0.725332 2.28266,0.725332 3.62666,0 5.84532,-1.898664 2.38933,-2.026663 2.38933,-5.589324 z"
         id="path856" />
    </g>
    <g
       aria-label="
GRAIL"
       transform="matrix(0.26458333,0,0,0.26458333,-58.738382,-51.445647)"
       id="text292"
       style="font-size:40px;line-height:2.25;font-family:'Celtic Garamond the 2nd';-inkscape-font-specification:'Celtic Garamond the 2nd';text-align:center;letter-spacing:5px;white-space:pre;shape-inside:url(#rect294);display:inline;stroke-width:1.33">
      <path
         d="m 316.40333,244.54024 q -7.1,0 -9.4,2.6 -2.3,2.5 -2.3,9.6 v 10.2 l 2.4,1.9 v 2.5 q -18.9,6.3 -36,6.3 -20.8,0 -34.2,-10.1 -14.9,-11.2 -14.9,-31.3 0,-19.2 15.9,-31.1 14.4,-10.7 34.2,-10.7 13.4,0 33.1,5.8 l 1.9,16.1 h -2.9 q -2,-9.7 -11.4,-14.5 -7.7,-4 -18.7,-4 -16.5,0 -27,10.4 -10.5,10.4 -10.5,27.1 0,16.1 10.7,27.3 10.8,11.1 26.8,11.1 10.7,0 18,-4.4 v -17 q 0,-5.1 -3.5,-6.6 -1.5,-0.7 -8.2,-1.2 v -2.9 q 8.5,0.3 14.3,0.7 4.9,0.3 3.7,0.3 0.6,0 5.5,-0.3 6.5,-0.4 12.5,-0.7 z"
         style="font-size:100px;letter-spacing:10px;display:inline"
         id="path833" />
      <path
         d="m 371.00338,276.04024 q -6.36,-0.6 -5.46,-0.6 -0.24,0 -2.16,0.18 -2.58,0.24 -4.8,0.42 -5.94,-5.04 -17.94,-22.56 -1.32,0 -3.72,-0.12 -2.34,-0.18 -3.48,-0.18 v 13.02 q 0,4.56 1.08,6.12 1.38,1.98 5.88,1.98 v 1.74 q -1.62,0 -4.98,-0.3 -3.3,-0.3 -4.86,-0.3 -1.92,0 -5.82,0.3 -3.9,0.3 -5.76,0.3 v -1.74 q 3.6,0 4.98,-0.84 1.98,-1.14 1.98,-4.62 v -34.14 q 0,-3.12 -2.1,-4.08 -1.08,-0.54 -4.86,-0.84 v -1.74 q 3,0.72 11.88,0.3 6.36,-0.3 5.76,-0.3 22.56,0 22.56,12.12 0,8.34 -10.98,11.88 4.02,5.52 9.84,13.02 7.98,9.24 12.96,9.24 z m -19.62,-35.28 q 0,-10.38 -14.16,-10.38 -2.34,0 -3.78,0.24 v 19.98 q 2.34,0.6 4.02,0.6 5.7,0 9.48,-2.4 4.44,-2.82 4.44,-8.04 z"
         style="font-size:60px;letter-spacing:10px;display:inline"
         id="path835" />
      <path
         d="m 437.94341,276.04024 q -6.36,-0.6 -10.08,-0.6 -3.18,0 -10.14,0.6 v -1.74 q 5.28,-0.3 5.28,-2.88 0,-1.2 -0.96,-3.18 l -3.72,-10.68 h -18.24 l -3.18,8.34 q -1.08,2.82 -1.08,4.5 0,3.9 7.14,3.9 v 1.74 q -8.1,-0.6 -10.08,-0.6 -2.34,0 -8.7,0.6 v -1.74 q 3.6,0 5.64,-2.16 1.5,-1.62 3.06,-5.64 l 12.72,-33.54 q -0.96,-2.76 -6.36,-3.18 v -1.74 q 4.32,0.6 11.82,0.6 8.7,0 11.58,-0.6 v 1.74 q -5.7,0 -6.66,3.78 l 14.16,35.52 q 1.14,2.82 3,3.96 1.62,1.02 4.8,1.26 z m -21.06,-21.42 -8.4,-20.82 -7.5,20.82 z"
         style="font-size:60px;letter-spacing:10px;display:inline"
         id="path837" />
      <path
         d="m 473.32346,276.04024 q -1.56,0 -4.86,-0.3 -3.24,-0.3 -5.04,-0.3 -1.86,0 -5.7,0.3 -3.84,0.3 -5.94,0.3 v -1.74 q 3.6,0 5.04,-0.84 1.92,-1.2 1.92,-4.68 v -34.32 q 0,-3.12 -2.04,-4.14 -1.14,-0.54 -4.92,-0.84 v -1.44 q 6.78,0.3 10.74,0.3 3.48,0.06 10.8,-0.3 v 1.44 q -4.2,0.24 -5.64,1.74 -1.38,1.5 -1.38,5.82 v 29.1 q 0,4.74 1.14,6.24 1.32,1.92 5.88,1.92 z"
         style="font-size:60px;letter-spacing:10px;display:inline"
         id="path839" />
      <path
         d="m 558.78342,258.24024 -4.9,17.8 -41.9,-1 q -2.9,0 -26,1 l -0.5,-3.4 q 7.8,0 10.1,-2.3 2.4,-2.4 2.4,-9.7 v -54 q 0,-5.1 -3.4,-6.8 -1.9,-0.9 -8.1,-1.4 v -2.4 q 3.3,0 10.3,0.5 7,0.5 10.4,0.5 2.4,0 7.4,-0.5 5.1,-0.5 7.5,-0.5 v 2.4 q -7.1,0.4 -9.3,2.8 -2.2,2.4 -2.2,9.7 v 48.2 q 0,7.6 4.5,10.2 3.4,1.9 11.8,1.9 12.7,0 17.3,-1.6 8.3,-2.8 11.2,-12.4 z"
         style="font-size:100px;letter-spacing:10px;display:inline"
         id="path841" />
    </g>
    <g
       aria-label="THE FALL OF AVALON"
       transform="matrix(0.26458333,0,0,0.26458333,-58.738382,7.8210449)"
       id="text429"
       style="font-size:17.3333px;line-height:2.25;font-family:'Celtic Garamond the 2nd';-inkscape-font-specification:'Celtic Garamond the 2nd';text-align:center;letter-spacing:5px;white-space:pre;shape-inside:url(#rect431);display:inline;stroke-width:1.33">
      <path
         d="m 251.79058,60.85823 h -0.48533 q -0.26,-1.698664 -0.97067,-2.305329 -0.71066,-0.623999 -2.46133,-0.623999 h -2.58266 v 10.122647 q 0,1.490664 0.32934,1.94133 0.43333,0.554665 1.92399,0.554665 l -0.0867,0.502666 -3.43199,-0.173333 q -0.53733,-0.01733 -1.54266,0.06933 -1.10933,0.104 -1.54267,0.104 v -0.502666 q 1.16134,0 1.56,-0.190666 0.60667,-0.329333 0.60667,-1.386664 V 57.928902 h -2.34 q -1.75066,0 -2.46133,0.623999 -0.71066,0.606665 -0.95333,2.305329 h -0.58933 l 0.50266,-4.177325 h 0.50267 q 0.38133,0.502665 2.34,0.502665 h 2.99866 v -1.091998 q 0,-0.831998 -0.58934,-1.109331 -0.31199,-0.138666 -1.40399,-0.225333 v -0.502665 l 3.08532,0.173333 q -0.12133,0 3.08533,-0.173333 v 0.502665 q -1.17866,0 -1.59466,0.450666 -0.39867,0.433333 -0.39867,1.646664 v 0.329332 h 3.25866 q 1.95867,0 2.32266,-0.502665 h 0.43334 z"
         id="path802" />
      <path
         d="m 271.80529,71.05021 q -0.38134,0 -1.17334,-0.07333 -0.77733,-0.07333 -1.17333,-0.07333 -0.45467,0 -1.39334,0.07333 -0.93867,0.07333 -1.452,0.07333 v -0.425334 q 0.89466,0 1.232,-0.205334 0.484,-0.293334 0.484,-1.144003 V 65.35953 h -7.83202 v 3.270674 q 0,1.144003 0.23467,1.510671 0.32267,0.484001 1.408,0.484001 l 0.0733,0.425334 q -0.396,0 -1.21734,-0.07333 -0.80667,-0.07333 -1.20267,-0.07333 -0.46933,0 -1.42267,0.07333 -0.95333,0.07333 -1.42267,0.07333 v -0.425334 q 0.88,0 1.20267,-0.205334 0.44,-0.293334 0.44,-1.144003 v -8.389352 q 0,-0.762669 -0.484,-1.012003 -0.24933,-0.132 -1.15867,-0.205334 v -0.352 q 1.17334,0.044 2.03867,0.102667 0.71867,0.044 0.58667,0.044 0.42533,0 1.32,-0.07333 0.89467,-0.07333 1.32001,-0.07333 v 0.352 q -1.05601,0.05867 -1.39334,0.425335 -0.32267,0.352001 -0.32267,1.42267 v 3.06534 h 7.83202 v -3.696008 q 0,-0.806669 -0.484,-1.041336 -0.22,-0.102667 -1.232,-0.176001 v -0.352 q 0.484,0 1.34933,0.07333 0.86534,0.07333 1.29067,0.07333 0.42534,0 1.27601,-0.07333 0.85066,-0.07333 1.276,-0.07333 v 0.352 q -0.98267,0.05867 -1.30534,0.454668 -0.32267,0.396001 -0.32267,1.393337 v 7.758684 q 0,0.836002 0.44001,1.129336 0.33733,0.220001 1.188,0.220001 z"
         style="font-size:14.6667px;display:inline"
         id="path804" />
      <path
         d="m 287.83466,68.512871 q -0.748,1.158669 -0.85067,2.537339 -0.88,0 -2.27334,-0.02933 -1.39334,-0.044 -1.90667,-0.044 0,0 -2.18534,-0.07333 -1.51067,-0.044 -3.53467,0.07333 v -0.425334 q 0.924,0 1.24667,-0.190667 0.45466,-0.278667 0.45466,-1.144003 v -8.140018 q 0,-0.850669 -0.484,-1.129336 -0.33733,-0.205334 -1.21733,-0.205334 V 59.31685 q 2.024,0.117333 3.53467,0.07333 0,0 2.18534,0 0.51333,0 1.90667,-0.02933 1.39334,-0.044 2.27334,-0.044 0.10267,1.42267 0.85067,2.478672 l -0.49867,0.132 q -0.54267,-1.261336 -1.584,-1.716004 -0.79201,-0.322667 -2.37601,-0.322667 -1.496,0 -1.90667,0.146667 -0.85067,0.322667 -0.85067,1.540004 v 2.97734 h 2.40534 l 0.49867,-0.498668 q 0.044,-0.05867 0.0587,-0.05867 0.0293,0.01467 0.0733,0.05867 l 0.77733,0.777335 q 0.0587,0.05867 0.0587,0.07333 -0.0147,0.01467 -0.0587,0.07333 l -0.77733,0.777335 h -0.132 l -0.49867,-0.498668 h -2.40534 v 3.534675 q 0,1.20267 0.85067,1.496004 0.352,0.132 1.90667,0.132 1.628,0 2.37601,-0.308001 1.04133,-0.440001 1.584,-1.745337 z"
         style="font-size:14.6667px;display:inline"
         id="path806" />
      <path
         d="m 318.8346,60.268898 -0.58933,0.08667 q -0.64133,-1.490664 -1.872,-2.027996 -0.93599,-0.398666 -2.80799,-0.398666 -1.64666,0 -2.028,0.104 -1.03999,0.294666 -1.14399,1.490664 v 3.917325 h 2.75599 l 0.58933,-0.571998 q 0.0693,-0.08667 0.156,0 l 0.91867,0.918664 q 0.0693,0.052 0.0693,0.08667 -0.0173,0.01733 -0.0693,0.06933 l -0.91867,0.918665 q -0.0867,0.08667 -0.156,0 l -0.50266,-0.502666 h -2.84266 v 3.605327 q 0,1.47333 0.24266,1.923996 0.364,0.658665 1.68133,0.658665 v 0.502666 q -0.45066,0 -1.404,-0.08667 -0.93599,-0.08667 -1.43866,-0.08667 -0.53733,0 -1.64666,0.08667 -1.10933,0.08667 -1.69867,0.08667 v -0.502666 q 1.07467,0 1.456,-0.225333 0.55467,-0.329332 0.55467,-1.351997 v -9.619981 q 0,-1.005332 -0.572,-1.334664 -0.39867,-0.242667 -1.43867,-0.242667 v -0.502665 q 1.54267,0.173333 4.264,0.08667 1.00533,0 2.49599,0 1.508,-0.052 4.93999,-0.173333 0.24267,1.698664 1.00533,3.085328 z"
         id="path808" />
      <path
         d="m 336.76264,71.05021 q -1.55467,-0.146667 -2.46401,-0.146667 -0.77733,0 -2.47867,0.146667 v -0.425334 q 1.29067,-0.07333 1.29067,-0.704002 0,-0.293334 -0.23467,-0.777335 l -0.90933,-2.610673 h -4.45868 l -0.77734,2.038672 q -0.264,0.689334 -0.264,1.100002 0,0.953336 1.74534,0.953336 v 0.425334 q -1.98,-0.146667 -2.46401,-0.146667 -0.572,0 -2.12667,0.146667 v -0.425334 q 0.88001,0 1.37867,-0.528002 0.36667,-0.396 0.748,-1.378669 l 3.10935,-8.198686 q -0.23467,-0.674668 -1.55468,-0.777335 V 59.31685 q 1.05601,0.146667 2.88934,0.146667 2.12668,0 2.83068,-0.146667 v 0.425334 q -1.39334,0 -1.62801,0.924002 l 3.46135,8.682687 q 0.27866,0.689335 0.73333,0.968002 0.396,0.249334 1.17334,0.308001 z m -5.14802,-5.236012 -2.05333,-5.089345 -1.83334,5.089345 z"
         style="font-size:14.6667px;display:inline"
         id="path810" />
      <path
         d="m 352.95334,68.439537 -0.71867,2.610673 -6.14535,-0.146667 q -0.42533,0 -3.81334,0.146667 l -0.0733,-0.498668 q 1.14401,0 1.48134,-0.337334 0.352,-0.352001 0.352,-1.42267 V 60.87152 q 0,-0.748002 -0.49867,-0.997336 -0.27866,-0.132 -1.188,-0.205334 v -0.352 q 0.484,0 1.51067,0.07333 1.02667,0.07333 1.52534,0.07333 0.352,0 1.08533,-0.07333 0.74801,-0.07333 1.10001,-0.07333 v 0.352 q -1.04134,0.05867 -1.36401,0.410668 -0.32266,0.352001 -0.32266,1.42267 v 7.06935 q 0,1.114669 0.66,1.496003 0.49867,0.278667 1.73067,0.278667 1.86267,0 2.53734,-0.234667 1.21733,-0.410667 1.64267,-1.818671 z"
         style="font-size:14.6667px;display:inline"
         id="path812" />
      <path
         d="m 368.55736,68.439537 -0.71867,2.610673 -6.14535,-0.146667 q -0.42533,0 -3.81334,0.146667 l -0.0733,-0.498668 q 1.14401,0 1.48134,-0.337334 0.352,-0.352001 0.352,-1.42267 V 60.87152 q 0,-0.748002 -0.49867,-0.997336 -0.27866,-0.132 -1.188,-0.205334 v -0.352 q 0.484,0 1.51067,0.07333 1.02667,0.07333 1.52534,0.07333 0.352,0 1.08533,-0.07333 0.74801,-0.07333 1.10001,-0.07333 v 0.352 q -1.04134,0.05867 -1.36401,0.410668 -0.32266,0.352001 -0.32266,1.42267 v 7.06935 q 0,1.114669 0.66,1.496003 0.49867,0.278667 1.73067,0.278667 1.86267,0 2.53734,-0.234667 1.21733,-0.410667 1.64267,-1.818671 z"
         style="font-size:14.6667px;display:inline"
         id="path814" />
      <path
         d="m 403.76263,63.735557 q 0.156,3.293327 -2.34,5.51199 -2.34,2.079996 -5.58132,2.079996 v 0 q -3.276,0.06933 -5.68532,-1.88933 -2.58267,-2.097329 -2.58267,-5.35599 0,-3.15466 2.47867,-5.199989 2.28799,-1.906663 5.44265,-1.975997 3.13733,-0.06933 5.54666,1.767997 2.56533,1.975996 2.72133,5.061323 z m -3.38,-3.20666 q -0.728,-1.282664 -2.23599,-2.045329 -1.42133,-0.727999 -2.98133,-0.727999 -2.32266,0 -3.81333,1.767997 -1.42133,1.68133 -1.42133,4.038658 0,2.773328 1.75067,4.835991 1.83733,2.166663 4.57599,2.166663 2.53066,0 3.98666,-1.78533 1.31733,-1.611997 1.31733,-4.055992 0,-2.270663 -1.17867,-4.194659 z m -3.62266,3.709326 -0.91866,0.935998 h -0.17334 l -0.93599,-0.935998 q -0.0173,-0.03467 -0.052,-0.08667 0,-0.01733 0.052,-0.06933 l 0.93599,-0.935998 q 0.0693,-0.06933 0.0867,-0.06933 0.0173,0.01733 0.0867,0.06933 l 0.91866,0.935998 q 0.0693,0.052 0.0693,0.06933 -0.0173,0.03467 -0.0693,0.08667 z"
         id="path816" />
      <path
         d="m 419.71599,61.927522 -0.49867,0.07333 q -0.54267,-1.261336 -1.584,-1.716004 -0.79201,-0.337334 -2.37601,-0.337334 -1.39334,0 -1.716,0.088 -0.88001,0.249334 -0.96801,1.261336 v 3.314674 h 2.33201 l 0.49867,-0.484001 q 0.0587,-0.07333 0.132,0 l 0.77733,0.777335 q 0.0587,0.044 0.0587,0.07333 -0.0147,0.01467 -0.0587,0.05867 l -0.77733,0.777335 q -0.0733,0.07333 -0.132,0 l -0.42534,-0.425334 h -2.40534 v 3.050673 q 0,1.24667 0.20534,1.628004 0.308,0.557335 1.42267,0.557335 v 0.425334 q -0.38134,0 -1.18801,-0.07333 -0.792,-0.07333 -1.21733,-0.07333 -0.45467,0 -1.39334,0.07333 -0.93867,0.07333 -1.43733,0.07333 v -0.425334 q 0.90933,0 1.232,-0.190667 0.46933,-0.278668 0.46933,-1.144003 v -8.140019 q 0,-0.850668 -0.484,-1.129336 -0.33733,-0.205334 -1.21733,-0.205334 v -0.425334 q 1.30533,0.146667 3.608,0.07333 0.85067,0 2.11201,0 1.276,-0.044 4.18001,-0.146667 0.20533,1.437336 0.85067,2.610672 z"
         style="font-size:14.6667px;display:inline"
         id="path818" />
      <path
         d="m 453.8066,71.05021 q -1.83733,-0.173333 -2.91199,-0.173333 -0.91867,0 -2.92933,0.173333 v -0.502666 q 1.52533,-0.08667 1.52533,-0.831998 0,-0.346666 -0.27733,-0.918665 l -1.07467,-3.085327 h -5.26932 l -0.91867,2.409328 q -0.312,0.814665 -0.312,1.299998 0,1.126664 2.06267,1.126664 v 0.502666 q -2.34,-0.173333 -2.912,-0.173333 -0.676,0 -2.51333,0.173333 v -0.502666 q 1.04,0 1.62934,-0.623999 0.43333,-0.467999 0.88399,-1.62933 l 3.67466,-9.689314 q -0.27733,-0.797332 -1.83733,-0.918665 V 57.18357 q 1.248,0.173333 3.41466,0.173333 2.51333,0 3.34533,-0.173333 v 0.502666 q -1.64666,0 -1.924,1.091998 l 4.09066,10.261313 q 0.32934,0.814665 0.86667,1.143998 0.468,0.294666 1.38666,0.363999 z m -6.08399,-6.187988 -2.42666,-6.014655 -2.16666,6.014655 z"
         id="path820" />
      <path
         d="m 473.10797,59.66885 q -0.71866,0 -1.32,0.850669 -0.29333,0.410668 -0.77733,1.452003 l -4.12135,9.078688 h -0.68933 l -4.32668,-9.430688 q -0.86533,-1.848005 -2.244,-1.950672 v -0.352 q 2.27334,0.088 3.00667,0.07333 0.352,0 2.09734,-0.07333 v 0.352 q -0.66,0.044 -0.924,0.146667 -0.308,0.146667 -0.308,0.454668 0,0.249334 0.176,0.660002 l 3.432,7.817351 2.86001,-6.497348 q 0.55734,-1.261337 0.55734,-1.657337 0,-0.836002 -1.46668,-0.924003 v -0.352 q 0.55734,0.07333 2.52268,0.07333 0.76267,0 1.52533,-0.07333 z"
         style="font-size:14.6667px;display:inline"
         id="path822" />
      <path
         d="m 488.46267,71.05021 q -1.55467,-0.146667 -2.464,-0.146667 -0.77734,0 -2.47868,0.146667 v -0.425334 q 1.29067,-0.07333 1.29067,-0.704002 0,-0.293334 -0.23466,-0.777335 l -0.90934,-2.610673 h -4.45868 l -0.77733,2.038672 q -0.264,0.689334 -0.264,1.100002 0,0.953336 1.74534,0.953336 v 0.425334 q -1.98001,-0.146667 -2.46401,-0.146667 -0.572,0 -2.12667,0.146667 v -0.425334 q 0.88,0 1.37867,-0.528002 0.36667,-0.396 0.748,-1.378669 l 3.10934,-8.198686 q -0.23467,-0.674668 -1.55467,-0.777335 V 59.31685 q 1.056,0.146667 2.88934,0.146667 2.12667,0 2.83067,-0.146667 v 0.425334 q -1.39333,0 -1.628,0.924002 l 3.46134,8.682687 q 0.27867,0.689335 0.73334,0.968002 0.396,0.249334 1.17333,0.308001 z m -5.14801,-5.236012 -2.05334,-5.089345 -1.83334,5.089345 z"
         style="font-size:14.6667px;display:inline"
         id="path824" />
      <path
         d="m 504.65339,68.439537 -0.71866,2.610673 -6.14535,-0.146667 q -0.42534,0 -3.81334,0.146667 l -0.0733,-0.498668 q 1.14401,0 1.48134,-0.337334 0.352,-0.352001 0.352,-1.42267 V 60.87152 q 0,-0.748002 -0.49867,-0.997336 -0.27866,-0.132 -1.188,-0.205334 v -0.352 q 0.484,0 1.51067,0.07333 1.02667,0.07333 1.52534,0.07333 0.352,0 1.08533,-0.07333 0.748,-0.07333 1.10001,-0.07333 v 0.352 q -1.04134,0.05867 -1.36401,0.410668 -0.32267,0.352001 -0.32267,1.42267 v 7.06935 q 0,1.114669 0.66001,1.496003 0.49866,0.278667 1.73067,0.278667 1.86267,0 2.53734,-0.234667 1.21733,-0.410667 1.64267,-1.818671 z"
         style="font-size:14.6667px;display:inline"
         id="path826" />
      <path
         d="m 522.76543,64.860862 q 0.132,2.786673 -1.98,4.664011 -1.98001,1.760004 -4.72268,1.760004 v 0 q -2.77201,0.05867 -4.81068,-1.59867 -2.18534,-1.774671 -2.18534,-4.532011 0,-2.669339 2.09734,-4.40001 1.93601,-1.613337 4.60535,-1.672004 2.65467,-0.05867 4.69334,1.496004 2.17067,1.672004 2.30267,4.282676 z m -2.86001,-2.713339 q -0.616,-1.085336 -1.892,-1.730671 -1.20267,-0.616001 -2.52267,-0.616001 -1.96534,0 -3.22668,1.496003 -1.20267,1.42267 -1.20267,3.417341 0,2.346672 1.48134,4.09201 1.55467,1.833337 3.87201,1.833337 2.14134,0 3.37334,-1.51067 1.11467,-1.364003 1.11467,-3.432008 0,-1.921337 -0.99734,-3.549341 z m -3.06534,3.138674 -0.77733,0.792002 h -0.14667 l -0.792,-0.792002 q -0.0147,-0.02933 -0.044,-0.07333 0,-0.01467 0.044,-0.05867 l 0.792,-0.792001 q 0.0587,-0.05867 0.0733,-0.05867 0.0147,0.01467 0.0733,0.05867 l 0.77733,0.792001 q 0.0587,0.044 0.0587,0.05867 -0.0147,0.02933 -0.0587,0.07333 z"
         style="font-size:14.6667px;display:inline"
         id="path828" />
      <path
         d="m 542.43211,71.05021 q -0.45467,0 -1.42267,-0.07333 -0.968,-0.07333 -1.48133,-0.07333 -0.49867,0 -1.52534,0.07333 -1.012,0.07333 -1.51067,0.07333 v -0.425334 q 1.32,0 1.672,-0.454668 0.308,-0.381334 0.308,-1.730671 v -8.066685 l -6.71735,2.332005 v 5.73468 q 0,1.33467 0.396,1.760004 0.39601,0.425335 1.65734,0.425335 v 0.425334 q -0.484,0 -1.496,-0.07333 -1.012,-0.07333 -1.54,-0.07333 -0.45467,0 -1.43734,0.07333 -0.968,0.07333 -1.46667,0.07333 v -0.425334 q 2.12667,0 2.12667,-2.75734 v -6.365348 q 0,-1.026669 -0.24933,-1.349336 -0.29334,-0.410668 -1.24667,-0.410668 V 59.31685 l 3.256,0.07333 v 2.332006 l 6.64402,-2.405339 q 0.176,0 0.55733,0.044 0.396,0.02933 0.57201,0.02933 0.264,0.044 2.332,-0.07333 v 0.425334 q -0.968,0 -1.26134,0.366667 -0.29333,0.352001 -0.29333,1.393337 v 6.365348 q 0,2.75734 2.12667,2.75734 z"
         style="font-size:14.6667px;display:inline"
         id="path830" />
    </g>
    <g
       aria-label="
SAVE SHEET"
       transform="matrix(0.26458333,0,0,0.26458333,-58.738382,4.6460429)"
       id="text523"
       style="font-size:17.3333px;line-height:2.25;font-family:'Celtic Garamond the 2nd';-inkscape-font-specification:'Celtic Garamond the 2nd';text-align:center;letter-spacing:5px;white-space:pre;shape-inside:url(#rect525);display:inline;stroke-width:1.33">
      <path
         d="m 292.03536,113.99557 q 0,2.736 -2.472,4.344 -2.112,1.368 -4.992,1.368 -2.688,0 -4.8,-1.056 l -0.696,-4.08 h 0.816 q 1.248,4.08 4.896,4.08 1.8,0 3,-0.888 1.32,-0.984 1.32,-2.736 0,-1.416 -1.776,-2.784 -0.864,-0.648 -3,-1.752 -2.136,-1.104 -3.12,-2.064 -1.44,-1.44 -1.44,-3.312 0,-2.688 2.112,-4.128 1.848,-1.248003 4.656,-1.248003 1.416,0 3.864,0.360003 l 0.456,3.504 h -0.696 q -0.528,-3.048 -3.96,-3.048 -1.512,0 -2.64,0.84 -1.224,0.936 -1.224,2.424 0,1.752 1.656,3.024 0.768,0.6 3.264,1.776 2.232,1.056 3.24,1.992 1.536,1.416 1.536,3.384 z"
         style="font-size:24px;display:inline"
         id="path733" />
      <path
         d="m 319.57135,119.32357 q -2.544,-0.24 -4.032,-0.24 -1.272,0 -4.056,0.24 v -0.696 q 2.112,-0.12 2.112,-1.152 0,-0.48 -0.384,-1.272 l -1.488,-4.272 h -7.296 l -1.272,3.336 q -0.432,1.128 -0.432,1.8 0,1.56 2.856,1.56 v 0.696 q -3.24,-0.24 -4.032,-0.24 -0.936,0 -3.48,0.24 v -0.696 q 1.44,0 2.256,-0.864 0.6,-0.648 1.224,-2.256 l 5.088,-13.416 q -0.384,-1.104 -2.544,-1.272 v -0.696 q 1.728,0.24 4.728,0.24 3.48,0 4.632,-0.24 v 0.696 q -2.28,0 -2.664,1.512 l 5.664,14.208 q 0.456,1.128 1.2,1.584 0.648,0.408 1.92,0.504 z m -8.424,-8.568 -3.36,-8.328 -3,8.328 z"
         style="font-size:24px;display:inline"
         id="path735" />
      <path
         d="m 341.85139,100.69957 q -1.176,0 -2.16,1.392 -0.48,0.672 -1.272,2.376 l -6.744,14.856 h -1.128 l -7.08,-15.432 q -1.416,-3.024 -3.672,-3.192 v -0.576 q 3.72,0.144 4.92,0.12 0.576,0 3.432,-0.12 v 0.576 q -1.08,0.072 -1.512,0.24 -0.504,0.24 -0.504,0.744 0,0.408 0.288,1.08 l 5.616,12.792 4.68,-10.632 q 0.912,-2.064 0.912,-2.712 0,-1.368 -2.4,-1.512 v -0.576 q 0.912,0.12 4.128,0.12 1.248,0 2.496,-0.12 z"
         style="font-size:24px;display:inline"
         id="path737" />
      <path
         d="m 364.8274,115.17157 q -1.224,1.896 -1.392,4.152 -1.44,0 -3.72,-0.048 -2.28,-0.072 -3.12,-0.072 0,0 -3.576,-0.12 -2.472,-0.072 -5.784,0.12 v -0.696 q 1.512,0 2.04,-0.312 0.744,-0.456 0.744,-1.872 v -13.32 q 0,-1.392 -0.792,-1.848 -0.552,-0.336 -1.992,-0.336 v -0.696 q 3.312,0.192 5.784,0.12 0,0 3.576,0 0.84,0 3.12,-0.048 2.28,-0.072 3.72,-0.072 0.168,2.328 1.392,4.056 l -0.816,0.216 q -0.888,-2.064 -2.592,-2.808 -1.296,-0.528 -3.888,-0.528 -2.448,0 -3.12,0.24 -1.392,0.528 -1.392,2.52 v 4.872 h 3.936 l 0.816,-0.816 q 0.072,-0.096 0.096,-0.096 0.048,0.024 0.12,0.096 l 1.272,1.272 q 0.096,0.096 0.096,0.12 -0.024,0.024 -0.096,0.12 l -1.272,1.272 h -0.216 l -0.816,-0.816 h -3.936 v 5.784 q 0,1.968 1.392,2.448 0.576,0.216 3.12,0.216 2.664,0 3.888,-0.504 1.704,-0.72 2.592,-2.856 z"
         style="font-size:24px;display:inline"
         id="path739" />
      <path
         d="m 399.57138,113.99557 q 0,2.736 -2.472,4.344 -2.112,1.368 -4.992,1.368 -2.688,0 -4.8,-1.056 l -0.696,-4.08 h 0.816 q 1.248,4.08 4.896,4.08 1.8,0 3,-0.888 1.32,-0.984 1.32,-2.736 0,-1.416 -1.776,-2.784 -0.864,-0.648 -3,-1.752 -2.136,-1.104 -3.12,-2.064 -1.44,-1.44 -1.44,-3.312 0,-2.688 2.112,-4.128 1.848,-1.248003 4.656,-1.248003 1.416,0 3.864,0.360003 l 0.456,3.504 h -0.696 q -0.528,-3.048 -3.96,-3.048 -1.512,0 -2.64,0.84 -1.224,0.936 -1.224,2.424 0,1.752 1.656,3.024 0.768,0.6 3.264,1.776 2.232,1.056 3.24,1.992 1.536,1.416 1.536,3.384 z"
         style="font-size:24px;display:inline"
         id="path741" />
      <path
         d="m 429.38738,119.32357 q -0.624,0 -1.92,-0.12 -1.272,-0.12 -1.92,-0.12 -0.744,0 -2.28,0.12 -1.536,0.12 -2.376,0.12 v -0.696 q 1.464,0 2.016,-0.336 0.792,-0.48 0.792,-1.872 v -6.408 h -12.816 v 5.352 q 0,1.872 0.384,2.472 0.528,0.792 2.304,0.792 l 0.12,0.696 q -0.648,0 -1.992,-0.12 -1.32,-0.12 -1.968,-0.12 -0.768,0 -2.328,0.12 -1.56,0.12 -2.328,0.12 v -0.696 q 1.44,0 1.968,-0.336 0.72,-0.48 0.72,-1.872 v -13.728 q 0,-1.248 -0.792,-1.656 -0.408,-0.216 -1.896,-0.336 v -0.576 q 1.92,0.072 3.336,0.168 1.176,0.072 0.96,0.072 0.696,0 2.16,-0.12 1.464,-0.12 2.16,-0.12 v 0.576 q -1.728,0.096 -2.28,0.696 -0.528,0.576 -0.528,2.328 v 5.016 h 12.816 v -6.048 q 0,-1.32 -0.792,-1.704 -0.36,-0.168 -2.016,-0.288 v -0.576 q 0.792,0 2.208,0.12 1.416,0.12 2.112,0.12 0.696,0 2.088,-0.12 1.392,-0.12 2.088,-0.12 v 0.576 q -1.608,0.096 -2.136,0.744 -0.528,0.648 -0.528,2.28 v 12.696 q 0,1.368 0.72,1.848 0.552,0.36 1.944,0.36 z"
         style="font-size:24px;display:inline"
         id="path743" />
      <path
         d="m 452.43539,115.17157 q -1.224,1.896 -1.392,4.152 -1.44,0 -3.72,-0.048 -2.28,-0.072 -3.12,-0.072 0,0 -3.576,-0.12 -2.472,-0.072 -5.784,0.12 v -0.696 q 1.512,0 2.04,-0.312 0.744,-0.456 0.744,-1.872 v -13.32 q 0,-1.392 -0.792,-1.848 -0.552,-0.336 -1.992,-0.336 v -0.696 q 3.312,0.192 5.784,0.12 0,0 3.576,0 0.84,0 3.12,-0.048 2.28,-0.072 3.72,-0.072 0.168,2.328 1.392,4.056 l -0.816,0.216 q -0.888,-2.064 -2.592,-2.808 -1.296,-0.528 -3.888,-0.528 -2.448,0 -3.12,0.24 -1.392,0.528 -1.392,2.52 v 4.872 h 3.936 l 0.816,-0.816 q 0.072,-0.096 0.096,-0.096 0.048,0.024 0.12,0.096 l 1.272,1.272 q 0.096,0.096 0.096,0.12 -0.024,0.024 -0.096,0.12 l -1.272,1.272 h -0.216 l -0.816,-0.816 h -3.936 v 5.784 q 0,1.968 1.392,2.448 0.576,0.216 3.12,0.216 2.664,0 3.888,-0.504 1.704,-0.72 2.592,-2.856 z"
         style="font-size:24px;display:inline"
         id="path745" />
      <path
         d="m 474.30737,115.17157 q -1.224,1.896 -1.392,4.152 -1.44,0 -3.72,-0.048 -2.28,-0.072 -3.12,-0.072 0,0 -3.576,-0.12 -2.472,-0.072 -5.784,0.12 v -0.696 q 1.512,0 2.04,-0.312 0.744,-0.456 0.744,-1.872 v -13.32 q 0,-1.392 -0.792,-1.848 -0.552,-0.336 -1.992,-0.336 v -0.696 q 3.312,0.192 5.784,0.12 0,0 3.576,0 0.84,0 3.12,-0.048 2.28,-0.072 3.72,-0.072 0.168,2.328 1.392,4.056 l -0.816,0.216 q -0.888,-2.064 -2.592,-2.808 -1.296,-0.528 -3.888,-0.528 -2.448,0 -3.12,0.24 -1.392,0.528 -1.392,2.52 v 4.872 h 3.936 l 0.816,-0.816 q 0.072,-0.096 0.096,-0.096 0.048,0.024 0.12,0.096 l 1.272,1.272 q 0.096,0.096 0.096,0.12 -0.024,0.024 -0.096,0.12 l -1.272,1.272 h -0.216 l -0.816,-0.816 h -3.936 v 5.784 q 0,1.968 1.392,2.448 0.576,0.216 3.12,0.216 2.664,0 3.888,-0.504 1.704,-0.72 2.592,-2.856 z"
         style="font-size:24px;display:inline"
         id="path747" />
      <path
         d="m 500.16335,105.21157 h -0.672 q -0.36,-2.352 -1.344,-3.192 -0.984,-0.864 -3.408,-0.864 h -3.576 v 14.016 q 0,2.064 0.456,2.688 0.6,0.768 2.664,0.768 l -0.12,0.696 -4.752,-0.24 q -0.744,-0.024 -2.136,0.096 -1.536,0.144 -2.136,0.144 v -0.696 q 1.608,0 2.16,-0.264 0.84,-0.456 0.84,-1.92 v -15.288 h -3.24 q -2.424,0 -3.408,0.864 -0.984,0.84 -1.32,3.192 h -0.816 l 0.696,-5.784003 h 0.696 q 0.528,0.696003 3.24,0.696003 h 4.152 v -1.512003 q 0,-1.152 -0.816,-1.536 -0.432,-0.192 -1.944,-0.312 v -0.696 l 4.272,0.24 q -0.168,0 4.272,-0.24 v 0.696 q -1.632,0 -2.208,0.624 -0.552,0.6 -0.552,2.28 v 0.456003 h 4.512 q 2.712,0 3.216,-0.696003 h 0.6 z"
         style="font-size:24px;display:inline"
         id="path749" />
    </g>
  </g>
</svg>
