<?xml version="1.0" encoding="UTF-8" standalone="no"?>
<svg
   enable-background="new 0 0 56.693 56.693"
   height="16"
   id="Layer_1"
   version="1.1"
   viewBox="0 0 16 16"
   width="16"
   xml:space="preserve"
   xmlns="http://www.w3.org/2000/svg"
   xmlns:svg="http://www.w3.org/2000/svg"><defs
     id="defs110" /><path
     d="M 8.000325,0 C 3.5818713,0 0,3.5825211 0,8.000325 0,12.418778 3.5818713,16 8.000325,16 12.418778,16 16,12.418778 16,8.000325 16,3.5825211 12.418454,0 8.000325,0 Z m 4.029889,6.387264 c 0.0042,0.08642 0.0058,0.173165 0.0058,0.260884 0,2.664393 -2.02794,5.736192 -5.736192,5.736192 -1.1384015,0 -2.1985055,-0.333658 -3.0906432,-0.905458 0.1578947,0.01852 0.3180636,0.02794 0.4808317,0.02794 0.9447693,0 1.814165,-0.322288 2.5038986,-0.862898 -0.8820663,-0.01657 -1.6263808,-0.59974 -1.8830409,-1.400585 0.122807,0.02404 0.2491878,0.03606 0.3791423,0.03606 0.1838856,0 0.3619233,-0.02404 0.5311891,-0.0705 C 4.2985225,9.023714 3.6035907,8.208249 3.6035907,7.232291 c 0,-0.0088 0,-0.01722 3.249e-4,-0.02599 C 3.8755206,7.357373 4.1864367,7.448016 4.517171,7.458737 3.9759584,7.096489 3.6202079,6.48018 3.6202079,5.780375 c 0,-0.369396 0.099415,-0.71605 0.2729045,-1.0136454 C 4.8875893,5.986353 6.373294,6.789147 8.049058,6.872967 8.014618,6.725794 7.996748,6.571473 7.996748,6.413578 c 0,-1.11306 0.902534,-2.0159192 2.016244,-2.0159192 0.579922,0 1.103639,0.2449643 1.47141,0.6364522 0.45939,-0.08999 0.890839,-0.2582845 1.280377,-0.4892787 C 12.613707,5.015917 12.294344,5.410979 11.87784,5.660167 12.286222,5.611437 12.674786,5.502922 13.036059,5.342753 12.766404,5.747886 12.424298,6.102987 12.030211,6.387262 Z"
     id="path105"
     style="stroke-width:0.324886" /></svg>
